<?xml version="1.0" encoding="UTF-8" standalone="no"?>
<svg
   xmlns:dc="http://purl.org/dc/elements/1.1/"
   xmlns:cc="http://creativecommons.org/ns#"
   xmlns:rdf="http://www.w3.org/1999/02/22-rdf-syntax-ns#"
   xmlns:svg="http://www.w3.org/2000/svg"
   xmlns="http://www.w3.org/2000/svg"
   xmlns:xlink="http://www.w3.org/1999/xlink"
   xmlns:sodipodi="http://sodipodi.sourceforge.net/DTD/sodipodi-0.dtd"
   xmlns:inkscape="http://www.inkscape.org/namespaces/inkscape"
   version="1.1"
   id="Capa_1"
   x="0px"
   y="0px"
   viewBox="0 0 132.72278 6.79597"
   xml:space="preserve"
   sodipodi:docname="chain.svg"
   inkscape:version="0.92.5 (2060ec1f9f, 2020-04-08)"
   width="132.72278"
   height="6.79597">
    <metadata
   id="metadata41">
        <rdf:RDF>
            <cc:Work
   rdf:about="">
                <dc:format>image/svg+xml</dc:format>
                <dc:type
   rdf:resource="http://purl.org/dc/dcmitype/StillImage" />
            <dc:title></dc:title></cc:Work>        </rdf:RDF>
    </metadata>
    <defs
   id="defs39" />
    <sodipodi:namedview
   pagecolor="#ffffff"
   bordercolor="#666666"
   borderopacity="1"
   objecttolerance="10"
   gridtolerance="10"
   guidetolerance="10"
   inkscape:pageopacity="0"
   inkscape:pageshadow="2"
   inkscape:window-width="1920"
   inkscape:window-height="1003"
   id="namedview37"
   showgrid="false"
   inkscape:zoom="16"
   inkscape:cx="26.205134"
   inkscape:cy="2.4890684"
   inkscape:window-x="1050"
   inkscape:window-y="600"
   inkscape:window-maximized="1"
   inkscape:current-layer="Capa_1"
   fit-margin-top="0"
   fit-margin-left="0"
   fit-margin-right="0"
   fit-margin-bottom="0"
   inkscape:pagecheckerboard="false"
   units="px" />
<g
   id="g38322"
   transform="translate(370.15208,-174.78106)">
      <g
   transform="translate(-0.08856049)"
   id="g38189">
        <path
   inkscape:connector-curvature="0"
   style="opacity:1;vector-effect:none;fill:#e66443;fill-opacity:1;stroke:none;stroke-width:1.05833328;stroke-linecap:round;stroke-linejoin:miter;stroke-miterlimit:4;stroke-dasharray:none;stroke-dashoffset:0;stroke-opacity:1;paint-order:normal"
   d="m -351.80487,174.78106 c -1.27322,0 -2.37209,0.71486 -2.92282,1.76579 h 11.16933 c -0.55073,-1.05093 -1.64909,-1.76579 -2.92229,-1.76579 z"
   id="path38184" />
        <path
   inkscape:connector-curvature="0"
   style="opacity:1;vector-effect:none;fill:#c13423;fill-opacity:1;stroke:none;stroke-width:1.05833328;stroke-linecap:round;stroke-linejoin:miter;stroke-miterlimit:4;stroke-dasharray:none;stroke-dashoffset:0;stroke-opacity:1;paint-order:normal"
   d="m -354.72769,179.81125 c 0.55073,1.05093 1.6496,1.76578 2.92282,1.76578 h 5.32422 c 1.2732,0 2.37156,-0.71485 2.92229,-1.76578 z"
   id="path38175" />
        <path
   inkscape:connector-curvature="0"
   style="opacity:1;vector-effect:none;fill:#e66443;fill-opacity:1;stroke:none;stroke-width:3.99999976;stroke-linecap:round;stroke-linejoin:miter;stroke-miterlimit:4;stroke-dasharray:none;stroke-dashoffset:0;stroke-opacity:1;paint-order:normal"
   d="m -1325.1484,679.60156 -3.9981,6.67383 h 11.0488 l 3.9981,-6.67383 z"
   transform="scale(0.26458333)"
   id="rect38170" />
      </g>
      <g
   id="g38199">
        <path
   style="opacity:1;vector-effect:none;fill:#e66443;fill-opacity:1;stroke:none;stroke-width:1.05833328;stroke-linecap:round;stroke-linejoin:miter;stroke-miterlimit:4;stroke-dasharray:none;stroke-dashoffset:0;stroke-opacity:1;paint-order:normal"
   d="m -366.85201,174.78106 c -1.82822,0 -3.30007,1.47186 -3.30007,3.30006 v 0.19585 c 0,1.82821 1.47185,3.30006 3.30007,3.30006 h 5.32421 c 1.2732,0 2.3721,-0.71485 2.92283,-1.76578 h -8.16179 c -0.88641,0 -1.59991,-0.7135 -1.59991,-1.5999 v -0.0646 c 0,-0.8864 0.7135,-1.5999 1.59991,-1.5999 h 8.16179 c -0.55073,-1.05096 -1.6496,-1.76579 -2.92283,-1.76579 z"
   id="rect38156"
   inkscape:connector-curvature="0" />
        <path
   style="fill:#c13423;fill-opacity:1;stroke:none;stroke-width:0.26458332px;stroke-linecap:butt;stroke-linejoin:miter;stroke-opacity:1"
   d="m -363.15044,179.81124 -0.95342,1.76578 h 2.57606 c 1.2732,0 2.3721,-0.71485 2.92283,-1.76578 z"
   id="path38191"
   inkscape:connector-curvature="0" />
      </g>
      <use
   height="100%"
   width="100%"
   transform="translate(15.146952)"
   id="use38225"
   xlink:href="#g38189"
   y="0"
   x="0" />
      <use
   x="0"
   y="0"
   xlink:href="#g38189"
   id="use38227"
   transform="translate(30.293922)"
   width="100%"
   height="100%" />
      <use
   x="0"
   y="0"
   xlink:href="#g38189"
   id="use38231"
   transform="translate(60.587812)"
   width="100%"
   height="100%" />
      <use
   height="100%"
   width="100%"
   transform="translate(45.440869)"
   id="use38229"
   xlink:href="#g38189"
   y="0"
   x="0" />
      <use
   height="100%"
   width="100%"
   transform="translate(75.734791)"
   id="use38248"
   xlink:href="#g38189"
   y="0"
   x="0" />
      <use
   x="0"
   y="0"
   xlink:href="#g38189"
   id="use38250"
   transform="translate(90.881714)"
   width="100%"
   height="100%" />
      <g
   id="g38274">
        <path
   inkscape:connector-curvature="0"
   id="rect38156-5"
   d="m -240.72937,174.78106 c 1.82822,0 3.30007,1.47186 3.30007,3.30006 v 0.19585 c 0,1.82821 -1.47185,3.30006 -3.30007,3.30006 h -5.32421 c -1.2732,0 -2.3721,-0.71485 -2.92283,-1.76578 h 8.16179 c 0.88641,0 1.59991,-0.7135 1.59991,-1.5999 v -0.0646 c 0,-0.8864 -0.7135,-1.5999 -1.59991,-1.5999 h -8.16179 c 0.55073,-1.05096 1.6496,-1.76579 2.92283,-1.76579 z"
   style="opacity:1;vector-effect:none;fill:#e66443;fill-opacity:1;stroke:none;stroke-width:1.05833328;stroke-linecap:round;stroke-linejoin:miter;stroke-miterlimit:4;stroke-dasharray:none;stroke-dashoffset:0;stroke-opacity:1;paint-order:normal" />
        <path
   inkscape:connector-curvature="0"
   style="fill:#c13423;fill-opacity:1;stroke:none;stroke-width:0.99999994px;stroke-linecap:butt;stroke-linejoin:miter;stroke-opacity:1"
   d="m -941.01367,679.60156 c 2.0815,3.97202 6.23478,6.67383 11.04687,6.67383 h 0.1875 l 3.78321,-6.67383 z"
   transform="scale(0.26458333)"
   id="path38267" />
      </g>
      <rect
   ry="0.69999999"
   rx="0.69999999"
   y="177.3195"
   x="-362.7619"
   height="1.804521"
   width="11.913719"
   id="rect38276"
   style="opacity:1;vector-effect:none;fill:#e66443;fill-opacity:1;stroke:none;stroke-width:1.05833328;stroke-linecap:round;stroke-linejoin:miter;stroke-miterlimit:4;stroke-dasharray:none;stroke-dashoffset:0;stroke-opacity:1;paint-order:normal" />
      <use
   height="100%"
   width="100%"
   transform="translate(30.293908)"
   id="use38284"
   xlink:href="#rect38276"
   y="0"
   x="0" />
      <use
   height="100%"
   width="100%"
   transform="translate(15.146943)"
   x="0"
   y="0"
   xlink:href="#rect38276"
   id="use38286" />
      <use
   x="0"
   y="0"
   xlink:href="#rect38276"
   id="use38288"
   transform="translate(45.440851)"
   width="100%"
   height="100%" />
      <use
   height="100%"
   width="100%"
   transform="translate(60.587817)"
   id="use38290"
   xlink:href="#rect38276"
   y="0"
   x="0" />
      <use
   x="0"
   y="0"
   xlink:href="#rect38276"
   id="use38292"
   transform="translate(75.734761)"
   width="100%"
   height="100%" />
      <use
   height="100%"
   width="100%"
   transform="translate(90.881703)"
   id="use38294"
   xlink:href="#rect38276"
   y="0"
   x="0" />
      <use
   x="0"
   y="0"
   xlink:href="#rect38276"
   id="use38296"
   transform="translate(106.02865)"
   width="100%"
   height="100%" />
    </g>
</svg>