<?xml version="1.0" encoding="UTF-8" standalone="no"?>
<svg
   xmlns:dc="http://purl.org/dc/elements/1.1/"
   xmlns:cc="http://creativecommons.org/ns#"
   xmlns:rdf="http://www.w3.org/1999/02/22-rdf-syntax-ns#"
   xmlns:svg="http://www.w3.org/2000/svg"
   xmlns="http://www.w3.org/2000/svg"
   xmlns:sodipodi="http://sodipodi.sourceforge.net/DTD/sodipodi-0.dtd"
   xmlns:inkscape="http://www.inkscape.org/namespaces/inkscape"
   class="secret-illustration secret-illustration-bird"
   height="43"
   width="39.348866"
   viewBox="0 0 19.674432 21.5"
   version="1.1"
   id="svg4"
   sodipodi:docname="skull.svg"
   inkscape:version="0.92.5 (2060ec1f9f, 2020-04-08)"
   fill = "#709cc7">
  <metadata
     id="metadata10">
    <rdf:RDF>
      <cc:Work
         rdf:about="">
        <dc:format>image/svg+xml</dc:format>
        <dc:type
           rdf:resource="http://purl.org/dc/dcmitype/StillImage" />
        <dc:title></dc:title>
      </cc:Work>
    </rdf:RDF>
  </metadata>
  <defs
     id="defs8" />
  <sodipodi:namedview
     pagecolor="#ffffff"
     bordercolor="#666666"
     borderopacity="1"
     objecttolerance="10"
     gridtolerance="10"
     guidetolerance="10"
     inkscape:pageopacity="0"
     inkscape:pageshadow="2"
     inkscape:window-width="1920"
     inkscape:window-height="1003"
     id="namedview6"
     showgrid="false"
     fit-margin-top="0"
     fit-margin-left="0"
     fit-margin-right="0"
     fit-margin-bottom="0"
     inkscape:zoom="6.020408"
     inkscape:cx="19.974434"
     inkscape:cy="21.574434"
     inkscape:window-x="1050"
     inkscape:window-y="600"
     inkscape:window-maximized="1"
     inkscape:current-layer="svg4" />
  <path
     class="secret-illustration-fill"
     d="m 18.6,0 -1,0.4 c -0.1,0 -0.1,0 -0.2,0 l -4.7,2.1 v 0 L 12.1,2.8 10.9,3.4 C 10.4,3.6 9.9999997,3.9 9.6999997,4.3 v 0 L 7.2,8.3 C 7,8.3 6.8,8.3 6.6,8.4 L 5.3,4.7 4.5,3.4 0.49999996,0.3 0,0.6 2.5,4.8 2.7,5.6 3.3,8.2 C 2.9,8 2.5,7.8 2.1,7.6 1.2,7.6 0.49999996,8.3 0.59999996,9.2 c 0,0 0,0 0,0 0,0.2 0,0.4 0.1,0.6 v 0 l 0.3,2 L 1.8,10.8 2.2,13 c 0.2,1.1 1.1,2 2.2,2.4 L 6.6,16 v 0 c 0.2,0.1 0.5,0.2 0.8,0.2 l 0.2,2 c 0,0.1 0,0.2 0,0.4 0,0 0,0 0.1,0.1 l 0.1,1 2.1999997,1.8 H 11.6 v -0.2 c 0.2,0 0.3,0 0.4,-0.2 l -0.1,-1 0.6,1 c 0.2,0.2 0.4,0.3 0.7,0.3 v 0 l 1.2,-0.3 c 0.1,0 0.3,0 0.4,-0.1 v 0 -0.1 c 0,0 0,-0.1 0,-0.1 l 0.4,-1.4 H 14.9 C 14.8,19.3 14.8,19.1 14.7,19 L 11.1,15.4 9.1999997,13.4 10.7,12.7 c 0.3,-0.1 0.5,-0.3 0.5,-0.6 l 0.3,-0.3 0.5,-0.4 c 0.3,-0.1 0.5,-0.5 0.4,-0.9 0,0 0,-0.1 -0.1,-0.1 v 0 L 13.1,10 C 13.5,9.8 13.7,9.3 13.5,8.8 L 13.7,8.5 14.3,8.2 C 14.6,8 14.8,7.6 14.6,7.3 L 15.2,6.5 15.4,6.4 C 15.6,6.3 15.7,6.1 15.7,5.9 L 16.2,5.3 18.1,3 19.5,1.2 C 19.8,0.8 19.7,0.4 19.3,0.1 19,0 18.8,0 18.6,0 Z"
     id="path2"
     inkscape:connector-curvature="0" />
</svg>
