<?xml version="1.0" encoding="UTF-8" standalone="no"?>
<svg
   xmlns:dc="http://purl.org/dc/elements/1.1/"
   xmlns:cc="http://creativecommons.org/ns#"
   xmlns:rdf="http://www.w3.org/1999/02/22-rdf-syntax-ns#"
   xmlns:svg="http://www.w3.org/2000/svg"
   xmlns="http://www.w3.org/2000/svg"
   xmlns:xlink="http://www.w3.org/1999/xlink"
   xmlns:sodipodi="http://sodipodi.sourceforge.net/DTD/sodipodi-0.dtd"
   xmlns:inkscape="http://www.inkscape.org/namespaces/inkscape"
   version="1.1"
   id="Capa_1"
   x="0px"
   y="0px"
   viewBox="0 0 100.01718 8.0101309"
   xml:space="preserve"
   sodipodi:docname="frond.svg"
   inkscape:version="1.0 (b51213c273, 2020-08-10)"
   width="100.01717"
   height="8.0101309">
    <metadata
   id="metadata41">
        <rdf:RDF>
            <cc:Work
   rdf:about="">
                <dc:format>image/svg+xml</dc:format>
                <dc:type
   rdf:resource="http://purl.org/dc/dcmitype/StillImage" />
            <dc:title></dc:title></cc:Work>        </rdf:RDF>
    </metadata>
    <defs
   id="defs39" />
    <sodipodi:namedview
   pagecolor="#ffffff"
   bordercolor="#666666"
   borderopacity="1"
   objecttolerance="10"
   gridtolerance="10"
   guidetolerance="10"
   inkscape:pageopacity="0"
   inkscape:pageshadow="2"
   inkscape:window-width="1920"
   inkscape:window-height="1052"
   id="namedview37"
   showgrid="false"
   inkscape:zoom="15.16619"
   inkscape:cx="61.794845"
   inkscape:cy="12.101458"
   inkscape:window-x="0"
   inkscape:window-y="28"
   inkscape:window-maximized="1"
   inkscape:current-layer="Capa_1"
   fit-margin-top="0"
   fit-margin-left="0"
   fit-margin-right="0"
   fit-margin-bottom="0"
   inkscape:pagecheckerboard="false"
   units="px"
   inkscape:document-rotation="0" />

    <g
   id="g38805"
   transform="translate(345.04722,-172.91314)">
      <g
   style="fill:#61c8d9;fill-opacity:1"
   id="g38737">
        <path
   style="fill:#61c8d9;fill-opacity:1;stroke:none;stroke-width:0.264583px;stroke-linecap:butt;stroke-linejoin:miter;stroke-opacity:1"
   d="m -330.58621,173.79002 c -0.0926,-0.24438 -0.23401,-0.60749 -0.0549,-0.78206 0.17912,-0.17457 0.41295,-0.0734 0.72717,0.0274 3.34632,1.07301 3.59472,3.00475 3.55356,3.88285 0,0 -3.06686,-0.0693 -4.22585,-3.12823 z"
   id="path38729"
   inkscape:connector-curvature="0"
   sodipodi:nodetypes="czscsc" />
        <path
   sodipodi:nodetypes="czscsc"
   inkscape:connector-curvature="0"
   id="path38733"
   d="m -330.58621,180.0464 c -0.0926,0.24438 -0.23401,0.60749 -0.0549,0.78206 0.17912,0.17457 0.41295,0.0734 0.72717,-0.0274 3.34632,-1.07301 3.59472,-3.00475 3.55356,-3.88285 0,0 -3.06686,0.0693 -4.22585,3.12823 z"
   style="fill:#61c8d9;fill-opacity:1;stroke:none;stroke-width:0.264583px;stroke-linecap:butt;stroke-linejoin:miter;stroke-opacity:1" />
      </g>
      <use
   style="fill:#61c8d9;fill-opacity:1"
   height="100%"
   width="100%"
   transform="translate(4.8569905)"
   id="use38739"
   xlink:href="#g38737"
   y="0"
   x="0" />
      <use
   style="fill:#61c8d9;fill-opacity:1"
   x="0"
   y="0"
   xlink:href="#g38737"
   id="use38741"
   transform="translate(9.5493373)"
   width="100%"
   height="100%" />
      <use
   style="fill:#61c8d9;fill-opacity:1"
   height="100%"
   width="100%"
   transform="translate(14.378887)"
   id="use38743"
   xlink:href="#g38737"
   y="0"
   x="0" />
      <use
   style="fill:#61c8d9;fill-opacity:1"
   x="0"
   y="0"
   xlink:href="#g38737"
   id="use38745"
   transform="translate(19.071234)"
   width="100%"
   height="100%" />
      <use
   style="fill:#61c8d9;fill-opacity:1"
   height="100%"
   width="100%"
   transform="translate(23.955665)"
   id="use38747"
   xlink:href="#g38737"
   y="0"
   x="0" />
      <use
   style="fill:#61c8d9;fill-opacity:1"
   x="0"
   y="0"
   xlink:href="#g38737"
   id="use38749"
   transform="translate(28.648012)"
   width="100%"
   height="100%" />
      <use
   style="fill:#61c8d9;fill-opacity:1"
   height="100%"
   width="100%"
   transform="translate(33.505003)"
   id="use38751"
   xlink:href="#g38737"
   y="0"
   x="0" />
      <use
   style="fill:#61c8d9;fill-opacity:1"
   x="0"
   y="0"
   xlink:href="#g38737"
   id="use38753"
   transform="translate(38.19735)"
   width="100%"
   height="100%" />
      <use
   style="fill:#61c8d9;fill-opacity:1"
   height="100%"
   width="100%"
   transform="translate(43.0269)"
   id="use38755"
   xlink:href="#g38737"
   y="0"
   x="0" />
      <use
   style="fill:#61c8d9;fill-opacity:1"
   x="0"
   y="0"
   xlink:href="#g38737"
   id="use38757"
   transform="translate(47.691806)"
   width="100%"
   height="100%" />
      <use
   style="fill:#61c8d9;fill-opacity:1"
   height="100%"
   width="100%"
   transform="translate(52.603678)"
   id="use38759"
   xlink:href="#g38737"
   y="0"
   x="0" />
      <use
   style="fill:#61c8d9;fill-opacity:1"
   x="0"
   y="0"
   xlink:href="#g38737"
   id="use38761"
   transform="translate(57.296025)"
   width="100%"
   height="100%" />
      <g
   style="fill:#61c8d9;fill-opacity:1"
   transform="matrix(0.92170763,0,0,0.92170763,-30.442328,13.851346)"
   id="g38767">
        <path
   sodipodi:nodetypes="czscsc"
   inkscape:connector-curvature="0"
   id="path38763"
   d="m -330.58621,173.79002 c -0.0926,-0.24438 -0.23401,-0.60749 -0.0549,-0.78206 0.17912,-0.17457 0.41295,-0.0734 0.72717,0.0274 3.34632,1.07301 3.59472,3.00475 3.55356,3.88285 0,0 -3.06686,-0.0693 -4.22585,-3.12823 z"
   style="fill:#61c8d9;fill-opacity:1;stroke:none;stroke-width:0.264583px;stroke-linecap:butt;stroke-linejoin:miter;stroke-opacity:1" />
        <path
   style="fill:#61c8d9;fill-opacity:1;stroke:none;stroke-width:0.264583px;stroke-linecap:butt;stroke-linejoin:miter;stroke-opacity:1"
   d="m -330.58621,180.0464 c -0.0926,0.24438 -0.23401,0.60749 -0.0549,0.78206 0.17912,0.17457 0.41295,0.0734 0.72717,-0.0274 3.34632,-1.07301 3.59472,-3.00475 3.55356,-3.88285 0,0 -3.06686,0.0693 -4.22585,3.12823 z"
   id="path38765"
   inkscape:connector-curvature="0"
   sodipodi:nodetypes="czscsc" />
      </g>
      <g
   style="fill:#61c8d9;fill-opacity:1"
   id="g38773"
   transform="matrix(0.85067397,0,0,0.85067397,-58.611324,26.418494)">
        <path
   style="fill:#61c8d9;fill-opacity:1;stroke:none;stroke-width:0.264583px;stroke-linecap:butt;stroke-linejoin:miter;stroke-opacity:1"
   d="m -330.58621,173.79002 c -0.0926,-0.24438 -0.23401,-0.60749 -0.0549,-0.78206 0.17912,-0.17457 0.41295,-0.0734 0.72717,0.0274 3.34632,1.07301 3.59472,3.00475 3.55356,3.88285 0,0 -3.06686,-0.0693 -4.22585,-3.12823 z"
   id="path38769"
   inkscape:connector-curvature="0"
   sodipodi:nodetypes="czscsc" />
        <path
   sodipodi:nodetypes="czscsc"
   inkscape:connector-curvature="0"
   id="path38771"
   d="m -330.58621,180.0464 c -0.0926,0.24438 -0.23401,0.60749 -0.0549,0.78206 0.17912,0.17457 0.41295,0.0734 0.72717,-0.0274 3.34632,-1.07301 3.59472,-3.00475 3.55356,-3.88285 0,0 -3.06686,0.0693 -4.22585,3.12823 z"
   style="fill:#61c8d9;fill-opacity:1;stroke:none;stroke-width:0.264583px;stroke-linecap:butt;stroke-linejoin:miter;stroke-opacity:1" />
      </g>
      <path
   id="path38775"
   transform="matrix(0.26458333,0,0,0.26458333,-406.4321,139.97783)"
   d="m 247.40625,134.8457 c -2.52703,-0.0983 -15.40039,1.29678 -15.40039,4.77149 0,3.47471 12.87336,4.86975 15.40039,4.77148 3.17091,-0.12325 11.61653,-0.0525 17.11328,-4.77148 -5.49675,-4.71893 -13.94237,-4.64824 -17.11328,-4.77149 z"
   style="fill:#61c8d9;fill-opacity:1;stroke:none;stroke-width:1px;stroke-linecap:butt;stroke-linejoin:miter;stroke-opacity:1"
   inkscape:connector-curvature="0" />
      <path
   inkscape:connector-curvature="0"
   id="path38780"
   d="m -245.63004,176.91821 h -93.84694"
   style="fill:none;stroke:#61c8d9;stroke-width:1.2;stroke-linecap:round;stroke-linejoin:miter;stroke-miterlimit:4;stroke-dasharray:none;stroke-opacity:1" />
    </g>

   </svg>
