<?xml version="1.0" encoding="UTF-8" standalone="no"?>
<svg
   xmlns:dc="http://purl.org/dc/elements/1.1/"
   xmlns:cc="http://creativecommons.org/ns#"
   xmlns:rdf="http://www.w3.org/1999/02/22-rdf-syntax-ns#"
   xmlns:svg="http://www.w3.org/2000/svg"
   xmlns="http://www.w3.org/2000/svg"
   xmlns:sodipodi="http://sodipodi.sourceforge.net/DTD/sodipodi-0.dtd"
   xmlns:inkscape="http://www.inkscape.org/namespaces/inkscape"
   version="1.1"
   id="Capa_1"
   x="0px"
   y="0px"
   viewBox="0 0 29.410819 18.357206"
   xml:space="preserve"
   sodipodi:docname="hat.svg"
   inkscape:version="0.92.5 (2060ec1f9f, 2020-04-08)"
   width="29.410818"
   height="18.357206">
    <metadata
   id="metadata41">
        <rdf:RDF>
            <cc:Work
   rdf:about="">
                <dc:format>image/svg+xml</dc:format>
                <dc:type
   rdf:resource="http://purl.org/dc/dcmitype/StillImage" />
            <dc:title></dc:title></cc:Work>        </rdf:RDF>
    </metadata>
    <defs
   id="defs39" />
    <sodipodi:namedview
   pagecolor="#ffffff"
   bordercolor="#666666"
   borderopacity="1"
   objecttolerance="10"
   gridtolerance="10"
   guidetolerance="10"
   inkscape:pageopacity="0"
   inkscape:pageshadow="2"
   inkscape:window-width="1920"
   inkscape:window-height="1003"
   id="namedview37"
   showgrid="false"
   inkscape:zoom="11.313709"
   inkscape:cx="11.780073"
   inkscape:cy="-5.8540347"
   inkscape:window-x="1050"
   inkscape:window-y="600"
   inkscape:window-maximized="1"
   inkscape:current-layer="Capa_1"
   fit-margin-top="0"
   fit-margin-left="0"
   fit-margin-right="0"
   fit-margin-bottom="0"
   inkscape:pagecheckerboard="false"
   units="px" />
<g
   transform="translate(235.48074,-185.56627)"
   id="g12228">
      <rect
   style="opacity:1;vector-effect:none;fill:#feffac;fill-opacity:1;stroke:#c43825;stroke-width:0.2;stroke-linecap:round;stroke-linejoin:miter;stroke-miterlimit:4;stroke-dasharray:none;stroke-dashoffset:0;stroke-opacity:1;paint-order:normal"
   id="rect12212"
   width="7.2836761"
   height="8.2777491"
   x="-224.58763"
   y="190.89207" />
      <g
   id="g12224"
   transform="translate(0,-21.166667)"
   style="fill:#990200;fill-opacity:1">
        <path
   transform="scale(0.26458333)"
   inkscape:connector-curvature="0"
   id="path12214"
   d="m -880.43023,819.52999 c -1.61338,-1.1406 -4.18722,-3.98832 -4.18722,-4.63278 0,-0.10437 -0.18827,-0.36015 -0.41837,-0.56839 -0.4702,-0.42552 -2.90043,-5.09315 -2.90043,-5.57071 0,-0.16945 -0.11668,-0.43143 -0.25928,-0.58218 -0.30839,-0.32602 -0.6459,-1.30445 -0.98892,-2.86691 -0.13776,-0.62747 -0.37997,-1.34758 -0.53826,-1.60025 -0.32392,-0.51708 -0.38819,-2.57112 -0.0977,-3.12149 0.10457,-0.1981 0.30944,-0.68011 0.45527,-1.07113 0.60153,-1.61294 3.33839,-3.4627 6.6415,-4.48878 2.04268,-0.63455 3.38202,-0.77095 9.0997,-0.92672 3.25139,-0.0886 6.42499,-0.25715 7.05246,-0.37459 1.83924,-0.34426 4.17429,-1.28687 8.81557,-3.55865 10.50292,-5.1409 13.14254,-6.42058 14.31233,-6.93856 4.32896,-1.91685 4.13848,-1.8777 9.12671,-1.87566 4.32198,0.002 4.37129,0.007 6.32647,0.65203 1.7141,0.56563 3.72445,1.468 9.023,4.0501 0.6845,0.33357 1.38456,0.68506 1.55569,0.78108 1.39759,0.78419 12.259,6.0271 12.48597,6.0271 0.16028,0 0.38009,0.0783 0.48847,0.17403 0.21891,0.19334 1.72646,0.51963 3.93071,0.85076 0.79859,0.11997 3.73884,0.25696 6.53389,0.30441 5.08693,0.0864 7.17692,0.32902 8.76144,1.01721 0.37203,0.16158 1.07311,0.46064 1.55797,0.66459 0.48485,0.20395 0.88155,0.43865 0.88155,0.52157 0,0.0829 0.26696,0.26134 0.59324,0.39649 0.9011,0.37324 2.18926,1.65454 2.82733,2.81226 0.52264,0.9483 0.56188,1.17038 0.45812,2.59282 -0.11351,1.55596 -1.21222,5.2776 -2.0331,6.88665 -0.21648,0.42436 -0.39361,0.91528 -0.39361,1.09095 0,0.17567 -0.0933,0.31941 -0.20743,0.31941 -0.11408,0 -0.20742,0.1287 -0.20742,0.286 0,0.15731 -0.32669,0.82854 -0.72599,1.49163 -0.39929,0.6631 -0.72599,1.32355 -0.72599,1.46768 0,0.14413 -0.21001,0.48741 -0.4667,0.76285 -0.25669,0.27544 -0.92886,1.12858 -1.4937,1.89586 -1.18164,1.60514 -2.97717,3.22268 -3.57729,3.22268 -0.42572,0 -0.89249,-0.75123 -0.89249,-1.4364 0,-0.70757 -1.20112,-3.3739 -2.0627,-4.57893 -0.69322,-0.96955 -3.25918,-3.47973 -4.33437,-4.24015 -0.47455,-0.33561 -0.86281,-0.68564 -0.86281,-0.77784 0,-0.0922 -0.12858,-0.16764 -0.28574,-0.16764 -0.15716,0 -0.40577,-0.14463 -0.55248,-0.3214 -0.14671,-0.17678 -0.64818,-0.51045 -1.11438,-0.74151 -0.4662,-0.23105 -1.17433,-0.59531 -1.57363,-0.80947 -0.39929,-0.21415 -0.89428,-0.39385 -1.09998,-0.39933 -0.2057,-0.005 -0.71741,-0.24332 -1.13714,-0.52853 -0.41972,-0.28521 -0.92264,-0.51856 -1.11759,-0.51856 -0.19495,0 -0.40561,-0.0828 -0.46812,-0.18391 -0.0625,-0.10115 -0.4515,-0.24729 -0.86442,-0.32475 -0.41291,-0.0775 -1.13734,-0.31416 -1.60984,-0.52598 -1.08781,-0.48767 -5.64503,-1.5918 -8.22267,-1.9922 -1.0838,-0.16835 -2.25056,-0.39966 -2.59282,-0.51402 -0.34225,-0.11436 -1.62912,-0.26565 -2.85971,-0.3362 -1.23059,-0.0705 -2.28619,-0.20716 -2.34577,-0.30357 -0.14202,-0.22979 -23.67276,-0.22883 -23.81479,9.7e-4 -0.0599,0.0969 -0.95918,0.23136 -1.99837,0.29868 -1.03919,0.0673 -1.99909,0.21217 -2.13312,0.32187 -0.13403,0.1097 -1.07784,0.30074 -2.09736,0.42452 -1.01952,0.12379 -1.94826,0.31966 -2.06388,0.43528 -0.11562,0.11562 -0.46445,0.21021 -0.77518,0.21021 -1.00369,0 -4.54356,0.83024 -5.41644,1.27037 -0.19809,0.0999 -0.53745,0.18161 -0.75413,0.18161 -0.21668,0 -0.66131,0.13944 -0.98808,0.30986 -0.32678,0.17042 -0.75197,0.31043 -0.94489,0.31114 -0.19291,6.2e-4 -0.40844,0.0946 -0.47894,0.2087 -0.0705,0.11408 -0.2955,0.20743 -0.49998,0.20743 -0.76427,0 -6.24711,2.97738 -7.63271,4.14484 -0.13779,0.11609 -0.31342,0.21108 -0.39029,0.21108 -0.0769,0 -1.03979,0.91526 -2.13983,2.03392 -1.38628,1.40974 -2.23174,2.47596 -2.75501,3.47437 -0.86159,1.64395 -1.62051,3.7726 -1.62051,4.54529 0,0.64573 -0.31225,0.65062 -1.20584,0.0189 z"
   style="opacity:1;vector-effect:none;fill:#990200;fill-opacity:1;stroke:none;stroke-width:1.01916003;stroke-linecap:round;stroke-linejoin:miter;stroke-miterlimit:4;stroke-dasharray:none;stroke-dashoffset:0;stroke-opacity:1;paint-order:normal" />
        <path
   transform="scale(0.26458333)"
   inkscape:connector-curvature="0"
   id="path12216"
   d="m -841.16187,826.47915 c -1.369,-0.0666 -2.68787,-0.23396 -2.9308,-0.37196 -0.24294,-0.138 -1.68973,-0.39142 -3.21509,-0.56316 -1.52537,-0.17174 -3.19343,-0.40794 -3.7068,-0.52489 -0.90713,-0.20665 -3.66744,-0.76936 -4.82518,-0.98364 -0.31513,-0.0583 -0.62399,-0.18863 -0.68637,-0.28956 -0.0624,-0.10093 -0.4637,-0.18351 -0.89181,-0.18351 -0.42812,0 -1.4727,-0.18001 -2.32129,-0.40004 -0.8486,-0.22002 -2.93649,-0.64576 -4.63976,-0.94609 -1.70327,-0.30034 -3.2606,-0.63369 -3.46074,-0.7408 -0.20013,-0.10711 -1.0934,-0.20487 -1.98505,-0.21726 -0.89165,-0.0124 -2.18123,-0.0824 -2.86574,-0.15557 -1.23373,-0.1319 -1.24513,-0.13919 -1.31192,-0.83902 -0.0593,-0.62182 0.0698,-1.02293 0.82388,-2.55816 0.0973,-0.1981 0.1769,-0.48159 0.1769,-0.62996 0,-0.34766 2.99498,-3.42632 3.59112,-3.69146 0.24952,-0.11098 0.82704,-0.47935 1.28338,-0.81859 0.84219,-0.6261 2.47611,-1.46225 4.35593,-2.22912 0.57042,-0.2327 1.60884,-0.66565 2.30761,-0.9621 0.69877,-0.29646 1.42343,-0.53902 1.61036,-0.53902 0.18693,0 0.50195,-0.0846 0.70005,-0.18808 0.1981,-0.10344 1.29359,-0.39302 2.43443,-0.6435 1.14084,-0.25048 2.44762,-0.54504 2.90396,-0.65457 0.45633,-0.10953 1.48309,-0.28847 2.28167,-0.39765 0.79859,-0.10918 1.7226,-0.29003 2.05335,-0.4019 0.33076,-0.11187 1.22217,-0.2034 1.98091,-0.2034 0.75875,0 1.46955,-0.09 1.57956,-0.20002 0.11218,-0.11217 2.43074,-0.2408 5.27898,-0.29286 2.79342,-0.0511 5.26562,-0.10239 5.49379,-0.11407 0.22817,-0.0117 0.86681,0.0368 1.4192,0.10783 0.62741,0.0806 1.09061,0.0428 1.23418,-0.10075 0.28002,-0.28002 1.64757,-0.30478 1.92035,-0.0348 0.10838,0.10728 1.92387,0.23963 4.03442,0.29413 2.11055,0.0545 4.44408,0.19231 5.18563,0.30628 0.74154,0.11396 2.14166,0.30651 3.11138,0.42787 0.96971,0.12137 2.0898,0.31339 2.4891,0.42672 0.39929,0.11332 1.94506,0.43817 3.43505,0.72188 1.48998,0.2837 2.98344,0.65891 3.3188,0.83378 0.33536,0.17488 0.79273,0.31854 1.01639,0.31924 0.22366,7.1e-4 1.01706,0.2966 1.76312,0.65755 0.74605,0.36096 1.51854,0.73432 1.71664,0.82971 0.1981,0.0954 0.5367,0.17342 0.75245,0.17342 0.21574,0 0.50846,0.14001 0.65048,0.31114 0.14203,0.17112 0.41014,0.31796 0.59582,0.3263 0.18568,0.008 0.61762,0.19363 0.95987,0.41177 0.34226,0.21813 0.80896,0.48327 1.03713,0.58919 0.22817,0.10591 1.04937,0.76069 1.82489,1.45505 0.77551,0.69437 1.49891,1.26248 1.60754,1.26248 0.10863,0 0.19751,0.1269 0.19751,0.28201 0,0.1551 0.3257,0.59847 0.72378,0.98527 0.39808,0.38679 0.72794,0.84327 0.73303,1.0144 0.005,0.17112 0.18959,0.6845 0.41002,1.14084 0.53672,1.11115 0.543,2.3022 0.0136,2.58551 -0.22066,0.1181 -1.57827,0.21473 -3.01689,0.21473 -1.50983,0 -3.15987,0.12404 -3.90286,0.2934 -0.70795,0.16137 -1.98724,0.43619 -2.84287,0.61071 -0.85563,0.17452 -2.72245,0.55757 -4.1485,0.85121 -1.42605,0.29364 -2.84399,0.53219 -3.15099,0.53012 -0.307,-0.002 -0.61587,0.0896 -0.68638,0.20366 -0.0705,0.11408 -0.35053,0.20742 -0.62227,0.20742 -0.27175,0 -0.54336,0.0798 -0.6036,0.17721 -0.0602,0.0975 -0.67417,0.23622 -1.3643,0.30835 -0.69013,0.0721 -2.02314,0.30854 -2.96225,0.52536 -1.92542,0.44452 -4.33348,0.77973 -10.41932,1.4504 -1.99098,0.21941 -8.34206,0.2401 -12.44551,0.0406 z m 9.73243,-1.43795 c 0.0614,-0.0993 0.39735,-0.23778 0.74655,-0.30762 0.42196,-0.0844 1.17823,-0.67396 2.25476,-1.75774 1.65812,-1.6693 2.30459,-2.64347 2.30459,-3.47278 0,-0.25818 0.11668,-0.5083 0.25928,-0.55584 0.34291,-0.1143 0.36092,-4.85836 0.0211,-5.56908 -1.3398,-2.8025 -1.4561,-2.99608 -2.15142,-3.58115 -0.33996,-0.28606 -0.61811,-0.61368 -0.61811,-0.72805 0,-0.28154 -3.25181,-1.8931 -3.8199,-1.8931 -0.24919,0 -0.55698,-0.10391 -0.68399,-0.23092 -0.13652,-0.13653 -0.55627,-0.18139 -1.02675,-0.10975 -0.43771,0.0667 -1.35588,0.20265 -2.04038,0.30221 -0.68451,0.0996 -1.43124,0.25076 -1.6594,0.33598 -0.89396,0.3339 -1.45922,0.64654 -1.61786,0.89484 -0.0912,0.14279 -0.29809,0.25962 -0.45969,0.25962 -0.35671,0 -1.96725,1.44687 -1.96725,1.76732 0,0.12579 -0.16334,0.40965 -0.36299,0.63081 -0.19965,0.22116 -0.49056,0.68213 -0.64648,1.02438 -0.15591,0.34226 -0.38455,0.80896 -0.50809,1.03713 -0.27558,0.50898 -0.44849,4.11204 -0.25824,5.38077 0.30153,2.0107 3.87328,6.33875 5.2311,6.33875 0.25372,0 0.51899,0.0934 0.5895,0.20743 0.15898,0.25725 6.25545,0.28271 6.41362,0.0268 z"
   style="opacity:1;vector-effect:none;fill:#990200;fill-opacity:1;stroke:none;stroke-width:1.01916003;stroke-linecap:round;stroke-linejoin:miter;stroke-miterlimit:4;stroke-dasharray:none;stroke-dashoffset:0;stroke-opacity:1;paint-order:normal" />
        <path
   transform="scale(0.26458333)"
   inkscape:connector-curvature="0"
   id="path12218"
   d="m -873.80528,831.37752 c -0.60031,-0.62773 -0.68126,-0.83003 -0.56878,-1.4214 0.0721,-0.37922 0.18894,-1.10953 0.25959,-1.62291 0.21852,-1.58798 0.37018,-1.66011 3.47852,-1.65445 1.49393,0.003 3.0896,0.10701 3.54593,0.23175 0.45634,0.12474 1.29641,0.27212 1.86683,0.32752 0.57042,0.0554 1.13047,0.17409 1.24455,0.26377 0.11408,0.0897 0.88415,0.22958 1.71126,0.31087 0.82711,0.0813 1.50383,0.21891 1.50383,0.30583 0,0.0869 0.58338,0.27148 1.29641,0.41014 2.43681,0.47389 3.06159,0.69298 2.81691,0.98781 -0.13146,0.15839 -0.67601,0.26874 -1.32624,0.26874 -0.60675,0 -1.15328,0.081 -1.21449,0.18008 -0.0612,0.099 -0.6011,0.24506 -1.19975,0.32448 -0.59865,0.0794 -1.21058,0.24574 -1.35985,0.36962 -0.25233,0.20942 -1.43626,0.39523 -4.50976,0.70778 -0.6845,0.0696 -1.36488,0.22332 -1.51196,0.34157 -0.14708,0.11826 -1.40719,0.25679 -2.80024,0.30786 l -2.53283,0.0928 z"
   style="opacity:1;vector-effect:none;fill:#990200;fill-opacity:1;stroke:none;stroke-width:1.01916003;stroke-linecap:round;stroke-linejoin:miter;stroke-miterlimit:4;stroke-dasharray:none;stroke-dashoffset:0;stroke-opacity:1;paint-order:normal" />
        <path
   transform="scale(0.26458333)"
   inkscape:connector-curvature="0"
   id="path12220"
   d="m -840.921,850.59572 c -0.0767,-0.0767 -1.51569,-0.26244 -3.19781,-0.41282 -3.15025,-0.28161 -5.06344,-0.53526 -6.68833,-0.88674 -0.51338,-0.11104 -1.9135,-0.38651 -3.11138,-0.61214 -1.19788,-0.22563 -2.73801,-0.58946 -3.42251,-0.80853 -0.68451,-0.21906 -1.85127,-0.56778 -2.59282,-0.77493 -0.74154,-0.20715 -1.43694,-0.4542 -1.54532,-0.54899 -0.10838,-0.0948 -0.40623,-0.17237 -0.66189,-0.17237 -0.25566,0 -0.52252,-0.0933 -0.59303,-0.20742 -0.0705,-0.11408 -0.28603,-0.208 -0.47895,-0.2087 -0.19291,-7.1e-4 -0.61811,-0.14072 -0.94488,-0.31114 -0.32677,-0.17042 -0.70013,-0.31144 -0.8297,-0.31337 -0.31509,-0.005 -5.95145,-2.8931 -6.67178,-3.41901 -1.15944,-0.8465 -3.00223,-2.83505 -3.13136,-3.37905 -0.0734,-0.30911 -0.27736,-0.72758 -0.45328,-0.92992 -0.51634,-0.59388 -0.0605,-0.7407 1.62013,-0.52184 2.03912,0.26555 6.22265,0.0705 7.10314,-0.33117 0.37142,-0.16944 1.14201,-0.35132 1.71243,-0.40418 1.89495,-0.17561 4.55765,-0.58141 4.9782,-0.75867 0.84441,-0.35592 1.83897,-0.62391 2.31545,-0.62391 0.26973,0 0.6525,-0.0886 0.8506,-0.19691 0.1981,-0.10831 0.9669,-0.30544 1.70845,-0.43808 4.40605,-0.78812 5.32006,-0.9637 5.60048,-1.07585 0.17112,-0.0684 1.61791,-0.28326 3.21509,-0.47738 1.59717,-0.19412 3.51067,-0.42977 4.25221,-0.52368 0.74155,-0.0939 1.92614,-0.17554 2.63243,-0.1814 0.70629,-0.006 1.34186,-0.104 1.41237,-0.21808 0.16471,-0.26651 7.23732,-0.27856 7.7294,-0.0132 0.1981,0.10685 1.38693,0.3029 2.64185,0.43568 1.25493,0.13278 2.8884,0.31776 3.62995,0.41105 0.74154,0.0933 2.00165,0.23608 2.80024,0.3173 0.79858,0.0812 1.54531,0.21738 1.6594,0.30259 0.11408,0.0852 0.86081,0.26105 1.6594,0.39077 2.06342,0.33517 4.32178,0.87396 4.55298,1.08624 0.10838,0.0995 0.73293,0.18092 1.38788,0.18092 0.65495,0 1.24073,0.0807 1.30172,0.17943 0.061,0.0987 0.4632,0.23762 0.8938,0.30873 0.4306,0.0711 1.48296,0.27065 2.33859,0.44342 0.85563,0.17276 2.08274,0.39875 2.72691,0.50218 0.64418,0.10343 1.39091,0.30998 1.6594,0.459 0.34808,0.19318 1.52993,0.27299 4.11812,0.27807 3.55452,0.007 3.65342,-0.005 4.75965,-0.56329 0.62134,-0.31373 1.23513,-0.57042 1.36397,-0.57042 0.12884,0 0.45347,-0.23335 0.72142,-0.51856 0.26794,-0.28521 0.57773,-0.51856 0.68842,-0.51856 0.30441,0 0.006,2.58055 -0.40262,3.47943 -0.384,0.84513 -1.89307,2.5359 -2.26337,2.5359 -0.12749,0 -0.45102,0.23335 -0.71896,0.51856 -0.26794,0.28521 -0.59644,0.51857 -0.73,0.51857 -0.13356,0 -0.41178,0.18668 -0.61827,0.41485 -0.20649,0.22816 -0.49381,0.41485 -0.6385,0.41485 -0.1447,0 -0.52804,0.22294 -0.85187,0.49543 -0.32384,0.27249 -0.9855,0.61429 -1.47036,0.75956 -0.48486,0.14527 -0.98522,0.38903 -1.11192,0.54169 -0.1267,0.15266 -0.36021,0.27757 -0.51891,0.27757 -0.15871,0 -0.45064,0.0838 -0.64874,0.18613 -0.37309,0.1928 -1.20459,0.51797 -3.16042,1.2359 -1.47778,0.54246 -4.35794,1.38409 -5.8079,1.69716 -0.62746,0.13548 -1.34317,0.32366 -1.59047,0.41817 -0.2473,0.0945 -1.19027,0.27324 -2.09548,0.39719 -0.90522,0.12394 -1.96299,0.32442 -2.35061,0.44552 -0.83796,0.26178 -2.80325,0.53793 -5.78668,0.8131 -1.19788,0.11048 -2.69696,0.29399 -3.33129,0.4078 -1.2746,0.22869 -15.39246,0.28974 -15.61467,0.0675 z"
   style="opacity:1;vector-effect:none;fill:#990200;fill-opacity:1;stroke:none;stroke-width:1.01916003;stroke-linecap:round;stroke-linejoin:miter;stroke-miterlimit:4;stroke-dasharray:none;stroke-dashoffset:0;stroke-opacity:1;paint-order:normal" />
        <path
   transform="scale(0.26458333)"
   inkscape:connector-curvature="0"
   id="path12222"
   d="m -801.95851,831.75124 c -0.45633,-0.16358 -1.57643,-0.39847 -2.4891,-0.52197 -0.91267,-0.12349 -2.25262,-0.40559 -2.97766,-0.62688 -0.72504,-0.2213 -1.56978,-0.40235 -1.8772,-0.40235 -0.30741,0 -0.64761,-0.0884 -0.75599,-0.19647 -0.10838,-0.10806 -0.79636,-0.22474 -1.52885,-0.25928 -0.83333,-0.0393 -1.36385,-0.15986 -1.41741,-0.3221 -0.0559,-0.16929 0.13298,-0.25928 0.5442,-0.25928 0.34639,0 0.84421,-0.0844 1.10626,-0.18764 0.26206,-0.10321 1.03652,-0.30909 1.72102,-0.45753 0.6845,-0.14843 1.47791,-0.39011 1.76312,-0.53706 0.28521,-0.14695 0.95642,-0.26776 1.49159,-0.26847 0.53516,-7e-4 1.03071,-0.0946 1.10122,-0.2087 0.0705,-0.11408 0.57073,-0.20742 1.1116,-0.20742 0.54087,0 1.09723,-0.11384 1.23636,-0.25297 0.17103,-0.17103 1.34352,-0.27876 3.61957,-0.33259 3.20704,-0.0758 3.39364,-0.0582 3.93702,0.37173 0.53908,0.42656 0.57042,0.54467 0.57042,2.14968 0,1.53135 -0.0518,1.7542 -0.52695,2.26663 -0.52214,0.5631 -0.55108,0.56821 -3.16324,0.55919 -1.74397,-0.006 -2.91711,-0.10977 -3.46598,-0.30652 z"
   style="opacity:1;vector-effect:none;fill:#990200;fill-opacity:1;stroke:none;stroke-width:1.01916003;stroke-linecap:round;stroke-linejoin:miter;stroke-miterlimit:4;stroke-dasharray:none;stroke-dashoffset:0;stroke-opacity:1;paint-order:normal" />
      </g>
      <path
   style="opacity:1;vector-effect:none;fill:#c43825;fill-opacity:1;stroke:#c43825;stroke-width:0.2;stroke-linecap:round;stroke-linejoin:miter;stroke-miterlimit:4;stroke-dasharray:none;stroke-dashoffset:0;stroke-opacity:1;paint-order:normal"
   d="m -230.99083,200.25415 c -0.0248,-0.0643 -0.59044,-0.11346 -0.62686,-0.0545 -0.0625,0.10106 -0.13233,0.0389 -0.13233,-0.11766 0,-0.0983 -0.0287,-0.16464 -0.0712,-0.16464 -0.0842,0 -0.47763,-0.39045 -0.47763,-0.47402 0,-0.0318 -0.0494,-0.10249 -0.10976,-0.15712 -0.0604,-0.0546 -0.10976,-0.14344 -0.10976,-0.19735 0,-0.0539 -0.0247,-0.11328 -0.0549,-0.13194 -0.0748,-0.0462 -0.0748,-2.66174 0,-2.66174 0.0799,0 0.0674,-0.31556 -0.0137,-0.34529 -0.0549,-0.0201 -0.0549,-0.0397 0,-0.0979 0.0377,-0.04 0.0686,-0.16511 0.0686,-0.27803 0,-0.11292 0.0247,-0.22057 0.0549,-0.23923 0.0302,-0.0187 0.0549,-0.1189 0.0549,-0.22276 0,-0.10387 0.0185,-0.18894 0.0412,-0.18905 0.0226,-1.2e-4 0.0887,-0.11742 0.14671,-0.26069 0.13611,-0.3359 0.2329,-0.46166 0.81445,-1.05819 0.48894,-0.50154 1.17942,-1.04081 1.33263,-1.04081 0.0464,0 0.13743,-0.0494 0.20223,-0.10976 0.0648,-0.0604 0.1611,-0.10976 0.21399,-0.10976 0.0529,0 0.11046,-0.0231 0.12792,-0.0514 0.0414,-0.067 0.56281,-0.31746 0.75731,-0.36378 0.0833,-0.0199 0.16502,-0.058 0.1816,-0.0849 0.0166,-0.0268 0.0987,-0.0488 0.18242,-0.0488 0.0837,0 0.16986,-0.0176 0.19137,-0.0391 0.0673,-0.0673 0.5496,-0.2352 0.67568,-0.23525 0.0661,-2e-5 0.13551,-0.0247 0.15416,-0.0549 0.0187,-0.0302 0.1436,-0.0549 0.27765,-0.0549 0.13405,0 0.24373,-0.0217 0.24373,-0.0482 0,-0.0508 0.65215,-0.17264 1.13878,-0.21266 0.15847,-0.013 0.28813,-0.0461 0.28813,-0.0735 0,-0.0274 0.085,-0.0498 0.18885,-0.0498 0.10386,0 0.20217,-0.0216 0.21847,-0.0479 0.0163,-0.0264 0.35733,-0.0819 0.75785,-0.12348 1.57656,-0.16356 7.75118,-0.0641 7.86914,0.12679 0.0152,0.0246 0.12345,0.0446 0.24062,0.0446 0.11718,0 0.22616,0.0212 0.24219,0.0472 0.016,0.0259 0.19653,0.0642 0.40112,0.0851 0.42922,0.0438 0.84267,0.13592 0.91806,0.20448 0.0287,0.0261 0.14453,0.0474 0.25745,0.0474 0.11292,0 0.22057,0.0247 0.23923,0.0549 0.0187,0.0302 0.11902,0.0549 0.22303,0.0549 0.10401,0 0.3171,0.0617 0.47352,0.1372 0.15643,0.0755 0.34007,0.1372 0.4081,0.1372 0.068,0 0.13779,0.0228 0.15501,0.0507 0.0172,0.0279 0.10511,0.0669 0.19532,0.0867 0.0902,0.0198 0.16421,0.0526 0.16444,0.0728 5.3e-4,0.0423 0.26727,0.17383 0.35352,0.17435 0.15944,0.001 1.23367,0.60769 1.28334,0.72484 0.0101,0.0237 0.049,0.0431 0.0865,0.0431 0.0375,0 0.12619,0.0617 0.19708,0.1372 0.0709,0.0755 0.15105,0.1372 0.17813,0.1372 0.0682,0 0.20604,0.14423 0.20604,0.21561 0,0.0323 0.0265,0.0588 0.0588,0.0588 0.0766,0 0.2156,0.13987 0.2156,0.21697 0,0.0331 0.0617,0.0836 0.13721,0.11232 0.0755,0.0287 0.1372,0.0868 0.1372,0.12912 0,0.0423 0.0363,0.10712 0.0807,0.14397 0.10614,0.0881 0.41319,0.70493 0.41319,0.83006 0,0.0538 0.022,0.11134 0.0488,0.12793 0.0268,0.0166 0.0808,0.19093 0.11983,0.38741 0.0488,0.24571 0.0962,0.35723 0.15176,0.35723 0.0674,0 0.0658,0.0166 -0.0101,0.10037 -0.0755,0.0834 -0.0908,0.2312 -0.0908,0.87486 0,0.45713 -0.0225,0.78839 -0.0549,0.80841 -0.0311,0.0193 -0.0549,0.2922 -0.0549,0.63114 0,0.33894 -0.0237,0.61188 -0.0549,0.63113 -0.0302,0.0187 -0.0549,0.0927 -0.0549,0.16465 0,0.0719 -0.0247,0.14599 -0.0549,0.16464 -0.0302,0.0186 -0.0549,0.11812 -0.0549,0.22104 0,0.14378 -0.0191,0.17981 -0.0823,0.15553 -0.0499,-0.0191 -0.0823,-1.6e-4 -0.0823,0.0481 0,0.0438 -0.0455,0.1209 -0.1012,0.17128 -0.18411,0.16661 -0.73914,0.41935 -0.92091,0.41935 -0.0983,0 -0.19406,0.0247 -0.21272,0.0549 -0.0452,0.0731 -1.23483,0.0731 -1.23483,0 0,-0.0302 -0.13583,-0.0549 -0.30185,-0.0549 -0.16601,0 -0.30184,-0.0247 -0.30184,-0.0549 0,-0.0302 -0.10721,-0.0549 -0.23825,-0.0549 -0.13103,0 -0.35947,-0.0368 -0.50765,-0.0817 -0.14817,-0.045 -0.34821,-0.082 -0.44453,-0.0823 -0.0963,-2.6e-4 -0.19039,-0.0253 -0.20905,-0.0555 -0.0187,-0.0302 -0.12978,-0.0549 -0.24696,-0.0549 -0.11718,0 -0.22676,-0.0222 -0.24351,-0.0493 -0.0168,-0.0271 -0.20353,-0.0667 -0.41506,-0.0879 -0.21154,-0.0212 -0.39832,-0.0608 -0.41507,-0.0879 -0.0168,-0.0271 -0.11399,-0.0493 -0.21607,-0.0493 -0.10208,0 -0.20087,-0.0247 -0.21952,-0.0549 -0.0187,-0.0302 -0.12979,-0.0549 -0.24697,-0.0549 -0.11718,0 -0.22831,-0.0247 -0.24697,-0.0549 -0.0187,-0.0302 -0.15448,-0.0549 -0.30184,-0.0549 -0.14736,0 -0.28119,-0.0214 -0.2974,-0.0477 -0.0162,-0.0262 -0.22759,-0.065 -0.46973,-0.0861 -0.24214,-0.0211 -0.44026,-0.0614 -0.44026,-0.0895 0,-0.0281 -0.19263,-0.0511 -0.42807,-0.0511 -0.23544,0 -0.45154,-0.0221 -0.48021,-0.0491 -0.1743,-0.16399 -4.38414,-0.16634 -4.54966,-0.003 -0.0287,0.0284 -0.19392,0.0516 -0.36721,0.0516 -0.17329,0 -0.32803,0.021 -0.34387,0.0466 -0.0159,0.0256 -0.22266,0.0615 -0.45958,0.0798 -0.23693,0.0183 -0.4987,0.0591 -0.58171,0.0906 -0.083,0.0316 -0.25899,0.0574 -0.39108,0.0574 -0.13208,0 -0.25541,0.0247 -0.27407,0.0549 -0.0187,0.0302 -0.11923,0.0549 -0.22351,0.0549 -0.10427,0 -0.23247,0.0233 -0.28489,0.0517 -0.0524,0.0284 -0.33603,0.0925 -0.63027,0.14225 -0.29423,0.0498 -0.54883,0.11296 -0.56577,0.14037 -0.0169,0.0274 -0.0896,0.0498 -0.16152,0.0498 -0.0719,0 -0.14599,0.0247 -0.16465,0.0549 -0.0187,0.0302 -0.16211,0.0551 -0.3188,0.0555 -0.15669,2.6e-4 -0.40612,0.0374 -0.5543,0.0823 -0.14817,0.045 -0.38751,0.0817 -0.53185,0.0817 -0.14434,0 -0.27771,0.0247 -0.29636,0.0549 -0.0187,0.0302 -0.15449,0.0549 -0.30185,0.0549 -0.14736,0 -0.28319,0.0247 -0.30185,0.0549 -0.0415,0.0671 -1.10846,0.0742 -1.13421,0.008 z m 1.05189,-1.21492 c 0,-0.0302 0.085,-0.0549 0.18885,-0.0549 0.10386,0 0.20411,-0.0247 0.22276,-0.0549 0.0187,-0.0302 0.19153,-0.0549 0.38417,-0.0549 0.19264,0 0.36552,-0.0247 0.38417,-0.0549 0.0187,-0.0302 0.16212,-0.055 0.31881,-0.0552 0.15669,-1.6e-4 0.35562,-0.0372 0.44208,-0.0823 0.0865,-0.0451 0.26405,-0.082 0.39465,-0.082 0.1306,0 0.25272,-0.0247 0.27137,-0.0549 0.0187,-0.0302 0.12508,-0.0573 0.23649,-0.0603 0.22295,-0.006 0.36652,-0.044 0.52926,-0.14014 0.1825,-0.10778 0.0144,-0.21669 -0.4505,-0.29184 -0.44215,-0.0715 -0.72686,-0.16334 -0.72686,-0.23452 0,-0.0228 -0.15751,-0.0415 -0.35002,-0.0415 -0.19252,0 -0.43869,-0.037 -0.54705,-0.0823 -0.10836,-0.0453 -0.2828,-0.0823 -0.38763,-0.0823 -0.10484,0 -0.20587,-0.0247 -0.22453,-0.0549 -0.0204,-0.0331 -0.4002,-0.0549 -0.95516,-0.0549 -1.03966,0 -1.06611,0.01 -1.12096,0.41161 -0.11435,0.83778 -0.12299,0.75351 0.1,0.97649 l 0.20346,0.20346 h 0.54333 c 0.32563,0 0.54332,-0.022 0.54332,-0.0549 z m 19.52891,-0.13574 c 0.16638,-0.18284 0.17346,-0.20983 0.17346,-0.66107 0,-0.42632 -0.0126,-0.48309 -0.13471,-0.60516 -0.13307,-0.13307 -0.14675,-0.13471 -1.12506,-0.13471 -0.62365,0 -0.99036,0.0203 -0.99036,0.0549 0,0.0302 -0.0679,0.0551 -0.15092,0.0555 -0.083,2.6e-4 -0.27216,0.0374 -0.42033,0.0823 -0.14818,0.045 -0.37662,0.0817 -0.50766,0.0817 -0.13103,0 -0.23824,0.0247 -0.23824,0.0549 0,0.0302 -0.0576,0.0549 -0.12805,0.0549 -0.0704,0 -0.1462,0.0181 -0.16837,0.0403 -0.0561,0.0561 -0.62264,0.17144 -0.86309,0.17569 -0.10949,0.002 -0.22671,0.0368 -0.26049,0.0775 -0.10441,0.1258 0.0974,0.23899 0.50016,0.28059 0.20343,0.021 0.38394,0.061 0.40113,0.0888 0.0172,0.0278 0.14834,0.0506 0.29145,0.0506 0.1431,0 0.28365,0.022 0.31233,0.0488 0.0678,0.0634 0.62138,0.17424 1.04,0.20817 0.1811,0.0147 0.35275,0.0493 0.38142,0.077 0.0287,0.0276 0.10894,0.0503 0.17836,0.0503 0.0694,0 0.12623,0.0247 0.12623,0.0549 0,0.0337 0.27147,0.0549 0.70464,0.0549 h 0.70464 z m -8.3168,-1.39531 c 0.0333,-0.0333 0.23933,-0.0605 0.4579,-0.0605 0.21856,0 0.41265,-0.0247 0.43131,-0.0549 0.0186,-0.0302 0.17447,-0.056 0.34625,-0.0573 0.17178,-10e-4 0.42346,-0.0271 0.55929,-0.0572 0.13583,-0.0301 0.36479,-0.0693 0.5088,-0.087 0.144,-0.0177 0.27512,-0.0537 0.29136,-0.08 0.0163,-0.0263 0.1748,-0.0478 0.35235,-0.0478 0.17754,0 0.33807,-0.0247 0.35672,-0.0549 0.0187,-0.0302 0.0757,-0.055 0.12673,-0.0552 0.051,-1.6e-4 0.16354,-0.0372 0.25,-0.0823 0.0865,-0.0451 0.2902,-0.082 0.45277,-0.082 0.16256,0 0.29557,-0.0247 0.29557,-0.0549 0,-0.0302 0.0823,-0.0549 0.18294,-0.0549 0.10061,0 0.2014,-0.0185 0.22397,-0.0412 0.0417,-0.0418 0.62463,-0.14477 1.19837,-0.21168 0.17356,-0.0202 0.31556,-0.0581 0.31556,-0.0841 0,-0.026 0.085,-0.0473 0.18885,-0.0473 0.10386,0 0.20411,-0.0247 0.22276,-0.0549 0.0201,-0.0326 0.36279,-0.0549 0.84292,-0.0549 0.55606,0 0.8296,-0.0206 0.87487,-0.0659 0.0919,-0.0919 0.0817,-0.53367 -0.0168,-0.72247 -0.0451,-0.0865 -0.082,-0.19946 -0.082,-0.25112 0,-0.0517 -0.0617,-0.15192 -0.1372,-0.22282 -0.0755,-0.0709 -0.13721,-0.15207 -0.13721,-0.1804 0,-0.0601 -0.60681,-0.65071 -0.91374,-0.88929 -0.25056,-0.19476 -0.99421,-0.57674 -1.12283,-0.57674 -0.0497,0 -0.1211,-0.0371 -0.15868,-0.0823 -0.0376,-0.0453 -0.12324,-0.0823 -0.19037,-0.0823 -0.14557,0 -0.4298,-0.13457 -0.52403,-0.2481 -0.037,-0.0446 -0.1413,-0.0812 -0.23165,-0.0812 -0.14584,0 -0.52417,-0.10162 -0.83759,-0.22497 -0.0604,-0.0238 -0.20855,-0.0557 -0.32929,-0.0711 -0.48473,-0.0615 -1.06443,-0.17278 -1.10273,-0.2116 -0.0223,-0.0226 -0.19558,-0.0412 -0.38497,-0.0412 -0.18938,0 -0.3596,-0.0247 -0.37826,-0.0549 -0.0186,-0.0302 -0.19153,-0.0549 -0.38417,-0.0549 -0.19263,0 -0.36348,-0.0214 -0.37965,-0.0476 -0.0162,-0.0262 -0.54242,-0.0656 -1.16946,-0.0877 -0.63304,-0.0223 -1.17058,-0.0651 -1.20867,-0.0964 -0.0453,-0.0371 -0.0919,-0.0378 -0.1372,-0.002 -0.0398,0.0314 -0.83898,0.0691 -1.90523,0.0899 -1.08105,0.0211 -1.85886,0.058 -1.89066,0.0898 -0.0297,0.0297 -0.25756,0.054 -0.50631,0.054 -0.24875,0 -0.46754,0.0247 -0.48619,0.0549 -0.0187,0.0302 -0.15449,0.0549 -0.30185,0.0549 -0.14736,0 -0.2823,0.0233 -0.29987,0.0517 -0.0176,0.0284 -0.2048,0.0687 -0.41606,0.0895 -0.21127,0.0208 -0.39739,0.0593 -0.41359,0.0855 -0.0162,0.0262 -0.12185,0.0477 -0.23477,0.0477 -0.11292,0 -0.22877,0.0217 -0.25745,0.0483 -0.0287,0.0266 -0.24971,0.0903 -0.49118,0.14151 -0.47052,0.0999 -0.7409,0.19571 -0.7409,0.26262 0,0.0228 -0.0603,0.0415 -0.13397,0.0415 -0.0737,0 -0.14923,0.0247 -0.16788,0.0549 -0.0187,0.0302 -0.0916,0.0549 -0.16201,0.0549 -0.0704,0 -0.14231,0.037 -0.15968,0.0823 -0.0174,0.0453 -0.0769,0.0823 -0.1323,0.0823 -0.1165,0 -0.65295,0.25247 -0.79493,0.37413 -0.10303,0.0883 -0.27413,0.19276 -0.4524,0.27626 -0.0604,0.0283 -0.16963,0.11578 -0.24281,0.19444 -0.0732,0.0787 -0.16579,0.14303 -0.2058,0.14303 -0.04,0 -0.0728,0.022 -0.0728,0.049 0,0.0269 -0.11113,0.17255 -0.24697,0.32363 -0.13583,0.15107 -0.24696,0.30429 -0.24696,0.34047 0,0.0362 -0.0406,0.14369 -0.0902,0.23891 -0.0496,0.0952 -0.11133,0.21599 -0.1372,0.2684 -0.0695,0.14079 -0.0571,0.5587 0.0188,0.63463 0.0446,0.0446 0.30052,0.0658 0.79254,0.0658 0.42525,0 0.74075,0.0228 0.7606,0.0549 0.0187,0.0302 0.0927,0.0549 0.16464,0.0549 0.0719,0 0.14599,0.0247 0.16465,0.0549 0.0187,0.0302 0.12201,0.0549 0.22968,0.0549 0.27132,0 1.23141,0.15817 1.34741,0.22198 0.0524,0.0288 0.14357,0.0524 0.20256,0.0524 0.059,0 0.12254,0.0247 0.14119,0.0549 0.0187,0.0302 0.17782,0.0549 0.3537,0.0549 0.17691,0 0.39,0.0366 0.47697,0.082 0.0864,0.0451 0.22365,0.0821 0.30488,0.0823 0.0812,1.7e-4 0.16295,0.025 0.1816,0.0552 0.0186,0.0302 0.15449,0.0549 0.30185,0.0549 0.14736,0 0.28319,0.0247 0.30184,0.0549 0.0187,0.0302 0.1173,0.0549 0.2192,0.0549 0.10189,0 0.25017,0.0247 0.32949,0.0548 0.0793,0.0301 0.3905,0.071 0.69152,0.0907 0.30102,0.0197 0.56024,0.0568 0.57605,0.0824 0.0158,0.0256 0.0964,0.0465 0.17917,0.0465 0.0827,0 0.17429,0.0239 0.20346,0.053 0.11474,0.11474 4.48091,0.12185 4.59528,0.007 z m 8.54514,-1.2679 c 0,-0.0302 -0.0247,-0.0549 -0.0549,-0.0549 -0.0302,0 -0.0549,0.0247 -0.0549,0.0549 0,0.0302 0.0247,0.0549 0.0549,0.0549 0.0302,0 0.0549,-0.0247 0.0549,-0.0549 z"
   id="path12226"
   inkscape:connector-curvature="0" />
    </g>

    </svg>