<?xml version="1.0" encoding="UTF-8" standalone="no"?>
<svg
   xmlns:dc="http://purl.org/dc/elements/1.1/"
   xmlns:cc="http://creativecommons.org/ns#"
   xmlns:rdf="http://www.w3.org/1999/02/22-rdf-syntax-ns#"
   xmlns:svg="http://www.w3.org/2000/svg"
   xmlns="http://www.w3.org/2000/svg"
   xmlns:sodipodi="http://sodipodi.sourceforge.net/DTD/sodipodi-0.dtd"
   xmlns:inkscape="http://www.inkscape.org/namespaces/inkscape"
   class="secret-illustration secret-illustration-skull"
   height="36"
   width="25.850967"
   viewBox="0 0 12.925484 18.000001"
   version="1.1"
   id="svg4"
   sodipodi:docname="monitor.svg"
   inkscape:version="0.92.5 (2060ec1f9f, 2020-04-08)"
   fill="#c56e6c"
   >
  <metadata
     id="metadata10">
    <rdf:RDF>
      <cc:Work
         rdf:about="">
        <dc:format>image/svg+xml</dc:format>
        <dc:type
           rdf:resource="http://purl.org/dc/dcmitype/StillImage" />
        <dc:title></dc:title>
      </cc:Work>
    </rdf:RDF>
  </metadata>
  <defs
     id="defs8" />
  <sodipodi:namedview
     pagecolor="#ffffff"
     bordercolor="#666666"
     borderopacity="1"
     objecttolerance="10"
     gridtolerance="10"
     guidetolerance="10"
     inkscape:pageopacity="0"
     inkscape:pageshadow="2"
     inkscape:window-width="1920"
     inkscape:window-height="1003"
     id="namedview6"
     showgrid="false"
     inkscape:zoom="8.8333333"
     inkscape:cx="12.925483"
     inkscape:cy="18.025484"
     inkscape:window-x="1050"
     inkscape:window-y="600"
     inkscape:window-maximized="1"
     inkscape:current-layer="svg4"
     inkscape:snap-bbox="true"
     inkscape:bbox-paths="true"
     inkscape:bbox-nodes="false"
     fit-margin-top="0"
     fit-margin-left="0"
     fit-margin-right="0"
     fit-margin-bottom="0" />
  <path
     class="secret-illustration-fill"
     d="m 12.225484,10.6 c -0.2,-0.1 -0.3,-0.3 -0.3,-0.6 V 9.7 l 0.2,-2.4 c 0,-0.2 0,-0.3 0.1,-0.5 0,-0.3 0.1,-0.5 0.1,-0.8 v 0 c 0,-3.3 -2.5000003,-6 -5.7000006,-6 h -0.5 c -3.1,0 -5.7,2.6 -5.7,5.9 0,0.3 0,0.5 0.1,0.8 0,0.2 0,0.3 0.1,0.5 l 0.2,2.4 v 0.3 c 0,0.2 -0.1,0.5 -0.3,0.6 -0.4,0.3 -0.6,0.8 -0.5,1.3 l 0.5,1.6 c 0.2,0.7 0.9,1 1.5,0.8 0.3,-0.1 0.7,0 1,0.2 l 0.2,0.2 c 0.1,0.1 0.2,0.2 0.1,0.4 0,0.2 0,0.4 0,0.5 0,1.8 1.4,2.5 3.1,2.5 h 0.1 c 1.7000003,0 3.1000003,-0.7 3.1000003,-2.5 0,-0.1 0,-0.3 0,-0.5 0,-0.1 0,-0.3 0.1,-0.4 l 0.2,-0.2 c 0.3000003,-0.3 0.6000003,-0.4 1.0000003,-0.2 0.6,0.2 1.3,-0.1 1.5,-0.8 l 0.5,-1.6 c -0.1,-0.4 -0.3,-0.9 -0.7,-1.2 z m -9.0000006,2.1 c -0.9,0 -1.7,-1 -1.7,-2.3 0,-0.1 0,-0.3 0,-0.4 l 0.1,-0.4 c 0.2,-0.9 0.8,-1.5 1.5,-1.5 0.6,0 1.4,0 1.9,0.6 0,0.1 0.1,0.1 0.1,0.2 0,0 0.3,1.2 0.3,1.5 0,0.6 -0.5,1 -1,1.4 -0.3,0.5 -0.7,0.9 -1.2,0.9 z m 3.7,2.2 c -0.3,0 -0.5,-0.2 -0.6,-0.5 v -0.1 0.1 c -0.1,0.3 -0.3,0.5 -0.6,0.5 -0.3,0 -0.6,-0.4 -0.6,-0.9 0,-0.3 0.1,-0.6 0.3,-0.8 0.2,-0.2 0.3,-0.5 0.4,-0.8 l 0.1,-0.2 v -0.1 0 l 0.1,-0.2 c 0.1,-0.3 0.5,-0.3 0.6,0 l 0.2,0.6 c 0.1,0.3 0.3,0.6 0.4,0.8 0.2,0.2 0.3000003,0.4 0.3000003,0.8 0,0.4 -0.3000003,0.8 -0.6000003,0.8 z m 2.4000003,-2.2 c -0.5,0 -0.9,-0.5 -1.3,-0.9 -0.5,-0.4 -1.0000003,-0.8 -1.0000003,-1.4 0,-0.5 0.1,-1.3 0.4,-1.7 0.5000003,-0.6 1.4000003,-0.6 1.9000003,-0.6 0.9000003,0 1.7000003,1 1.7000003,2.3 -0.1,1.3 -0.8,2.3 -1.7000003,2.3 z"
     id="path2"
     inkscape:connector-curvature="0" />
</svg>
