<?xml version="1.0" encoding="UTF-8" standalone="no"?>
<svg
   xmlns:dc="http://purl.org/dc/elements/1.1/"
   xmlns:cc="http://creativecommons.org/ns#"
   xmlns:rdf="http://www.w3.org/1999/02/22-rdf-syntax-ns#"
   xmlns:svg="http://www.w3.org/2000/svg"
   xmlns="http://www.w3.org/2000/svg"
   xmlns:sodipodi="http://sodipodi.sourceforge.net/DTD/sodipodi-0.dtd"
   xmlns:inkscape="http://www.inkscape.org/namespaces/inkscape"
   version="1.1"
   id="Capa_1"
   x="0px"
   y="0px"
   viewBox="0 0 10.963156 79.632332"
   xml:space="preserve"
   sodipodi:docname="sword.svg"
   inkscape:version="0.92.5 (2060ec1f9f, 2020-04-08)"
   width="10.963156"
   height="79.632332"><sodipodi:namedview
   pagecolor="#ffffff"
   bordercolor="#666666"
   borderopacity="1"
   objecttolerance="10"
   gridtolerance="10"
   guidetolerance="10"
   inkscape:pageopacity="0"
   inkscape:pageshadow="2"
   inkscape:window-width="1920"
   inkscape:window-height="1003"
   id="namedview8"
   showgrid="false"
   fit-margin-top="0"
   fit-margin-left="0"
   fit-margin-right="0"
   fit-margin-bottom="0"
   inkscape:zoom="9.583886"
   inkscape:cx="-4.0258304"
   inkscape:cy="46.366396"
   inkscape:window-x="1050"
   inkscape:window-y="600"
   inkscape:window-maximized="1"
   inkscape:current-layer="Capa_1" />
	<metadata
   id="metadata41">
		<RDF>
			<Work
   rdf:about="">
				<format>
					image/svg+xml
				</format>
				<type
   rdf:resource="http://purl.org/dc/dcmitype/StillImage" />
				<title>
				</title>
			</Work>
		</RDF>
	<rdf:RDF><cc:Work
     rdf:about=""><dc:format>image/svg+xml</dc:format><dc:type
       rdf:resource="http://purl.org/dc/dcmitype/StillImage" /><dc:title /></cc:Work></rdf:RDF></metadata>
	<defs
   id="defs39" />
	<namedview
   pagecolor="#ffffff"
   bordercolor="#666666"
   borderopacity="1"
   objecttolerance="10"
   gridtolerance="10"
   guidetolerance="10"
   inkscape:pageopacity="0"
   inkscape:pageshadow="2"
   inkscape:window-width="1920"
   inkscape:window-height="1003"
   id="namedview37"
   showgrid="false"
   inkscape:zoom="16"
   inkscape:cx="26.205134"
   inkscape:cy="2.4890684"
   inkscape:window-x="1050"
   inkscape:window-y="600"
   inkscape:window-maximized="1"
   inkscape:current-layer="Capa_1"
   fit-margin-top="0"
   fit-margin-left="0"
   fit-margin-right="0"
   fit-margin-bottom="0"
   inkscape:pagecheckerboard="false"
   units="px" />
	<g
   id="g58791"
   transform="translate(26.638168,-186.41446)">
		<path
   inkscape:connector-curvature="0"
   id="rect55038"
   d="m -23.324675,186.41446 0.529167,2.00298 h 3.27732 l 0.529166,-2.00298 z m 0.658875,2.85771 v 0.23099 l 3.01842,1.5875 v -1.04076 l -1.478979,-0.77773 z m 0,1.20819 v 1.04077 l 3.01842,1.5875 v -1.04077 z m 0,2.01796 v 1.04077 l 3.01842,1.5875 v -1.04077 z m 0,1.99833 v 1.04077 l 3.01842,1.5875 v -1.04077 z m 0,1.95957 v 1.04077 l 3.01842,1.5875 v -1.04077 z m 0,1.99885 v 1.04076 l 1.702738,0.89555 h 1.315682 v -0.34881 z m -0.797367,2.69182 -3.175001,1.12035 0.529167,2.17816 4.952153,-1.5875 4.952669,1.5875 0.529167,-2.17816 -3.175,-1.12035 z m 1.869653,2.83549 -2.183846,0.4408 V 258.254 c 0.01778,2.6662 1.461702,5.43725 2.620512,7.79279 1.210998,-2.35985 2.175743,-3.70959 2.620512,-7.79279 v -53.83082 l -2.183846,-0.4408 v 56.34488 h -0.873332 z"
   style="opacity:1;vector-effect:none;fill:#e66443;fill-opacity:1;stroke:none;stroke-width:1.5;stroke-linecap:round;stroke-linejoin:round;stroke-miterlimit:4;stroke-dasharray:none;stroke-dashoffset:0;stroke-opacity:1;paint-order:normal" />
		<path
   style="opacity:1;vector-effect:none;fill:#c13423;fill-opacity:1;stroke:none;stroke-width:5.6692915;stroke-linecap:round;stroke-linejoin:round;stroke-miterlimit:4;stroke-dasharray:none;stroke-dashoffset:0;stroke-opacity:1;paint-order:normal"
   d="m -85.666016,715.35938 v 0.87304 l 5.703125,3 v -3.87304 z m 0,4.5664 v 3.9336 l 5.703125,3 v -3.9336 z m 0,7.62695 v 3.9336 l 5.703125,3 v -3.9336 z m 0,7.55274 v 3.93359 l 5.703125,3 v -3.93359 z m 0,7.40625 v 3.93359 l 5.703125,3 v -3.93359 z m 0,7.55469 V 754 l 5.703125,3 v -3.93359 z m 4.052735,20.89062 -8.253907,1.66602 v 203.45507 c 0.0672,10.07698 5.524543,20.5503 9.904297,29.45308 v -21.61714 h -1.65039 z"
   transform="scale(0.26458333)"
   id="rect58795"
   inkscape:connector-curvature="0"
   sodipodi:nodetypes="ccccccccccccccccccccccccccccccccccccc" />
	</g>
</svg>