<?xml version="1.0" standalone="no"?>
<!DOCTYPE svg PUBLIC "-//W3C//DTD SVG 20010904//EN"
 "http://www.w3.org/TR/2001/REC-SVG-20010904/DTD/svg10.dtd">
<svg version="1.0" xmlns="http://www.w3.org/2000/svg"
 width="750.000000pt" height="750.000000pt" viewBox="0 0 750.000000 750.000000"
 preserveAspectRatio="xMidYMid meet">
<metadata>
Created by potrace 1.11, written by Peter Selinger 2001-2013
</metadata>
<g transform="translate(0.000000,750.000000) scale(0.100000,-0.100000)"
fill="#000000" stroke="none">
<path d="M90 7485 c14 -17 4 -39 -16 -31 -19 7 -18 4 11 -89 13 -44 34 -116
45 -160 53 -200 80 -298 110 -403 17 -62 30 -118 27 -125 -2 -7 -64 -28 -136
-47 -100 -27 -131 -39 -131 -51 0 -9 7 -22 15 -29 20 -17 68 -100 61 -107 -3
-4 -6 -1 -6 5 0 7 -6 12 -13 12 -7 0 -22 15 -32 33 -19 31 -20 31 -23 8 -2
-13 2 -27 8 -31 9 -5 9 -9 1 -14 -21 -13 -14 -47 31 -142 15 -32 6 -68 -20
-79 l-22 -10 0 -2342 0 -2343 43 -1 c48 -1 140 -6 274 -15 83 -5 115 -15 100
-30 -3 -3 -49 -1 -103 5 -55 6 -147 13 -206 17 l-108 6 0 -26 c0 -25 3 -26 55
-28 30 -1 67 -2 83 -4 15 -1 82 -5 150 -9 110 -7 122 -10 122 -26 0 -14 -8
-19 -32 -21 -69 -3 -130 5 -181 23 -33 12 -78 19 -124 19 l-73 0 0 -160 c0
-88 3 -160 8 -160 4 0 54 -4 112 -10 58 -5 141 -11 184 -14 43 -3 81 -7 83
-10 2 -2 -3 -53 -13 -112 -9 -60 -18 -176 -19 -259 -3 -130 -9 -181 -49 -390
-25 -132 -50 -258 -56 -280 -5 -22 -10 -43 -10 -47 0 -5 675 -8 1500 -8 l1500
0 0 29 c0 16 9 73 20 128 11 54 24 148 30 208 40 416 74 647 111 760 23 68 27
91 17 94 -7 2 -35 25 -63 51 -27 26 -64 60 -81 76 -39 37 -150 167 -163 192
-6 11 -7 22 -4 26 3 3 1 6 -6 6 -27 0 3 21 45 31 50 13 61 24 44 43 -8 11 -8
15 2 19 19 8 -60 77 -87 77 -13 0 -27 10 -35 25 -7 13 -25 28 -40 33 -15 6
-44 32 -66 58 -21 27 -50 60 -64 74 -86 88 -149 234 -205 473 -17 73 -23 196
-12 262 4 22 8 51 10 65 11 92 68 219 124 277 47 48 63 53 63 21 0 -12 13 -36
30 -53 19 -20 35 -52 46 -95 9 -36 23 -78 31 -93 30 -59 159 -116 344 -153 46
-9 88 -20 94 -25 5 -5 18 -9 30 -10 20 0 20 0 0 -10 -14 -6 -7 -7 24 -3 24 3
41 2 38 -2 -3 -5 26 -8 63 -7 63 1 73 5 141 49 78 52 126 95 176 159 l31 40
73 0 72 0 36 -72 c46 -92 73 -120 135 -138 99 -30 324 -13 484 37 37 11 75 17
90 13 18 -4 31 0 48 16 17 16 31 20 56 16 88 -15 107 -25 108 -56 0 -9 -8 -12
-25 -9 -14 3 -25 1 -25 -3 0 -5 -7 -9 -16 -9 -10 0 -14 -6 -11 -14 4 -9 -24
-1 -75 22 l-81 37 -16 -23 c-9 -13 -46 -61 -83 -107 -37 -46 -76 -102 -88
-125 -12 -24 -63 -104 -114 -179 -52 -75 -113 -172 -137 -216 -63 -117 -199
-287 -267 -334 -31 -22 -114 -95 -183 -163 -107 -105 -277 -248 -294 -248 -3
0 -16 -9 -27 -20 -12 -11 -42 -30 -66 -41 -52 -26 -64 -48 -86 -168 -18 -96
-61 -495 -71 -656 -3 -60 -15 -168 -26 -239 -10 -71 -19 -133 -19 -137 0 -5
812 -9 1805 -9 l1805 0 0 164 c0 180 -2 185 -62 192 -18 2 -163 15 -323 30
-159 15 -291 28 -293 29 -2 2 -4 35 -5 74 -3 83 -3 83 92 77 l66 -5 -77 11
-78 10 6 47 c9 84 23 295 23 359 0 46 3 62 14 62 29 0 133 -22 143 -31 6 -5
19 -7 28 -3 11 4 16 1 16 -10 0 -9 5 -16 11 -16 6 0 9 7 5 15 -4 11 2 15 21
15 25 0 25 -1 9 -19 -17 -18 -16 -19 36 -26 29 -4 60 -11 69 -16 10 -5 20 -4
27 3 9 9 12 9 12 1 0 -7 21 -15 48 -19 26 -3 52 -10 57 -14 6 -4 40 -11 78
-15 50 -5 70 -11 77 -25 7 -13 6 -20 -3 -23 -6 -3 3 -6 21 -6 17 -1 32 4 32 9
0 6 10 10 21 10 18 0 19 -2 9 -15 -10 -12 -9 -15 8 -15 11 0 23 6 25 13 4 7 6
6 6 -4 1 -12 10 -17 35 -17 18 0 43 -5 55 -11 20 -11 21 -19 21 -151 0 -76 -3
-145 -6 -154 -3 -9 -16 -16 -28 -16 -19 0 -21 -5 -19 -65 1 -36 -2 -80 -7 -98
-5 -17 -10 -103 -13 -189 l-4 -158 209 0 208 0 0 1185 c0 885 -3 1184 -12
1179 -7 -5 -8 -3 -3 5 4 7 -2 22 -15 36 -13 14 -20 31 -17 39 4 9 1 16 -6 17
-7 1 -2 4 11 7 36 11 22 27 -23 27 -46 0 -59 -23 -30 -55 14 -15 14 -22 4 -42
-27 -51 -30 -60 -25 -65 9 -10 -25 -64 -37 -60 -7 2 -11 20 -10 43 5 71 24
279 28 299 2 11 4 61 4 112 1 78 3 91 16 87 10 -4 15 0 15 10 0 9 6 27 14 39
8 13 16 63 19 117 3 52 11 127 18 167 13 70 12 72 -13 105 l-26 34 17 50 c9
27 22 58 28 69 6 11 11 49 12 84 1 39 7 74 16 88 22 33 23 2153 1 2153 -13 0
-41 -55 -37 -73 1 -5 -4 -5 -10 -1 -8 4 -9 -1 -5 -17 3 -13 3 -18 0 -11 -3 6
-12 12 -20 12 -8 0 -14 5 -14 11 0 6 -7 3 -16 -5 -20 -20 -25 -20 -17 0 5 15
3 15 -23 0 -16 -8 -37 -22 -46 -29 -20 -15 -25 -57 -7 -57 5 0 7 5 3 11 -4 8
1 9 16 4 14 -4 20 -3 16 3 -3 5 2 13 11 16 9 4 20 2 23 -5 6 -8 9 -7 12 2 3 8
8 11 12 7 10 -8 -16 -48 -30 -48 -7 0 -14 -7 -18 -15 -3 -8 -12 -15 -21 -15
-9 0 -21 -13 -26 -30 -8 -22 -17 -30 -34 -30 -16 0 -26 -9 -35 -30 -8 -18 -20
-30 -31 -30 -11 0 -19 -3 -19 -7 0 -5 -11 -21 -25 -37 -14 -16 -25 -32 -25
-35 0 -3 20 -22 45 -41 66 -52 60 -63 -29 -55 l-75 7 31 -62 c23 -45 33 -82
38 -138 7 -79 5 -96 -9 -74 -8 14 -72 35 -80 27 -3 -3 0 -20 7 -38 6 -17 14
-65 18 -104 8 -88 -2 -108 -53 -98 -29 5 -33 3 -33 -15 0 -34 -17 -22 -37 27
l-19 47 -17 -82 c-33 -166 -79 -216 -126 -137 -10 17 -10 14 -5 -17 6 -34 4
-38 -15 -38 -12 0 -40 -19 -64 -45 -51 -53 -77 -57 -132 -20 -27 19 -40 23
-50 15 -15 -12 -48 -22 -87 -25 -14 -1 -34 -9 -43 -18 -22 -23 -34 -21 -65 8
-24 23 -30 24 -52 14 -19 -8 -31 -8 -47 0 -12 7 -25 9 -30 6 -5 -3 -19 16 -31
41 -26 53 -43 63 -70 39 -17 -16 -19 -16 -29 3 -6 11 -23 22 -39 25 -23 5 -31
13 -36 38 -3 17 -3 35 0 40 3 6 3 33 -1 61 -7 46 -9 50 -21 34 -15 -21 -44
-15 -44 10 0 10 -5 14 -15 10 -8 -3 -21 -9 -29 -12 -18 -7 -46 22 -46 49 0 12
4 36 9 54 8 28 7 31 -9 25 -10 -4 -19 -11 -20 -17 -6 -46 -110 -79 -110 -35 0
13 7 20 19 20 27 0 51 10 51 22 0 5 -5 6 -10 3 -6 -4 -23 0 -40 8 -32 16 -40
13 -40 -15 0 -10 -7 -18 -16 -18 -8 0 -31 -12 -50 -27 -26 -20 -38 -23 -46
-15 -7 7 -23 12 -38 12 -25 1 -60 21 -60 35 0 5 7 16 16 26 15 16 14 19 -5 31
-22 13 -27 43 -12 67 12 19 2 43 -15 37 -8 -3 -14 -1 -14 4 0 6 5 10 10 10 6
0 10 7 10 15 0 8 -9 15 -20 15 -23 0 -26 13 -6 29 11 9 15 9 18 -1 3 -7 18
-12 36 -10 22 2 32 -2 32 -12 0 -21 48 -29 74 -13 15 10 43 14 92 11 l71 -4
19 42 c10 23 31 58 45 78 l28 38 -30 6 c-21 4 -29 11 -29 26 0 11 -6 23 -13
26 -17 6 -167 21 -292 28 -55 3 -109 8 -120 10 -11 2 -67 7 -125 10 -58 4
-174 14 -258 22 -95 9 -158 12 -165 6 -17 -13 -38 -8 -83 20 -35 23 -77 41
-96 43 -4 0 -31 12 -60 27 -73 37 -181 81 -255 104 -35 10 -63 23 -63 27 0 5
-9 22 -21 38 l-20 29 -45 -25 c-32 -18 -50 -22 -66 -16 -13 5 -35 4 -50 -1
-21 -8 -31 -6 -43 6 -16 15 -44 12 -57 -8 -6 -7 -11 -6 -18 4 -9 13 -12 13
-23 -1 -6 -9 -18 -14 -24 -12 -7 3 -17 -7 -23 -22 -9 -25 -14 -27 -46 -20 -31
5 -35 4 -32 -12 6 -29 -30 -42 -72 -27 -66 24 -209 47 -155 24 19 -7 18 -9 -8
-19 -16 -6 -36 -11 -45 -11 -13 0 -13 2 4 15 10 9 -1 6 -26 -7 -25 -12 -49
-21 -53 -20 -5 1 -6 -2 -3 -7 4 -5 -11 -15 -31 -21 -21 -7 -59 -25 -85 -41
-26 -16 -59 -31 -73 -35 -14 -3 -25 -9 -25 -13 0 -3 -15 -13 -32 -20 -60 -27
-127 -82 -180 -149 -58 -73 -74 -93 -100 -124 -10 -12 -18 -25 -18 -31 0 -5
-16 -27 -35 -48 -19 -22 -35 -44 -35 -49 0 -6 -6 -10 -14 -10 -20 0 -40 -27
-24 -33 10 -3 8 -18 -9 -66 -12 -34 -18 -59 -12 -56 17 11 9 -14 -21 -65 -16
-28 -30 -55 -30 -61 0 -5 -15 -18 -32 -29 -28 -17 -35 -18 -44 -6 -5 8 -26 18
-45 23 -21 6 -35 16 -38 29 -5 30 -32 55 -52 49 -11 -4 -22 1 -28 13 -6 12
-21 20 -36 20 -14 0 -34 7 -44 17 -15 13 -24 14 -40 5 -12 -6 -21 -17 -21 -26
0 -12 -48 -40 -55 -32 -10 13 -28 102 -29 141 -1 52 -23 66 -41 25 -13 -28
-25 -31 -49 -13 -19 15 -19 15 2 44 20 28 21 34 11 113 -17 133 -16 129 -44
122 -56 -14 -70 49 -39 169 13 49 13 65 3 84 -9 18 -18 22 -33 16 -12 -4 -32
-7 -46 -7 -41 -1 -26 31 51 110 38 40 69 77 69 83 0 21 -42 28 -87 15 -24 -7
-43 -10 -43 -7 0 4 -5 2 -12 -5 -31 -31 -39 -19 -98 131 -36 93 -36 93 -9 100
17 5 19 9 9 26 -6 12 -17 21 -24 21 -8 0 -32 15 -54 33 -22 17 -68 54 -102 82
-35 27 -68 54 -74 60 -6 6 -23 19 -37 30 -15 11 -89 68 -165 126 -77 58 -215
163 -309 233 -93 70 -171 131 -173 135 -3 8 1 13 118 141 47 51 90 98 95 104
104 118 137 159 129 164 -12 9 -74 129 -74 144 0 6 -7 19 -16 29 -17 19 -13
49 6 49 6 0 13 -8 16 -17 13 -39 87 -183 94 -183 10 0 75 73 91 101 6 13 20
32 30 43 11 11 19 23 19 27 0 4 6 9 14 11 15 4 96 95 96 109 0 5 -18 9 -41 9
-25 0 -38 4 -34 10 4 7 -7 8 -33 4 -34 -5 -42 -3 -51 15 -8 14 -21 21 -40 21
-24 0 -30 5 -35 31 -3 17 -6 47 -6 65 l0 34 -626 0 c-547 0 -625 -2 -614 -15z
m984 -11 c9 -23 7 -36 -3 -30 -12 8 -21 46 -11 46 4 0 11 -7 14 -16z m84 -156
c23 -41 29 -58 19 -58 -8 0 -30 33 -50 74 -60 120 -40 110 31 -16z m-1018 12
c0 -5 -4 -10 -10 -10 -5 0 -10 5 -10 10 0 6 5 10 10 10 6 0 10 -4 10 -10z
m1520 -1453 c0 -20 -1 -20 -16 -5 -9 9 -13 21 -9 27 10 16 25 3 25 -22z m53
-129 c4 -10 2 -18 -3 -18 -12 0 -30 34 -30 57 0 16 1 16 13 -2 8 -11 17 -28
20 -37z m-493 -139 c0 -14 -17 -10 -23 5 -4 10 -1 13 9 9 7 -3 14 -9 14 -14z
m2920 -38 c0 -16 -36 -19 -55 -5 -17 13 -16 14 18 14 20 0 37 -4 37 -9z
m-3073 -33 c-3 -8 -6 -5 -6 6 -1 11 2 17 5 13 3 -3 4 -12 1 -19z m188 2 c3 -5
1 -10 -4 -10 -6 0 -11 5 -11 10 0 6 2 10 4 10 3 0 8 -4 11 -10z m9 -58 c6 -39
-4 -128 -13 -115 -3 4 -15 13 -26 19 -21 12 -34 54 -16 54 6 0 11 9 11 20 0
11 5 20 10 20 6 0 10 7 10 15 0 8 -4 15 -10 15 -5 0 -10 7 -10 15 0 30 38 -7
44 -43z m-153 -24 c0 -10 2 -10 6 0 6 14 33 16 33 2 0 -5 -10 -14 -21 -21 -16
-8 -23 -8 -29 1 -6 9 -9 9 -15 0 -4 -7 -1 -16 6 -21 16 -10 15 -10 -23 -13
-21 -1 -28 3 -28 16 0 9 12 24 28 32 34 19 42 19 43 4z m-74 -100 c-3 -7 -5
-2 -5 12 0 14 2 19 5 13 2 -7 2 -19 0 -25z m20 -45 c-1 -10 3 -18 8 -18 6 0 9
6 9 13 -2 15 42 16 52 0 4 -7 3 -8 -4 -4 -8 4 -12 0 -12 -11 0 -10 -11 -23
-24 -29 -19 -9 -26 -7 -38 8 -14 17 -15 16 -16 -17 -1 -21 3 -33 8 -30 6 3 10
0 10 -9 0 -8 3 -21 6 -30 4 -10 -1 -18 -12 -23 -11 -4 -25 -14 -32 -22 -11
-14 -12 -9 -7 29 3 25 8 71 12 103 5 47 9 57 24 57 12 0 18 -6 16 -17z m3743
-27 c0 -8 11 -17 25 -20 32 -8 66 -41 60 -58 -3 -7 7 -19 22 -25 30 -14 43 -9
25 9 -16 16 -15 28 1 28 7 0 27 -17 44 -38 22 -26 45 -41 79 -51 27 -8 51 -15
54 -16 3 -1 32 -5 65 -10 33 -4 69 -11 80 -15 19 -7 19 -8 2 -15 -10 -4 -38
-5 -62 -1 -25 3 -65 9 -89 12 -47 7 -66 -6 -46 -31 6 -8 10 -22 8 -32 -3 -13
-8 -9 -20 18 -19 45 -32 53 -48 34 -15 -17 -46 -20 -56 -4 -3 6 -17 8 -30 5
-15 -4 -40 2 -65 14 -31 16 -44 18 -54 10 -10 -8 -19 -8 -34 0 -12 6 -21 13
-21 16 0 2 9 0 19 -6 25 -13 28 -13 34 4 4 11 1 13 -10 9 -12 -5 -14 -3 -8 6
5 10 2 11 -13 7 -13 -4 -22 -1 -26 9 -3 9 -11 13 -17 9 -7 -4 -9 -3 -5 4 3 6
1 12 -6 15 -7 2 -6 3 2 2 8 -2 24 -6 35 -10 l20 -8 -20 16 c-18 15 -19 16 -2
17 10 0 29 -11 43 -25 14 -14 29 -25 34 -25 21 0 8 26 -26 55 -19 17 -44 42
-55 58 l-21 27 26 -11 c14 -7 26 -16 26 -20 0 -4 16 -16 35 -28 19 -11 35 -18
35 -16 0 12 -26 51 -42 63 -20 14 -24 32 -8 32 6 0 10 -6 10 -14z m-2810 -68
c31 -93 34 -104 23 -93 -9 9 -63 138 -63 150 0 3 4 5 9 5 5 0 19 -28 31 -62z
m2925 22 c12 -19 -12 -10 -31 11 -19 22 -19 22 3 10 12 -6 25 -16 28 -21z
m-3770 -30 c17 0 20 -37 5 -60 -9 -13 -11 -13 -20 0 -5 8 -10 22 -11 30 0 8
-4 4 -8 -9 -4 -14 -12 -26 -19 -29 -18 -6 -15 49 4 77 15 21 18 21 26 7 5 -9
16 -16 23 -16z m73 -106 c-1 -62 -6 -98 -10 -87 -5 11 -7 -1 -4 -30 3 -35 -15
-204 -24 -223 0 -1 -34 2 -55 5 -5 1 -3 6 5 11 11 7 12 10 2 10 -8 0 -16 -9
-19 -20 -8 -29 -21 -25 -25 8 -2 21 -8 27 -25 25 -15 -2 -23 3 -23 12 0 8 -6
15 -14 15 -8 0 -16 10 -19 23 l-4 22 -9 -23 c-9 -21 -12 -22 -23 -9 -10 12 -9
37 3 122 8 59 17 109 19 111 2 3 10 -9 17 -26 13 -32 30 -40 30 -15 0 8 5 15
11 15 6 0 17 -7 25 -15 19 -19 33 -19 40 0 4 10 11 12 23 6 9 -6 23 -6 30 -2
17 11 27 96 13 105 -12 7 14 66 29 66 5 0 8 -44 7 -106z m3225 60 l38 -25 -7
26 c-6 24 -4 26 12 17 20 -10 117 -42 128 -42 3 0 3 8 -1 18 -5 13 -3 14 6 6
10 -9 10 -18 -3 -40 -10 -20 -15 -23 -16 -12 0 11 -5 15 -14 12 -8 -3 -17 -1
-21 5 -3 6 -16 11 -29 11 -12 0 -27 5 -34 12 -9 9 -12 9 -12 -1 0 -6 14 -17
30 -22 17 -6 30 -15 30 -21 0 -6 7 -8 15 -4 8 3 15 1 15 -4 0 -14 62 -44 82
-41 10 1 30 -5 45 -13 16 -9 41 -20 56 -26 16 -6 27 -16 24 -23 -2 -7 9 -17
26 -23 39 -13 46 -32 12 -30 -14 0 -25 5 -25 9 0 5 -5 5 -10 2 -6 -4 -17 -1
-25 5 -9 7 -22 9 -32 5 -14 -6 -10 -10 19 -16 21 -5 49 -19 63 -31 l26 -22
-65 -13 c-58 -12 -68 -11 -107 6 -24 11 -36 20 -27 20 9 1 18 6 20 13 3 9 13
9 39 -2 19 -8 37 -18 40 -23 8 -12 59 0 59 13 0 6 -9 10 -20 10 -11 0 -42 11
-68 25 -30 16 -72 27 -112 30 -35 3 -67 9 -70 14 -3 5 -25 12 -50 16 -25 4
-65 12 -90 18 -40 10 -42 12 -20 17 14 4 28 2 32 -4 5 -7 8 -6 8 3 0 13 16 12
73 -5 9 -3 17 -1 17 5 0 6 -11 11 -24 11 -14 0 -27 4 -30 9 -3 4 -18 6 -33 4
-22 -4 -25 -2 -13 7 12 8 6 9 -22 4 -27 -4 -38 -3 -38 6 0 7 -6 10 -14 7 -8
-3 -17 1 -20 10 -5 13 0 15 31 9 69 -11 82 -14 128 -35 25 -11 61 -23 80 -27
19 -3 35 -10 35 -15 0 -5 5 -9 12 -9 15 0 -90 100 -106 100 -6 0 -36 16 -66
35 -37 23 -49 35 -35 35 11 0 37 -12 58 -26z m-2813 -15 c25 -5 52 -9 60 -9
80 4 116 -2 135 -24 21 -24 83 -47 70 -25 -5 7 -1 10 11 7 28 -5 30 -36 2 -46
-13 -5 -59 -6 -103 -1 -44 4 -113 10 -154 13 -71 5 -90 14 -91 42 0 6 -7 17
-15 24 -36 30 -1 38 85 19z m3043 -12 c-12 -5 -26 -19 -31 -31 -8 -16 -11 -17
-11 -4 -1 9 8 23 19 31 11 8 17 17 13 21 -4 4 1 4 12 0 18 -7 18 -8 -2 -17z
m-267 -3 c13 -3 24 -10 24 -15 0 -12 -5 -11 -45 5 -34 15 -51 34 -19 22 9 -3
27 -9 40 -12z m339 -48 c15 -13 42 -27 59 -31 l31 -8 -30 -7 c-16 -3 -34 -3
-40 1 -23 16 -115 38 -115 27 0 -6 -2 -9 -5 -6 -3 3 -2 13 1 23 5 13 14 15 36
11 18 -3 27 -2 23 4 -11 18 12 10 40 -14z m195 -36 c25 -22 20 -26 -11 -10
-10 6 -19 15 -19 20 0 14 4 13 30 -10z m-100 -60 c0 -6 -9 -2 -20 7 -11 10
-20 19 -20 21 0 1 9 -2 20 -8 11 -6 20 -15 20 -20z m-3410 -34 c14 -19 60 -94
60 -99 0 -1 -11 -4 -25 -5 -14 -1 -25 2 -25 7 0 5 -16 26 -35 47 -32 35 -44
71 -28 87 7 8 31 -9 53 -37z m2910 23 c0 -8 21 -10 74 -5 52 5 77 3 81 -5 5
-8 1 -9 -14 -4 -26 8 -28 -10 -3 -25 23 -14 -77 -7 -133 11 -22 6 -55 12 -72
13 -56 2 -40 26 17 26 31 0 50 -4 50 -11z m-2617 -14 c29 -2 95 -4 147 -5 52
-2 101 -5 108 -8 19 -7 52 -77 52 -108 0 -15 14 -51 30 -81 26 -46 28 -54 14
-60 -8 -3 -32 -1 -52 5 -20 5 -57 10 -82 11 -71 1 -163 12 -182 22 -12 7 -18
22 -18 44 0 26 -9 45 -34 72 -18 21 -41 53 -50 71 -17 32 -14 58 5 46 6 -3 34
-7 62 -9z m2871 -43 c-21 -5 -46 6 -40 17 4 5 16 4 31 -2 18 -9 20 -13 9 -15z
m-227 2 c-3 -3 -12 -4 -19 -1 -8 3 -5 6 6 6 11 1 17 -2 13 -5z m275 -46 c64
-13 74 -23 29 -30 -17 -2 -28 -1 -25 4 3 4 -3 8 -13 8 -10 0 -29 3 -43 6 l-25
5 25 -15 c31 -19 27 -19 -30 -2 -33 11 -38 15 -20 15 20 1 22 3 10 11 -22 14
19 13 92 -2z m-135 -4 c-3 -3 -12 -4 -19 -1 -8 3 -5 6 6 6 11 1 17 -2 13 -5z
m-112 -14 c-3 -5 -16 -10 -28 -9 -20 1 -20 2 3 9 14 4 26 8 28 9 2 1 0 -3 -3
-9z m391 -5 c9 -8 11 -15 6 -15 -5 0 -15 7 -22 15 -7 8 -9 15 -6 15 4 0 14 -7
22 -15z m-506 -5 c-8 -5 -24 -9 -35 -9 l-20 0 20 9 c11 5 27 9 35 9 13 1 13 0
0 -9z m-2055 -40 c3 -5 1 -10 -4 -10 -6 0 -11 5 -11 10 0 6 2 10 4 10 3 0 8
-4 11 -10z m2356 -18 c-7 -2 -18 1 -23 6 -8 8 -4 9 13 5 13 -4 18 -8 10 -11z
m267 -2 c13 0 21 -4 17 -9 -3 -5 3 -12 12 -16 10 -3 29 -20 43 -38 14 -17 21
-29 15 -25 -5 3 -28 14 -50 24 -60 27 -94 55 -88 71 4 10 9 11 16 4 6 -6 22
-11 35 -11z m-393 1 c-26 -6 -27 -8 -10 -14 30 -10 117 -12 143 -3 13 4 22 3
22 -3 0 -5 17 -13 38 -16 61 -11 93 -30 165 -99 37 -36 67 -62 67 -58 0 4 8
-8 16 -25 9 -18 23 -33 30 -33 8 0 14 -5 14 -11 0 -6 7 -8 16 -5 10 4 23 -3
36 -19 11 -14 25 -25 33 -25 7 0 15 -7 19 -15 7 -19 -8 -19 -27 -1 -8 8 -27
16 -43 19 -83 14 -114 22 -164 45 -30 13 -67 33 -83 44 -15 11 -32 18 -39 16
-12 -4 116 -92 163 -112 16 -7 26 -15 22 -19 -3 -4 -1 -7 6 -7 7 0 9 -5 6 -11
-5 -7 -12 -5 -23 4 -19 17 -72 40 -115 51 -26 6 -28 5 -22 -14 5 -15 3 -19
-10 -14 -9 4 -15 3 -14 -2 1 -5 0 -13 -1 -19 -2 -5 -3 -18 -4 -27 -1 -22 -18
-24 -31 -4 -6 10 -4 20 8 34 9 10 17 22 17 26 0 8 -79 0 -107 -11 -8 -3 -13 0
-11 8 4 19 -65 24 -104 8 -16 -6 -32 -8 -36 -4 -4 4 -1 10 6 12 10 4 10 8 1
19 -14 17 0 19 49 5 19 -6 42 -6 55 -1 20 8 20 9 -11 16 -24 5 -30 9 -20 16 9
7 8 8 -7 6 -35 -4 -72 11 -78 32 -6 25 -3 25 33 -1 19 -15 35 -19 47 -14 15 6
13 9 -14 21 -18 8 -33 17 -33 20 0 12 56 -8 91 -32 27 -18 44 -23 63 -18 35 8
33 18 -9 34 -26 10 -35 20 -35 38 0 19 4 22 21 17 20 -7 21 -4 15 20 -6 25 -5
27 18 23 18 -4 26 -1 26 9 0 23 -49 7 -72 -22 -11 -14 -29 -24 -41 -23 -12 0
-30 -3 -39 -7 -12 -4 -18 -3 -18 5 0 7 -7 10 -16 6 -12 -4 -15 -2 -10 9 3 9 0
15 -10 15 -8 0 -12 -4 -9 -10 3 -5 0 -10 -7 -10 -10 0 -10 -2 0 -9 10 -6 7
-10 -11 -13 -19 -4 -24 -1 -20 9 4 11 -1 14 -18 11 -13 -1 -24 -10 -24 -18 0
-8 -7 -15 -15 -15 -8 -1 -38 -4 -67 -9 -29 -4 -57 -5 -64 -1 -18 12 9 23 68
31 73 9 67 20 -9 17 -57 -2 -61 -1 -44 12 11 8 28 15 38 15 10 0 18 4 18 8 0
4 30 7 68 5 37 -1 58 1 47 4 -11 3 -29 12 -40 20 -20 15 -20 15 3 8 20 -6 21
-4 12 19 -8 21 -7 26 6 26 8 0 13 4 10 8 -2 4 19 8 47 9 40 1 45 -1 22 -6z
m275 -17 c0 -8 -4 -12 -10 -9 -5 3 -10 10 -10 16 0 5 5 9 10 9 6 0 10 -7 10
-16z m-2350 -34 c0 -5 -4 -10 -10 -10 -5 0 -10 5 -10 10 0 6 5 10 10 10 6 0
10 -4 10 -10z m2420 -10 c0 -5 -2 -10 -4 -10 -3 0 -8 5 -11 10 -3 6 -1 10 4
10 6 0 11 -4 11 -10z m-3670 -21 c0 -11 -4 -17 -10 -14 -5 3 -10 -1 -10 -10 0
-9 -4 -13 -10 -10 -14 9 -12 21 6 39 20 21 24 20 24 -5z m42 4 c-5 -9 -7 -34
-5 -55 7 -47 -3 -50 -16 -3 -11 41 -4 75 16 75 10 0 11 -5 5 -17z m-119 -7 c3
-8 1 -17 -6 -19 -9 -3 -9 -7 1 -19 10 -12 10 -20 -1 -40 -11 -23 -12 -20 -14
34 -1 55 8 75 20 44z m1115 -24 c3 -33 19 -43 28 -17 11 29 32 15 39 -25 4
-22 11 -42 16 -46 11 -7 12 -64 0 -82 -11 -17 7 -91 23 -94 6 -1 28 -2 48 -2
36 -1 38 0 38 32 0 17 5 32 10 32 6 0 10 -20 10 -45 0 -42 2 -45 23 -41 61 13
111 16 97 6 -11 -7 -5 -9 25 -9 39 1 103 16 76 18 -7 1 -11 7 -8 15 3 8 1 17
-6 20 -7 2 -5 5 4 5 9 1 23 9 33 19 15 18 15 19 -9 30 -14 7 -31 12 -38 12 -7
0 -20 7 -30 14 -16 12 -15 15 18 30 35 17 50 34 19 22 -10 -4 -14 -1 -12 6 3
8 20 11 46 9 30 -2 44 2 48 12 9 25 29 27 43 5 11 -18 11 -20 -3 -15 -10 4
-13 1 -10 -7 3 -8 0 -17 -6 -21 -9 -6 -9 -9 0 -15 10 -6 7 -14 -8 -31 -14 -14
-18 -26 -12 -34 13 -16 -4 -37 -23 -29 -9 3 -17 2 -17 -4 0 -5 6 -12 13 -15
10 -4 14 -50 15 -198 2 -108 7 -198 12 -203 6 -6 10 -17 10 -25 0 -11 -5 -9
-20 7 -12 12 -27 22 -35 22 -27 0 -36 -79 -15 -145 5 -16 12 -45 15 -64 3 -19
11 -43 18 -55 10 -18 12 -13 18 44 7 66 32 140 41 124 3 -5 11 -26 18 -47 9
-30 9 -41 -1 -53 -13 -16 -15 -133 -2 -143 9 -7 26 -40 47 -94 8 -20 22 -40
31 -43 8 -3 15 -10 15 -16 0 -5 -4 -7 -9 -4 -13 8 -3 -25 15 -48 21 -29 25
-16 14 50 -6 32 -9 75 -9 94 1 25 3 28 5 10 25 -171 40 -248 50 -264 12 -17
13 -16 18 15 15 94 27 239 22 248 -4 6 5 20 19 33 25 22 34 48 15 48 -5 0 -10
21 -10 46 0 27 4 43 10 39 6 -3 10 -1 10 4 0 6 -5 11 -11 11 -6 0 -9 7 -5 15
3 9 0 15 -9 15 -19 0 -19 19 -1 26 8 3 12 12 9 20 -3 8 0 14 6 14 6 0 11 7 11
15 0 8 -4 15 -10 15 -21 0 -9 20 13 21 22 2 22 2 0 6 -26 5 -36 28 -20 46 7 7
17 22 23 32 6 11 20 21 32 23 11 2 22 12 25 24 3 11 10 17 16 13 6 -3 11 1 11
9 0 9 7 16 15 16 9 0 26 12 39 27 l23 26 62 -14 c41 -9 66 -20 73 -32 5 -10
16 -16 23 -13 8 3 17 1 20 -4 4 -6 14 -10 24 -10 10 0 23 -6 29 -12 6 -7 25
-13 44 -13 21 0 39 -7 50 -20 10 -13 27 -20 45 -19 15 0 31 -4 35 -10 5 -8 13
-7 28 2 11 7 20 8 20 3 0 -6 21 -13 48 -16 26 -4 57 -13 68 -21 12 -7 41 -14
65 -15 24 -2 56 -12 71 -22 15 -12 34 -17 44 -13 9 3 22 2 28 -2 6 -5 39 -15
74 -22 34 -7 66 -19 71 -27 10 -18 87 -14 84 4 -2 7 4 10 12 7 8 -3 14 -9 13
-12 -2 -22 4 -32 21 -32 11 0 22 4 25 8 3 5 35 8 71 6 65 -3 65 -3 43 16 -13
11 -17 19 -10 20 6 0 12 -4 12 -10 0 -5 11 -10 24 -10 14 0 28 -4 31 -10 3 -5
18 -10 33 -10 25 1 25 2 10 14 -24 18 -23 29 1 16 11 -5 30 -10 42 -10 19 0
15 4 -16 20 -22 11 -51 20 -65 20 -24 0 -130 44 -130 54 0 3 24 3 53 0 38 -4
48 -3 37 5 -8 6 -24 11 -36 11 -33 0 -195 58 -234 84 -20 13 -45 26 -56 30
-10 3 4 4 31 2 28 -2 42 -2 33 1 -22 5 -24 23 -4 23 8 0 27 -5 43 -12 33 -13
49 -15 208 -24 128 -7 180 3 169 31 -8 19 1 22 127 44 66 12 98 21 87 26 -10
4 -31 2 -48 -3 -35 -13 -41 0 -7 15 40 19 62 14 75 -19 11 -29 10 -30 -13 -24
-25 6 -44 -9 -23 -17 7 -3 -3 -4 -22 -1 -26 3 -30 2 -15 -4 18 -8 16 -11 -20
-26 -22 -10 -49 -19 -60 -20 -12 -1 -26 -5 -32 -9 -25 -16 -131 -37 -178 -36
-47 2 -48 2 -15 9 44 9 41 10 -52 15 -67 4 -78 2 -78 -11 0 -13 7 -15 30 -10
17 3 29 2 25 -3 -7 -12 175 -26 205 -16 15 5 19 10 11 15 -7 4 13 10 45 13 31
3 62 11 67 16 6 6 18 11 26 11 14 0 14 -1 1 -10 -11 -7 -8 -10 15 -9 17 0 24
3 17 6 -22 9 -2 23 24 17 15 -4 24 -2 24 6 0 7 10 9 28 6 17 -4 35 -1 47 8 30
23 39 19 15 -6 -11 -12 -18 -28 -16 -34 3 -8 -8 -15 -27 -20 -17 -3 -37 -13
-44 -20 -16 -16 -71 -32 -157 -45 -63 -11 -74 -15 -63 -25 5 -6 55 2 141 21
26 5 28 4 17 -9 -11 -13 -10 -17 3 -22 10 -4 22 0 30 11 7 10 18 15 24 11 7
-4 12 -2 12 3 0 6 -5 11 -12 11 -6 0 -9 2 -6 5 9 9 38 -6 38 -20 0 -7 -9 -15
-20 -18 -25 -6 -26 -34 -2 -41 9 -3 0 -4 -20 -1 -28 3 -40 -1 -47 -13 -8 -14
-23 -17 -85 -15 -45 2 -76 -2 -76 -7 0 -6 12 -10 28 -10 46 -1 186 -17 212
-25 14 -5 41 -18 60 -30 68 -42 149 -75 184 -75 39 0 63 -28 51 -58 -4 -9 -9
-33 -11 -52 -1 -19 -8 -61 -15 -93 -9 -44 -9 -61 0 -70 8 -8 11 -4 11 15 0 32
17 45 35 27 9 -9 14 -49 16 -119 2 -58 5 -114 8 -124 4 -18 5 -17 14 5 10 23
10 22 17 -16 5 -22 4 -41 -1 -43 -4 -2 -6 -17 -2 -33 3 -18 1 -29 -6 -29 -6 0
-12 17 -12 38 -1 20 -3 29 -6 20 -10 -39 -22 -14 -25 50 l-3 67 -17 -65 c-11
-42 -13 -67 -7 -71 7 -4 5 -12 -5 -22 -9 -8 -16 -27 -16 -41 0 -32 -14 -40
-35 -20 -10 11 -14 25 -11 40 4 13 2 24 -4 24 -5 0 -12 -12 -16 -27 -3 -16
-10 -42 -15 -59 l-9 -31 -162 -17 c-88 -9 -163 -14 -166 -11 -3 3 8 5 24 5 16
0 41 6 55 14 14 7 36 16 50 19 13 3 48 21 78 40 40 26 49 36 37 40 -9 4 -24 3
-34 -3 -55 -29 -90 -40 -133 -40 -26 0 -51 -5 -54 -11 -4 -6 -13 -8 -21 -5 -7
3 -52 -8 -100 -24 -48 -17 -98 -30 -110 -30 -13 0 -58 -8 -101 -19 -74 -18
-92 -24 -171 -58 -60 -26 -97 -27 -159 -3 -57 23 -69 28 -167 69 -26 12 -59
30 -73 41 -14 11 -32 20 -39 20 -7 0 -42 13 -77 30 -36 17 -79 30 -96 30 -17
0 -31 4 -31 8 0 11 -93 31 -234 51 -38 5 -74 15 -79 20 -6 6 -23 11 -38 11
-15 0 -31 5 -34 10 -3 6 -10 10 -16 10 -16 0 -10 -29 15 -68 13 -20 27 -47 31
-59 6 -21 3 -23 -32 -23 -21 0 -63 6 -93 13 -30 6 -64 12 -75 12 -32 -1 -44
25 -45 91 0 52 -4 64 -25 82 -13 12 -36 24 -50 28 -22 6 -65 51 -65 69 0 4
-11 28 -24 55 -13 26 -27 67 -31 91 -4 24 -13 58 -20 74 -7 17 -17 41 -23 55
l-11 25 -1 -30 c-2 -30 -2 -30 -10 -5 -8 25 -8 24 -9 -5 -1 -16 -5 -25 -9 -20
-4 6 -14 10 -22 10 -8 0 -15 7 -15 15 -1 26 -16 26 -30 1 -9 -17 -34 -32 -81
-48 -38 -13 -76 -25 -84 -27 -8 -2 -15 -11 -15 -22 0 -12 -7 -19 -20 -19 -12
0 -19 6 -17 14 1 7 -5 19 -15 26 -17 13 -17 14 0 33 12 13 14 22 8 26 -16 10
-51 95 -51 123 0 22 16 67 39 112 12 23 54 51 85 57 16 3 38 10 49 16 15 7 22
7 28 -3 7 -11 9 -10 9 4 0 19 8 21 43 8 18 -7 29 -24 42 -64 17 -54 16 -82 -3
-159 -10 -40 -9 -41 23 -29 11 5 25 4 32 -1 20 -16 26 12 13 56 -7 22 -20 66
-30 96 -10 30 -16 69 -13 86 l5 31 -64 7 c-34 3 -94 8 -133 11 -38 2 -128 9
-200 15 -143 13 -159 20 -151 75 30 193 30 196 17 257 -11 54 -11 62 3 70 9 5
16 15 16 23 0 8 8 18 17 24 15 8 16 12 3 35 -11 22 -11 30 0 51 7 14 22 25 32
25 17 0 18 5 12 51 -5 38 -3 53 7 60 25 16 44 5 47 -29z m2092 28 c0 -5 -12
-12 -27 -15 -16 -3 -45 -10 -66 -16 -41 -11 -66 -4 -48 14 5 5 35 9 66 8 32
-1 55 3 55 9 0 5 5 10 10 10 6 0 10 -4 10 -10z m-3319 -57 c0 -27 0 -68 0 -93
0 -53 18 -150 32 -168 13 -17 36 14 37 51 0 15 5 27 10 27 15 0 12 33 -6 68
-15 31 -12 52 6 52 5 0 10 -15 12 -32 5 -54 32 -48 54 11 l18 51 13 -32 c7
-17 16 -28 19 -25 3 3 1 14 -5 25 -14 26 -14 52 -1 52 6 0 10 -7 10 -15 0 -8
4 -15 9 -15 10 0 12 -56 5 -109 -5 -31 -6 -32 -19 -15 -13 17 -13 16 -5 -14
11 -41 6 -147 -9 -185 -6 -16 -9 -32 -7 -36 3 -4 1 -49 -4 -100 -11 -99 -7
-119 16 -100 12 9 14 5 14 -24 0 -68 -8 -70 -60 -14 -86 94 -156 181 -182 227
l-25 45 12 115 c13 114 44 300 51 300 2 0 4 -21 5 -47z m3114 27 c3 -5 -1 -10
-10 -10 -9 0 -13 5 -10 10 3 6 8 10 10 10 2 0 7 -4 10 -10z m1831 -17 c-7 -7
-26 7 -26 19 0 6 6 6 15 -2 9 -7 13 -15 11 -17z m-1010 -4 c19 -22 19 -22 -3
-10 -13 6 -23 16 -23 21 0 15 5 12 26 -11z m-951 -20 c0 -8 -11 -14 -25 -15
-14 -1 -37 -4 -52 -9 -18 -5 -28 -3 -28 4 0 6 8 11 18 11 9 1 28 7 42 15 29
16 45 14 45 -6z m200 11 c3 -5 -1 -10 -10 -10 -9 0 -13 5 -10 10 3 6 8 10 10
10 2 0 7 -4 10 -10z m63 -6 c-9 -9 -21 -13 -27 -10 -19 12 -12 22 16 24 25 2
26 1 11 -14z m-1443 -24 c-3 -5 -12 -10 -18 -10 -7 0 -6 4 3 10 19 12 23 12
15 0z m1812 4 c-3 -3 -12 -4 -19 -1 -8 3 -5 6 6 6 11 1 17 -2 13 -5z m-2237
-36 c0 -18 -2 -20 -9 -8 -6 8 -7 18 -5 22 9 14 14 9 14 -14z m2090 -9 c0 -5
-4 -9 -10 -9 -5 0 -10 7 -10 16 0 8 5 12 10 9 6 -3 10 -10 10 -16z m-1659 -12
c-1 -12 -15 -9 -19 4 -3 6 1 10 8 8 6 -3 11 -8 11 -12z m1384 3 c16 -7 17 -9
3 -9 -9 -1 -21 -8 -26 -16 -7 -13 -21 -14 -83 -8 l-74 7 75 17 c89 20 80 20
105 9z m-1415 -10 c0 -5 -2 -10 -4 -10 -3 0 -8 5 -11 10 -3 6 -1 10 4 10 6 0
11 -4 11 -10z m-1733 -22 c-3 -8 -6 -5 -6 6 -1 11 2 17 5 13 3 -3 4 -12 1 -19z
m1333 -9 c0 -5 -4 -9 -10 -9 -5 0 -10 7 -10 16 0 8 5 12 10 9 6 -3 10 -10 10
-16z m1837 15 c-3 -3 -12 -4 -19 -1 -8 3 -5 6 6 6 11 1 17 -2 13 -5z m-2877
-25 c0 -11 -4 -17 -10 -14 -5 3 -10 13 -10 21 0 8 5 14 10 14 6 0 10 -9 10
-21z m2829 -60 c-8 -5 -24 -9 -37 -9 -13 0 -20 -4 -17 -10 8 -13 51 -13 77 1
22 12 208 19 208 8 0 -3 14 -6 30 -6 17 0 30 4 30 9 0 19 28 6 39 -18 l12 -27
-43 7 c-68 12 -112 17 -123 17 -203 -11 -245 -12 -245 -2 0 6 -10 11 -22 11
-19 0 -20 -2 -8 -10 11 -7 4 -10 -25 -9 -33 0 -36 2 -19 9 12 5 25 13 28 18 3
6 15 8 26 5 11 -3 20 -1 20 3 0 5 19 10 42 11 28 1 37 -2 27 -8z m268 5 c-3
-3 -12 -4 -19 -1 -8 3 -5 6 6 6 11 1 17 -2 13 -5z m155 -5 c-13 -5 -30 -5 -39
-1 -10 6 -2 9 24 10 33 0 35 -1 15 -9z m235 -15 c-9 -9 -28 6 -21 18 4 6 10 6
17 -1 6 -6 8 -13 4 -17z m-33 -25 c-10 -16 -24 -9 -24 12 0 18 2 19 15 9 8 -7
12 -16 9 -21z m191 21 c3 -5 2 -10 -4 -10 -5 0 -13 5 -16 10 -3 6 -2 10 4 10
5 0 13 -4 16 -10z m-2370 -10 c-3 -5 -12 -10 -18 -10 -7 0 -6 4 3 10 19 12 23
12 15 0z m2270 -10 c3 -5 2 -10 -4 -10 -5 0 -13 5 -16 10 -3 6 -2 10 4 10 5 0
13 -4 16 -10z m-307 -10 c6 0 12 -5 12 -11 0 -13 -50 -3 -65 13 -7 8 -2 9 15
4 14 -3 31 -6 38 -6z m-199 -26 c2 -2 -3 -4 -13 -4 -10 0 -14 -5 -11 -11 4 -6
13 -8 21 -5 7 3 16 1 18 -3 7 -10 -71 -24 -85 -16 -5 4 -9 2 -9 -3 0 -5 18
-17 40 -28 22 -10 40 -25 40 -33 0 -10 -3 -11 -14 -2 -7 6 -48 16 -90 21 -83
10 -100 16 -91 31 4 5 -1 9 -10 9 -9 0 -13 5 -10 10 3 6 0 10 -8 10 -8 0 -20
7 -27 15 -10 12 -1 15 62 18 71 3 179 -2 187 -9z m467 5 c55 -14 57 -29 4 -29
-22 0 -40 5 -40 11 0 6 -7 4 -15 -5 -8 -8 -15 -20 -15 -26 0 -7 -7 -9 -16 -6
-9 3 -28 6 -42 7 -23 0 -20 3 18 18 24 10 46 23 48 30 5 14 3 14 58 0z m-4557
-8 c23 -15 4 -27 -33 -23 -40 5 -48 18 -13 25 12 2 24 5 27 5 3 1 11 -2 19 -7z
m4726 -1 c3 -6 -1 -7 -9 -4 -18 7 -21 14 -7 14 6 0 13 -4 16 -10z m-391 -12
c-7 -11 -34 -10 -34 1 0 6 9 9 19 8 11 0 17 -5 15 -9z m-494 -8 c8 -5 11 -12
7 -16 -3 -4 -13 -1 -21 5 -8 7 -24 10 -36 6 -11 -4 -20 -2 -20 4 0 13 50 14
70 1z m-202 -17 c-10 -2 -26 -2 -35 0 -10 3 -2 5 17 5 19 0 27 -2 18 -5z m452
-13 c0 -5 -5 -10 -11 -10 -5 0 -7 5 -4 10 3 6 8 10 11 10 2 0 4 -4 4 -10z m75
-1 c4 -6 5 -12 4 -14 -7 -7 -59 8 -59 16 0 13 47 11 55 -2z m232 5 c-3 -3 -12
-4 -19 -1 -8 3 -5 6 6 6 11 1 17 -2 13 -5z m-3337 -29 c0 -14 -4 -25 -10 -25
-5 0 -10 11 -10 25 0 14 5 25 10 25 6 0 10 -11 10 -25z m4263 -14 c15 -8 27
-21 27 -28 0 -8 4 -12 9 -9 19 12 34 -26 32 -80 -1 -31 2 -61 8 -68 7 -8 7
-25 0 -51 -8 -31 -15 -40 -32 -41 -12 0 -29 -4 -38 -8 -10 -4 -23 -1 -33 10
-25 24 -41 3 -38 -51 1 -25 -3 -45 -8 -45 -10 0 -15 27 -11 68 1 12 -3 22 -9
22 -5 0 -10 -13 -10 -29 0 -35 -15 -49 -25 -24 -3 10 -1 19 4 21 25 8 10 42
-21 50 -22 6 -33 14 -31 26 1 12 -4 15 -14 12 -11 -4 -13 -2 -9 9 3 8 1 15 -4
15 -16 0 -12 17 6 24 8 3 12 2 9 -4 -3 -6 -1 -10 4 -10 12 0 12 -1 16 55 1 22
-3 46 -9 54 -9 12 -8 13 7 8 9 -3 17 -2 17 3 0 6 -10 10 -21 10 -19 0 -21 -4
-15 -30 5 -28 -1 -36 -27 -31 -5 1 -11 -8 -14 -19 -8 -30 -28 -19 -30 16 -1
16 1 21 3 12 3 -10 10 -18 16 -18 5 0 7 7 4 16 -3 9 -6 22 -6 30 0 8 -7 14
-16 14 -8 0 -12 5 -9 10 10 16 23 12 30 -11 5 -16 10 -18 21 -8 8 6 14 20 14
30 0 11 7 19 18 20 9 0 28 3 42 5 14 2 32 5 40 6 8 0 26 9 39 20 13 10 27 17
30 15 3 -1 18 -9 34 -16z m-1489 -6 c4 -12 11 -13 23 -7 21 11 199 -9 187 -20
-17 -17 25 -7 48 12 27 20 40 18 31 -6 -7 -18 28 -7 40 13 9 15 37 18 37 3 0
-5 -7 -10 -15 -10 -8 0 -15 -4 -15 -10 0 -14 11 -13 53 5 42 17 81 20 72 5 -4
-6 -15 -8 -25 -5 -10 3 -20 0 -23 -7 -3 -10 9 -13 47 -12 29 1 37 0 18 -3 -18
-2 -30 -8 -27 -12 7 -13 -78 -21 -92 -9 -7 5 -18 6 -24 2 -7 -4 -9 -3 -6 3 8
13 -64 24 -77 12 -6 -5 -1 -9 11 -9 12 0 25 -4 28 -10 4 -6 -6 -10 -24 -10
-16 0 -31 5 -33 12 -3 8 -11 9 -24 3 -18 -8 -18 -9 4 -13 15 -2 22 -9 18 -18
-4 -10 6 -16 37 -21 41 -7 41 -7 12 -13 -48 -9 -186 22 -206 47 -6 7 -22 13
-35 13 -18 0 -24 6 -24 21 0 13 -10 23 -30 30 -34 12 -40 29 -11 29 10 0 22
-7 25 -15z m1257 -28 c-13 -13 -26 -3 -16 12 3 6 11 8 17 5 6 -4 6 -10 -1 -17z
m-4044 -29 c-3 -8 -6 -5 -6 6 -1 11 2 17 5 13 3 -3 4 -12 1 -19z m-77 -9 c0
-5 4 -8 9 -5 5 3 14 -1 21 -9 6 -7 17 -12 24 -9 19 7 27 -43 14 -93 -10 -43
-22 -54 -31 -30 -3 6 -4 2 -4 -10 1 -13 5 -23 9 -23 4 0 8 -7 8 -16 0 -11 -5
-14 -16 -10 -9 3 -22 6 -30 6 -8 0 -13 3 -13 8 3 19 -3 56 -8 45 -8 -20 -23
-15 -23 8 0 11 -4 17 -10 14 -11 -7 -13 9 -4 43 4 15 12 21 21 17 12 -4 14 3
11 35 -2 28 0 40 9 40 7 0 13 -5 13 -11z m3277 -65 c-3 -3 -12 -4 -19 -1 -8 3
-5 6 6 6 11 1 17 -2 13 -5z m283 2 c0 -3 -4 -8 -10 -11 -5 -3 -10 -1 -10 4 0
6 5 11 10 11 6 0 10 -2 10 -4z m113 -13 c-7 -2 -19 -2 -25 0 -7 3 -2 5 12 5
14 0 19 -2 13 -5z m437 -63 c0 -17 -5 -29 -11 -27 -6 1 -13 -6 -14 -15 -2 -13
3 -18 21 -18 17 0 24 -6 24 -20 0 -29 -28 -36 -48 -14 -22 24 -22 78 0 104 24
27 28 25 28 -10z m39 -59 c-16 -5 -33 15 -24 30 6 9 12 7 22 -7 9 -13 10 -20
2 -23z m621 35 c0 -2 3 -11 6 -20 4 -10 1 -16 -9 -16 -17 0 -40 24 -30 33 7 8
33 10 33 3z m-1763 -32 c-3 -3 -12 -4 -19 -1 -8 3 -5 6 6 6 11 1 17 -2 13 -5z
m-2987 -55 c0 -5 -4 -9 -10 -9 -5 0 -10 7 -10 16 0 8 5 12 10 9 6 -3 10 -10
10 -16z m39 -27 c-4 -46 1 -57 29 -58 82 -2 142 -10 142 -19 0 -5 9 5 20 23
11 18 20 39 20 47 0 8 9 15 20 15 17 0 20 -7 20 -41 0 -27 6 -46 17 -54 9 -7
14 -19 10 -29 -5 -12 -20 -16 -62 -16 -30 0 -55 -4 -55 -10 0 -5 5 -10 11 -10
5 0 9 -8 8 -17 -3 -35 1 -40 26 -35 29 5 75 -5 75 -17 0 -5 -26 -13 -57 -17
-55 -9 -58 -11 -55 -35 1 -17 -3 -29 -13 -33 -27 -10 -16 -25 16 -21 43 5 79
-10 79 -34 0 -16 -6 -19 -39 -16 -21 1 -44 6 -50 9 -18 11 -31 -3 -29 -32 1
-15 -6 -39 -16 -54 -9 -14 -18 -37 -20 -50 -1 -13 -5 -29 -9 -35 -7 -12 24
-53 41 -53 6 0 16 -8 21 -17 6 -10 11 -12 11 -5 0 18 26 15 46 -5 10 -10 27
-23 38 -28 25 -13 28 -48 4 -53 -9 -2 -36 6 -59 17 -43 21 -85 28 -75 13 3 -5
-2 -21 -10 -37 -18 -35 -5 -47 44 -42 21 2 32 -1 32 -10 0 -7 -5 -13 -11 -13
-6 0 -9 -7 -5 -15 7 -19 -8 -20 -23 -1 -14 17 -51 28 -51 14 0 -5 -4 -7 -9 -3
-20 12 -34 -46 -18 -72 5 -7 -4 -24 -20 -40 -20 -20 -28 -38 -28 -65 0 -20 3
-39 7 -43 11 -12 -1 -25 -23 -25 -34 0 -17 -31 20 -37 16 -2 31 -22 31 -42 0
-8 6 -11 18 -7 16 7 16 6 0 -10 -21 -21 -52 -11 -45 15 4 15 -1 18 -22 16 -63
-5 -93 -23 -96 -60 0 -5 -4 -16 -8 -22 -12 -19 -1 -30 37 -37 19 -4 36 -14 40
-24 3 -9 8 -22 11 -28 8 -15 -18 -24 -36 -13 -12 8 -12 10 1 19 12 8 11 10 -8
10 -13 0 -32 -5 -44 -11 -11 -6 -22 -8 -25 -6 -7 8 -7 112 2 225 l8 102 48 0
c26 0 50 4 53 8 2 4 7 55 11 112 3 57 8 106 10 110 2 3 11 59 19 124 9 64 18
121 21 126 6 9 -29 20 -67 20 -30 0 -31 2 -30 68 0 23 -3 42 -8 42 -12 0 -50
77 -52 106 -2 14 -8 30 -15 36 -7 6 -13 22 -13 37 0 15 -5 32 -12 39 -8 8 -8
15 1 26 10 12 9 17 -8 28 -28 17 -26 35 4 40 14 3 25 1 25 -3 0 -5 5 -9 11 -9
7 0 8 11 4 30 -6 29 8 43 18 18 4 -10 8 -9 16 2 9 12 11 11 11 -7 0 -13 4 -23
9 -23 5 0 12 -10 14 -22 4 -19 4 -18 6 5 0 16 6 38 12 49 10 19 12 20 21 4 5
-9 8 -24 7 -34z m4371 34 c0 -3 -4 -8 -10 -11 -5 -3 -10 -1 -10 4 0 6 5 11 10
11 6 0 10 -2 10 -4z m-76 -12 c25 -9 19 -24 -9 -24 -16 0 -25 6 -25 15 0 16 9
19 34 9z m-4618 -26 c5 -13 8 -38 9 -56 0 -27 -3 -32 -20 -30 -16 2 -21 13
-25 51 -4 26 -4 50 -1 52 11 12 30 3 37 -17z m451 16 c-3 -3 -12 -4 -19 -1 -8
3 -5 6 6 6 11 1 17 -2 13 -5z m-922 -14 c10 -16 -6 -100 -19 -100 -7 0 -20 6
-29 13 -14 10 -15 18 -6 55 8 30 17 42 30 42 10 0 21 -5 24 -10z m4811 -26
c13 -32 13 -45 0 -117 -9 -44 -20 -85 -26 -91 -5 -5 -10 -16 -10 -23 0 -7 -7
-21 -14 -30 -76 -93 -96 -120 -115 -158 -12 -25 -27 -45 -32 -45 -5 0 -9 36
-9 80 0 72 3 83 23 103 13 12 27 29 31 37 3 8 4 4 0 -10 -3 -14 -8 -38 -11
-55 -4 -27 -3 -28 10 -12 8 9 19 17 26 17 6 0 11 11 11 25 0 14 4 25 8 25 15
0 52 77 52 107 0 16 3 33 7 37 13 12 14 51 2 73 -9 17 -10 29 -1 48 16 35 30
31 48 -11z m-4706 -5 c0 -5 -4 -9 -10 -9 -5 0 -10 7 -10 16 0 8 5 12 10 9 6
-3 10 -10 10 -16z m4894 6 c3 -8 1 -15 -4 -15 -6 0 -10 7 -10 15 0 8 2 15 4
15 2 0 6 -7 10 -15z m550 6 c4 -5 -3 -7 -14 -4 -23 6 -26 13 -6 13 8 0 17 -4
20 -9z m-3265 -31 c11 -24 11 -24 -3 -6 -9 11 -16 24 -16 30 0 12 5 7 19 -24z
m1451 20 c0 -5 -7 -10 -16 -10 -8 0 -12 5 -9 10 3 6 10 10 16 10 5 0 9 -4 9
-10z m-3530 -40 c0 -5 -5 -10 -11 -10 -5 0 -7 5 -4 10 3 6 8 10 11 10 2 0 4
-4 4 -10z m5408 -8 c2 -7 -2 -10 -12 -6 -9 3 -16 11 -16 16 0 13 23 5 28 -10z
m-5248 -8 c0 -8 -5 -12 -10 -9 -6 4 -8 11 -5 16 9 14 15 11 15 -7z m165 6 c3
-5 -3 -10 -14 -10 -12 0 -21 5 -21 10 0 6 6 10 14 10 8 0 18 -4 21 -10z m4600
-31 c9 -17 14 -36 11 -42 -2 -7 -5 -5 -5 5 -1 9 -6 18 -13 20 -10 4 -21 48
-12 48 2 0 11 -14 19 -31z m-266 2 c12 -8 13 -12 1 -26 -12 -14 -15 -14 -28
-1 -8 8 -11 19 -8 25 9 13 16 14 35 2z m782 -12 c8 -15 8 -24 0 -32 -8 -8 -11
-5 -11 9 0 11 -5 25 -12 32 -9 9 -9 12 0 12 6 0 16 -9 23 -21z m-5696 -38 c-4
-17 -11 -31 -16 -31 -10 0 -12 25 -3 58 10 35 27 10 19 -27z m5625 29 c0 -5
-2 -10 -4 -10 -3 0 -8 5 -11 10 -3 6 -1 10 4 10 6 0 11 -4 11 -10z m-593 -22
c-3 -8 -6 -5 -6 6 -1 11 2 17 5 13 3 -3 4 -12 1 -19z m125 -49 c1 -38 42 -85
84 -95 26 -7 29 -21 15 -91 -7 -36 -6 -40 8 -35 14 5 14 3 3 -10 -10 -12 -10
-17 -1 -20 7 -2 9 -10 5 -17 -6 -9 -11 -8 -21 6 -7 10 -17 14 -21 10 -14 -14
-3 -90 14 -103 15 -11 15 -12 -3 -11 -15 2 -19 -3 -18 -20 2 -13 -2 -23 -7
-23 -6 0 -10 12 -11 28 0 24 -1 25 -9 7 -5 -12 -9 -15 -9 -6 -1 10 -4 12 -11
5 -6 -6 -6 -21 2 -42 10 -25 10 -35 1 -40 -8 -5 -10 -24 -7 -52 3 -25 5 -55 4
-68 0 -16 4 -21 13 -16 9 6 9 4 1 -7 -6 -8 -10 -27 -9 -44 1 -24 6 -30 24 -30
13 0 29 -8 36 -18 15 -21 25 -22 25 -2 0 21 48 15 65 -8 12 -16 13 -16 19 -1
5 13 9 14 21 4 13 -10 16 -7 21 19 7 35 23 41 31 11 5 -20 33 -29 33 -10 0 6
5 10 10 10 6 0 10 -11 10 -25 0 -16 6 -25 15 -25 13 0 21 38 17 80 0 3 10 7
24 8 25 2 31 -7 14 -24 -16 -16 13 -59 40 -59 14 0 31 -4 38 -8 7 -5 25 -2 42
7 17 8 32 10 36 5 3 -5 10 -7 15 -4 5 4 9 -2 9 -13 0 -24 8 -32 26 -25 9 3 14
21 14 49 0 32 4 44 15 46 8 0 21 1 28 2 6 1 16 6 20 11 5 6 5 -3 2 -20 -8 -34
-9 -41 -7 -72 1 -14 9 -23 18 -23 13 0 15 7 10 35 -7 36 6 75 26 75 7 0 7 -4
0 -13 -6 -7 -8 -31 -5 -56 l6 -44 18 24 c14 18 19 20 19 8 0 -9 7 -22 15 -29
12 -10 15 -10 15 3 0 26 20 30 29 5 6 -13 11 -18 12 -13 4 19 6 40 8 73 1 25
5 32 22 32 15 0 19 4 15 16 -4 11 -1 14 12 12 10 -2 16 -11 14 -23 -2 -17 -1
-17 8 -5 7 11 12 12 18 3 7 -11 62 -13 62 -2 0 4 -8 9 -19 12 -16 4 -18 10
-11 45 4 22 3 47 -2 56 -11 20 -1 39 17 32 7 -2 16 2 19 10 7 17 28 18 44 2
16 -16 -3 -38 -34 -38 -43 0 -25 -18 24 -24 131 -18 122 -14 122 -55 0 -20 -4
-41 -9 -47 -13 -14 -21 -73 -11 -79 6 -4 10 9 10 29 0 25 4 34 16 32 8 -1 19
-8 24 -15 5 -9 10 -10 14 -2 11 18 26 13 26 -9 0 -13 5 -18 15 -14 24 10 46
-16 45 -50 -3 -52 -1 -54 44 -74 45 -20 67 -42 44 -42 -9 -1 -7 -5 5 -14 16
-13 16 -14 -5 -20 -13 -3 -38 -6 -56 -6 -23 0 -32 -4 -29 -12 2 -8 18 -12 40
-10 30 3 36 1 31 -11 -3 -9 2 -27 11 -41 25 -37 11 -49 -47 -42 -39 5 -49 4
-46 -6 3 -7 27 -16 55 -19 28 -4 55 -9 61 -13 13 -8 21 -65 10 -72 -4 -3 -8 4
-8 15 0 12 -4 21 -9 21 -5 0 -7 -8 -4 -18 2 -10 -5 -26 -17 -37 -17 -16 -24
-17 -40 -7 -23 14 -50 16 -50 3 0 -12 17 -17 70 -20 25 -1 49 -7 55 -12 5 -5
19 -9 32 -9 14 0 26 -7 29 -17 3 -10 10 -26 15 -35 5 -10 9 -20 9 -22 0 -5
-56 -1 -75 5 -5 2 -27 0 -48 -5 -26 -5 -43 -3 -53 5 -17 14 -29 6 -21 -14 3
-7 23 -14 48 -16 58 -3 71 -15 67 -65 l-3 -41 -55 0 c-30 0 -55 -4 -55 -10 0
-6 21 -9 49 -7 64 3 140 -31 133 -59 -3 -11 -1 -19 4 -19 4 0 6 -7 3 -15 -4
-10 -20 -15 -45 -15 -25 0 -39 -5 -39 -13 0 -9 11 -12 34 -9 42 5 76 -12 76
-38 0 -11 7 -20 15 -20 9 0 15 9 15 25 0 30 -2 29 45 9 33 -13 36 -18 30 -42
-4 -15 -11 -52 -15 -82 -25 -164 -56 -239 -45 -107 6 67 5 77 -9 77 -23 0 -20
17 7 41 18 15 23 29 22 57 -2 20 -7 38 -13 40 -6 2 -10 -9 -9 -25 1 -19 -3
-28 -13 -28 -8 -1 -25 -7 -37 -15 -17 -11 -19 -16 -9 -24 16 -13 1 -80 -15
-70 -5 3 -18 2 -27 -2 -34 -14 -52 -13 -83 5 -28 17 -29 20 -13 29 11 6 16 14
12 18 -4 4 -19 -1 -34 -11 -23 -15 -26 -15 -21 -2 3 9 1 17 -4 19 -6 2 -7 11
-4 19 5 14 13 15 45 7 45 -12 110 -1 75 12 -11 4 -25 5 -31 3 -7 -2 -15 0 -19
6 -4 7 -22 9 -46 5 -25 -4 -44 -2 -54 6 -13 11 -15 7 -15 -26 1 -35 2 -37 14
-21 13 16 14 16 19 -5 6 -23 -30 -66 -43 -51 -7 9 -28 78 -32 108 -2 11 -14
25 -28 32 -20 10 -24 19 -23 50 1 26 -1 29 -4 11 -3 -22 -10 -28 -31 -28 -19
0 -23 -3 -13 -9 10 -6 10 -10 1 -16 -11 -7 -39 20 -40 38 0 5 -10 7 -22 5 -18
-2 -23 -10 -25 -42 -3 -48 -21 -71 -29 -38 -4 12 -14 22 -25 22 -29 0 -32 -19
-4 -26 14 -3 25 -12 25 -20 0 -8 6 -11 15 -8 10 4 15 0 15 -15 0 -17 -5 -21
-25 -17 -13 3 -37 1 -52 -3 -33 -9 -135 7 -145 23 -6 8 -10 7 -16 -2 -7 -10
-21 -11 -56 -5 l-47 8 28 30 c30 33 76 38 71 8 -2 -9 3 -18 10 -20 7 -3 12 4
12 16 0 16 6 21 26 21 40 0 19 16 -23 18 -41 2 -72 7 -105 18 -18 5 -20 12
-16 60 3 34 1 55 -6 56 -6 0 -17 2 -25 2 -8 1 -22 15 -32 33 -17 31 -17 32 6
57 25 27 45 34 45 15 0 -5 5 -7 12 -3 8 5 6 11 -6 19 -14 11 -15 14 -1 25 8 7
15 19 15 27 0 8 5 24 11 36 21 38 22 145 2 214 -10 34 -21 63 -25 63 -14 0 -8
23 9 35 10 8 13 17 8 25 -7 11 -10 11 -14 -2 -8 -21 -51 -5 -58 21 -3 11 -15
22 -26 26 -17 5 -18 8 -7 12 8 3 23 15 32 27 l18 21 0 -22 c0 -12 4 -24 9 -27
11 -7 21 28 21 73 0 29 -2 32 -16 20 -12 -10 -17 -10 -23 -1 -9 15 -37 6 -45
-13 -3 -8 -1 -17 4 -20 6 -4 10 -16 10 -28 0 -18 -2 -19 -10 -7 -6 10 -10 11
-10 3 0 -19 -24 -16 -52 6 -18 14 -25 30 -26 57 -2 53 -9 53 -17 0 -7 -43 -9
-45 -34 -40 -14 4 -34 11 -43 15 -9 5 -26 9 -37 9 -12 0 -21 6 -22 13 0 10 -2
10 -6 0 -2 -7 -11 -13 -19 -13 -12 0 -12 4 -2 20 14 22 3 50 -22 58 -9 3 -11
-2 -6 -23 6 -25 5 -27 -8 -16 -14 11 -16 11 -16 -6 0 -10 6 -25 13 -32 10 -11
9 -13 -3 -9 -8 3 -17 19 -20 37 -6 37 -24 46 -28 14 -5 -38 -25 -26 -20 11 2
19 0 32 -5 29 -12 -7 -70 -11 -81 -5 -4 2 -2 9 5 14 10 7 4 8 -16 3 -16 -3
-37 -13 -45 -21 -13 -13 -12 -15 7 -20 12 -3 24 -16 27 -28 5 -21 12 -23 69
-17 5 1 5 6 2 11 -4 6 -14 8 -23 6 -10 -3 -24 -1 -32 4 -13 8 -13 10 0 14 8 2
26 4 40 3 19 -2 26 -9 30 -31 3 -16 12 -32 20 -34 13 -5 13 -3 1 11 -18 22 4
23 25 2 14 -13 14 -15 0 -15 -9 0 -16 -4 -16 -10 0 -5 -15 -12 -34 -16 -19 -3
-43 -15 -53 -26 -10 -11 -31 -27 -46 -35 -26 -13 -30 -13 -41 3 -12 16 -14 14
-20 -12 -13 -54 -33 -74 -72 -74 -27 0 -41 -7 -56 -25 -17 -22 -25 -24 -61
-18 -23 3 -44 9 -47 12 -3 4 -16 6 -29 5 -14 -1 -31 4 -38 12 -16 16 -6 44 16
44 17 0 51 33 51 49 0 5 -7 11 -15 15 -8 3 -15 12 -15 20 0 8 -9 18 -20 21
-11 3 -20 12 -21 18 -1 17 -17 -24 -18 -45 -1 -12 4 -15 16 -11 11 4 14 3 9
-5 -4 -7 -2 -12 3 -12 6 0 11 5 11 10 0 6 5 10 10 10 6 0 10 -8 10 -19 0 -12
-9 -20 -25 -23 -14 -3 -25 -1 -25 3 0 5 -5 8 -12 6 -7 -1 -12 3 -13 10 -1 25
-13 22 -25 -8 -10 -24 -11 -36 -2 -50 10 -15 9 -19 -2 -19 -8 0 -16 -4 -18
-10 -7 -20 -31 9 -31 38 0 30 -1 30 -23 14 -21 -16 -35 -49 -40 -97 -1 -11 -7
-31 -12 -45 -10 -24 -11 -24 -11 -2 -1 12 -5 22 -11 22 -22 0 -40 45 -31 78 7
23 6 34 -5 43 -30 25 -36 48 -20 80 8 16 10 27 5 24 -21 -14 -6 12 26 45 19
19 35 42 35 51 0 10 5 21 12 25 8 5 9 -3 5 -29 -4 -25 -1 -39 9 -48 8 -6 14
-17 14 -24 0 -29 27 -22 40 10 7 19 16 32 20 30 3 -2 6 9 5 23 0 21 5 27 22
27 26 0 35 8 38 37 2 13 6 31 10 41 4 9 3 17 -3 17 -7 0 -7 11 0 33 6 17 13
38 14 45 2 7 14 17 26 22 18 7 19 9 6 9 -28 1 -20 91 8 91 22 0 16 17 -8 25
-13 4 -37 6 -54 5 -40 -2 -58 20 -49 60 4 19 2 36 -5 45 -13 16 -6 35 14 35 8
0 11 10 8 30 -3 24 0 31 19 39 31 11 49 4 43 -17 -3 -9 2 -6 10 8 8 14 15 41
16 61 0 20 8 47 19 60 10 13 24 42 32 64 16 47 25 55 61 55 18 0 29 -6 33 -20
3 -11 10 -20 15 -20 5 0 7 6 4 14 -3 8 0 18 7 22 13 8 81 22 87 18 2 -1 4 -17
4 -35z m163 -9 c3 -5 1 -10 -4 -10 -6 0 -11 5 -11 10 0 6 2 10 4 10 3 0 8 -4
11 -10z m182 -22 c-3 -8 -6 -5 -6 6 -1 11 2 17 5 13 3 -3 4 -12 1 -19z m-4234
-2 c6 -15 -11 -36 -29 -36 -6 0 -17 7 -25 16 -10 13 -10 17 2 25 21 13 46 11
52 -5z m-752 -12 c12 -14 11 -16 -5 -13 -11 2 -21 10 -24 17 -5 17 13 15 29
-4z m827 4 c17 -17 15 -48 -2 -48 -52 0 -66 52 -15 59 3 1 10 -4 17 -11z
m4202 -18 c0 -5 -4 -10 -10 -10 -5 0 -10 5 -10 10 0 6 5 10 10 10 6 0 10 -4
10 -10z m-4468 -26 c-13 -9 -30 -13 -40 -9 -15 6 -15 8 3 15 11 5 29 9 40 9
18 1 18 0 -3 -15z m93 -4 c0 -18 -43 -26 -57 -12 -16 16 2 33 30 30 16 -2 27
-9 27 -18z m94 -62 l-14 -43 -3 39 c-4 49 4 74 20 58 9 -9 8 -22 -3 -54z m266
53 c3 -5 1 -12 -5 -16 -5 -3 -10 1 -10 9 0 18 6 21 15 7z m3355 -21 c0 -14
-33 -21 -41 -8 -12 19 10 41 27 27 8 -6 14 -15 14 -19z m-3155 -10 c4 -6 1
-18 -6 -26 -10 -12 -14 -12 -20 -2 -5 7 -9 19 -9 26 0 15 26 16 35 2z m395
-18 c0 -26 -10 -33 -31 -21 -28 14 -24 39 6 39 18 0 25 -5 25 -18z m-1576 -52
c1 -22 -1 -37 -5 -33 -7 7 -13 54 -10 77 3 24 14 -7 15 -44z m1426 29 c0 -5
-4 -9 -10 -9 -5 0 -10 7 -10 16 0 8 5 12 10 9 6 -3 10 -10 10 -16z m-500 -19
c0 -5 -2 -10 -4 -10 -3 0 -8 5 -11 10 -3 6 -1 10 4 10 6 0 11 -4 11 -10z
m-449 -53 c-8 -8 -11 -7 -11 5 0 9 -5 18 -12 20 -6 2 -8 10 -4 17 6 9 12 7 23
-9 11 -16 12 -25 4 -33z m212 37 c42 -7 57 -21 32 -30 -14 -6 -14 -8 1 -19 22
-15 12 -60 -17 -75 -28 -15 -49 3 -49 42 0 21 6 31 20 35 11 3 17 9 15 14 -3
4 -12 6 -19 3 -7 -3 -16 1 -19 9 -4 10 -17 13 -42 11 -33 -2 -35 -1 -18 12 10
8 27 12 38 9 11 -3 37 -8 58 -11z m658 -26 c12 -30 13 -30 22 -10 11 25 44 39
59 24 5 -5 8 -33 6 -63 -3 -53 -4 -54 -33 -54 -25 0 -31 5 -36 30 -4 17 -7 24
-8 16 -4 -45 -70 -61 -72 -17 -5 94 34 141 62 74z m-312 -30 c-4 -77 -17 -110
-43 -106 -26 4 -36 55 -12 64 11 4 16 19 16 43 0 41 6 51 27 51 11 0 14 -13
12 -52z m-219 18 c0 -8 6 -17 13 -20 9 -5 9 -7 -1 -12 -9 -4 -10 -10 -3 -18 6
-7 8 -22 4 -34 -4 -17 -13 -22 -41 -22 l-35 0 6 50 c3 28 9 55 12 60 9 15 45
12 45 -4z m-239 -28 c-21 -38 -45 -43 -49 -10 -3 18 1 22 22 22 14 0 26 5 26
10 0 6 4 10 10 10 5 0 1 -15 -9 -32z m948 19 c12 -15 4 -115 -12 -134 -5 -7
-16 -13 -23 -13 -18 0 -30 50 -14 60 6 4 10 22 9 41 -5 52 15 75 40 46z m3241
3 c0 -5 -2 -10 -4 -10 -3 0 -8 5 -11 10 -3 6 -1 10 4 10 6 0 11 -4 11 -10z
m-3832 -61 c3 -40 -15 -63 -42 -53 -13 5 -16 15 -13 39 6 43 15 57 35 53 11
-2 18 -15 20 -39z m282 31 c0 -5 -5 -10 -11 -10 -5 0 -7 5 -4 10 3 6 8 10 11
10 2 0 4 -4 4 -10z m407 -4 c1 -1 -3 -21 -9 -44 -8 -31 -16 -42 -29 -42 -16 0
-19 7 -18 43 1 23 4 46 6 50 4 6 40 1 50 -7z m3160 -48 c-3 -7 -5 -2 -5 12 0
14 2 19 5 13 2 -7 2 -19 0 -25z m-3699 -19 c-1 -13 -11 -25 -20 -27 -21 -4
-22 6 -8 44 13 33 34 20 28 -17z m-598 27 c0 -16 -14 -36 -25 -36 -17 0 -28
17 -20 30 6 10 45 15 45 6z m640 -47 c0 -6 -4 -7 -10 -4 -5 3 -10 11 -10 16 0
6 5 7 10 4 6 -3 10 -11 10 -16z m285 1 c0 -8 -8 -16 -17 -18 -13 -2 -18 3 -18
18 0 15 5 20 18 18 9 -2 17 -10 17 -18z m-210 0 c-3 -5 -13 -10 -21 -10 -8 0
-14 5 -14 10 0 6 9 10 21 10 11 0 17 -4 14 -10z m3558 -20 c-7 -28 -13 -25
-13 6 0 14 4 23 9 20 5 -3 7 -15 4 -26z m84 -2 c-3 -8 -6 -5 -6 6 -1 11 2 17
5 13 3 -3 4 -12 1 -19z m-3139 -16 c2 -15 -2 -22 -13 -22 -12 0 -16 6 -12 20
3 10 0 21 -7 24 -6 3 -2 5 9 3 12 -1 21 -11 23 -25z m92 -22 c0 -5 -7 -10 -15
-10 -8 0 -15 5 -15 10 0 6 7 10 15 10 8 0 15 -4 15 -10z m2424 -37 c-12 -88
-30 -157 -44 -161 -10 -4 -11 4 -6 34 4 22 10 59 12 84 8 73 14 90 29 90 12 0
13 -10 9 -47z m-3554 8 c0 -25 -26 -34 -50 -18 -26 16 -25 25 3 30 42 8 47 7
47 -12z m298 -28 c4 -15 38 -17 47 -3 4 7 14 5 28 -5 12 -8 34 -15 49 -15 16
0 28 -4 28 -10 0 -16 -56 -12 -70 5 -10 12 -15 12 -36 -2 -22 -14 -26 -14 -49
1 -22 15 -27 15 -60 -1 -33 -16 -36 -16 -49 2 -8 12 -18 15 -27 10 -21 -14
-71 -6 -85 13 -13 16 -13 16 -14 -2 0 -11 -3 -17 -6 -13 -4 3 -4 13 0 22 5 14
22 16 123 13 82 -2 118 -7 121 -15z m3714 5 c-9 -9 -15 -9 -24 0 -9 9 -7 12
12 12 19 0 21 -3 12 -12z m912 -3 c-4 -8 -10 -15 -15 -15 -4 0 -6 7 -3 15 4 8
10 15 15 15 4 0 6 -7 3 -15z m-4259 -37 c-21 -16 -26 -27 -23 -50 4 -27 3 -28
-25 -24 -16 2 -31 7 -35 10 -6 7 45 56 59 56 5 0 9 5 9 11 0 16 34 40 38 28 2
-5 -8 -19 -23 -31z m-75 22 c0 -5 -4 -10 -10 -10 -5 0 -10 5 -10 10 0 6 5 10
10 10 6 0 10 -4 10 -10z m170 -24 c0 -33 -10 -57 -21 -50 -10 6 -12 57 -2 67
13 14 23 6 23 -17z m-239 4 c5 0 9 -4 9 -9 0 -14 -43 -7 -48 8 -3 10 0 12 12
8 10 -4 22 -7 27 -7z m-531 -32 c0 -5 13 -2 30 7 16 8 34 15 40 15 13 0 13
-47 0 -55 -16 -10 -12 -25 8 -25 16 -1 16 -1 -1 -11 -10 -6 -31 -8 -46 -4 -16
3 -31 3 -34 -2 -3 -4 -8 -39 -12 -78 -6 -58 -5 -68 6 -57 18 16 29 15 29 -3 0
-21 -52 -45 -58 -27 -6 18 -52 15 -52 -4 0 -11 -6 -14 -20 -9 -16 5 -20 2 -18
-17 2 -15 -4 -26 -20 -33 -12 -5 -25 -17 -27 -26 -3 -9 -15 -19 -25 -22 -32
-8 -25 31 13 66 l32 30 -32 9 c-38 10 -41 18 -13 43 22 20 26 45 9 62 -8 8 -5
17 12 35 20 19 35 23 87 24 43 1 67 6 73 15 10 16 2 26 -25 31 -10 1 -24 11
-30 20 -16 26 19 50 51 35 13 -6 23 -14 23 -19z m620 22 c0 -5 -7 -10 -15 -10
-8 0 -15 5 -15 10 0 6 7 10 15 10 8 0 15 -4 15 -10z m3510 6 c0 -11 -19 -15
-25 -6 -3 5 1 10 9 10 9 0 16 -2 16 -4z m67 -33 c-3 -10 -5 -4 -5 12 0 17 2
24 5 18 2 -7 2 -21 0 -30z m-3257 -27 c-8 -8 -10 -4 -6 19 6 41 8 44 13 16 3
-13 0 -28 -7 -35z m110 19 c0 -33 -12 -46 -25 -25 -8 12 5 60 16 60 5 0 9 -16
9 -35z m3583 -26 c-5 -5 -7 7 -4 29 5 34 6 35 9 8 2 -16 0 -32 -5 -37z m81 -3
c-5 -22 -8 -24 -20 -11 -9 9 -12 23 -8 39 5 22 8 24 20 11 9 -9 12 -23 8 -39z
m113 48 c-3 -3 -12 -4 -19 -1 -8 3 -5 6 6 6 11 1 17 -2 13 -5z m-1410 -19 c0
-8 -4 -15 -8 -15 -11 0 -20 16 -12 24 11 11 20 7 20 -9z m1356 9 c12 -4 13
-11 4 -35 -15 -39 -26 -37 -24 6 1 19 3 35 4 35 1 0 8 -3 16 -6z m-1143 -21
c0 -11 -3 -14 -8 -7 -4 6 -14 14 -22 17 -10 4 -8 6 8 6 15 1 22 -5 22 -16z
m393 10 c-7 -2 -19 -2 -25 0 -7 3 -2 5 12 5 14 0 19 -2 13 -5z m574 -15 c-3
-8 -6 -5 -6 6 -1 11 2 17 5 13 3 -3 4 -12 1 -19z m-1117 -2 c0 -8 -4 -18 -10
-21 -5 -3 -10 3 -10 14 0 12 5 21 10 21 6 0 10 -6 10 -14z m-2973 -2 c-3 -3
-12 -4 -19 -1 -8 3 -5 6 6 6 11 1 17 -2 13 -5z m197 -28 c-5 -13 -9 -14 -20
-5 -11 9 -12 15 -3 26 15 17 32 2 23 -21z m-537 13 c13 -13 7 -102 -9 -132 -6
-12 -5 -19 7 -23 8 -3 15 -15 15 -25 0 -10 5 -19 11 -19 5 0 7 -5 4 -11 -5 -7
-15 -5 -30 5 -13 9 -31 13 -39 10 -9 -3 -16 -1 -16 5 0 7 6 14 13 16 19 8 19
73 -1 77 -14 3 -14 5 2 20 13 13 15 26 10 53 -7 37 9 48 33 24z m3850 -36 c-3
-10 -5 -2 -5 17 0 19 2 27 5 18 2 -10 2 -26 0 -35z m63 12 c0 -19 -4 -35 -9
-35 -8 0 -9 19 -2 63 3 21 11 2 11 -28z m-2803 3 c-3 -8 -6 -5 -6 6 -1 11 2
17 5 13 3 -3 4 -12 1 -19z m2335 -3 c3 -14 1 -25 -3 -25 -5 0 -9 11 -9 25 0
14 2 25 4 25 2 0 6 -11 8 -25z m495 3 c-3 -8 -6 -5 -6 6 -1 11 2 17 5 13 3 -3
4 -12 1 -19z m-692 3 c3 -5 1 -12 -5 -16 -5 -3 -10 1 -10 9 0 18 6 21 15 7z
m738 -38 c-8 -20 -23 -4 -23 25 0 24 1 25 14 7 8 -11 12 -25 9 -32z m87 43 c0
-3 -4 -8 -10 -11 -5 -3 -10 -1 -10 4 0 6 5 11 10 11 6 0 10 -2 10 -4z m-30
-16 c0 -5 -5 -10 -11 -10 -5 0 -7 5 -4 10 3 6 8 10 11 10 2 0 4 -4 4 -10z
m-3445 -57 c-7 -62 -16 -73 -54 -73 -23 0 -23 2 -17 52 9 62 20 78 53 78 25 0
25 -1 18 -57z m3615 41 c0 -8 -5 -12 -10 -9 -6 4 -8 11 -5 16 9 14 15 11 15
-7z m390 -23 c0 -6 -4 -13 -10 -16 -5 -3 -10 1 -10 9 0 9 5 16 10 16 6 0 10
-4 10 -9z m-4201 -15 c9 -11 5 -15 -25 -20 -40 -8 -49 -4 -41 19 8 19 51 20
66 1z m-492 -23 c-15 -16 -17 -16 -17 -1 0 9 6 18 13 21 20 7 22 -2 4 -20z
m1468 -9 c22 -4 47 -7 55 -6 10 1 11 0 3 -4 -20 -9 -15 -42 7 -54 10 -6 17
-16 14 -23 -3 -8 7 -19 22 -25 15 -8 24 -18 21 -26 -6 -15 20 -26 61 -26 12 0
22 -4 22 -9 0 -11 51 -23 108 -25 27 0 41 -5 38 -12 -2 -6 1 -11 7 -11 79 2
93 -18 48 -68 -17 -20 -31 -41 -31 -47 0 -7 -26 -8 -82 -3 -75 6 -118 15 -74
15 10 0 16 5 14 12 -7 19 -34 32 -54 24 -19 -7 -19 -8 0 -22 19 -13 18 -14
-15 -14 -19 0 -70 9 -115 20 -44 10 -89 17 -100 14 -23 -5 -66 31 -89 76 -22
43 -30 129 -16 172 18 55 43 62 156 42z m1712 10 c-3 -3 -12 -4 -19 -1 -8 3
-5 6 6 6 11 1 17 -2 13 -5z m-64 -11 c-13 -2 -33 -2 -45 0 -13 2 -3 4 22 4 25
0 35 -2 23 -4z m-80 -10 c-7 -2 -21 -2 -30 0 -10 3 -4 5 12 5 17 0 24 -2 18
-5z m227 -33 c4 -7 3 -30 -3 -52 -6 -23 -13 -35 -17 -28 -10 15 -15 14 -42
-13 -13 -12 -33 -29 -45 -37 -11 -8 -24 -26 -28 -39 -6 -21 -5 -23 15 -18 21
5 22 4 8 -9 -8 -9 -21 -16 -29 -18 -8 -1 -26 -13 -40 -26 -45 -41 -137 -60
-315 -67 -148 -5 -164 -4 -207 15 -26 12 -47 26 -47 32 0 6 -8 10 -17 8 -12
-2 -18 4 -18 17 0 11 -6 19 -13 17 -11 -2 -13 10 -9 54 4 50 22 83 36 68 3 -3
-1 -9 -9 -14 -13 -8 -12 -10 3 -10 9 0 17 -4 17 -9 0 -5 15 -9 33 -9 18 0 52
-5 75 -12 24 -6 51 -9 60 -6 9 3 33 2 53 -3 40 -9 52 -5 61 20 6 16 41 19 54
6 13 -13 26 -7 20 8 -3 9 0 15 8 15 8 0 16 7 20 15 3 8 12 15 20 15 13 0 26
20 26 41 0 7 -27 8 -72 3 -126 -11 -63 11 82 30 74 10 142 19 150 21 31 8 163
-4 170 -15z m-1133 -26 c-3 -3 -12 -4 -19 -1 -8 3 -5 6 6 6 11 1 17 -2 13 -5z
m2043 -63 c0 -9 -74 -61 -86 -61 -4 0 -13 -8 -20 -17 -12 -16 -12 -16 -7 6 6
25 29 52 57 68 21 11 56 14 56 4z m-4649 -134 c-13 -13 -15 21 -3 50 6 15 8
13 10 -11 2 -16 -1 -33 -7 -39z m2505 23 c-3 -17 -17 -43 -31 -57 -24 -27 -25
-27 -39 -8 -19 24 -20 41 -4 51 8 5 6 10 -8 15 -16 6 -15 8 9 8 15 1 27 -4 27
-10 0 -5 4 -8 10 -4 5 3 7 12 3 20 -3 11 2 15 17 15 20 0 22 -4 16 -30z m1168
6 c-3 -8 -12 -17 -20 -20 -18 -7 -18 -1 2 18 19 20 25 20 18 2z m2081 -26 c0
-8 -8 -16 -17 -18 -13 -2 -18 3 -18 18 0 15 5 20 18 18 9 -2 17 -10 17 -18z
m99 -42 c-11 -17 -24 -6 -24 19 0 26 1 26 14 8 8 -11 12 -23 10 -27z m-1544
-3 c0 -8 -7 -15 -15 -15 -16 0 -20 12 -8 23 11 12 23 8 23 -8z m94 -5 c32 -12
35 -40 5 -40 -12 0 -28 -8 -35 -17 -12 -17 -13 -17 -20 0 -3 10 -1 29 6 43 15
28 12 27 44 14z m1416 -3 c0 -17 -72 -16 -77 1 -3 8 8 12 36 12 27 0 41 -4 41
-13z m-3393 -13 c-3 -3 -12 -4 -19 -1 -8 3 -5 6 6 6 11 1 17 -2 13 -5z m1663
-19 c0 -8 -8 -19 -18 -24 -16 -8 -18 -6 -16 12 1 12 3 23 3 25 4 10 31 -1 31
-13z m208 -8 c4 -22 -27 -35 -38 -16 -10 15 7 42 24 36 6 -2 12 -11 14 -20z
m-128 -12 c9 -10 9 -15 1 -15 -6 0 -11 5 -11 11 0 5 -4 7 -10 4 -5 -3 -10 -1
-10 4 0 16 16 13 30 -4z m47 -17 c-16 -10 -21 -2 -13 19 6 15 9 15 16 3 6 -9
5 -17 -3 -22z m253 22 c0 -5 -4 -10 -10 -10 -5 0 -10 5 -10 10 0 6 5 10 10 10
6 0 10 -4 10 -10z m-1083 -16 c-3 -3 -12 -4 -19 -1 -8 3 -5 6 6 6 11 1 17 -2
13 -5z m2461 -9 c-2 -6 -10 -10 -18 -10 -10 0 -14 -10 -13 -28 1 -22 -2 -27
-15 -25 -13 2 -17 12 -15 38 1 19 2 36 2 37 3 8 61 -4 59 -12z m-2543 -6 c-42
-9 -198 -10 -212 -1 -6 4 46 7 115 7 70 0 114 -3 97 -6z m783 -43 c3 -12 -1
-17 -10 -14 -7 3 -15 13 -16 22 -3 12 1 17 10 14 7 -3 15 -13 16 -22z m72 8
c0 -2 -7 -4 -15 -4 -8 0 -15 4 -15 10 0 5 7 7 15 4 8 -4 15 -8 15 -10z m-278
-44 c3 -16 3 -30 2 -30 -17 0 -34 17 -34 34 0 47 25 43 32 -4z m1955 8 c-3 -7
-5 -2 -5 12 0 14 2 19 5 13 2 -7 2 -19 0 -25z m3 -59 c0 -5 5 -7 10 -4 6 3 10
-3 10 -14 0 -25 -25 -28 -34 -5 -9 23 -7 34 4 34 6 0 10 -5 10 -11z m-6820
-108 c0 -6 -4 -12 -9 -16 -5 -3 -12 -19 -16 -35 -7 -32 -14 -37 -32 -19 -9 9
-6 20 10 45 21 32 47 45 47 25z m6781 -45 c5 -6 9 2 9 22 0 22 5 32 15 32 18
0 20 -16 3 -24 -7 -3 -4 -4 6 -3 10 1 21 -4 23 -10 3 -8 -4 -13 -15 -13 -11 0
-25 -7 -32 -15 -18 -22 -30 -8 -29 33 1 27 3 31 6 12 3 -14 9 -29 14 -34z
m-791 -132 c0 -14 -12 -19 -23 -8 -9 9 4 35 14 28 5 -3 9 -12 9 -20z m980
-120 c0 -14 -4 -23 -10 -19 -5 3 -10 15 -10 26 0 10 5 19 10 19 6 0 10 -12 10
-26z m-564 -70 c-3 -8 -13 -14 -23 -14 -17 1 -17 1 0 14 9 7 18 24 18 37 l2
24 4 -23 c3 -13 2 -30 -1 -38z m81 4 c-3 -8 -6 -5 -6 6 -1 11 2 17 5 13 3 -3
4 -12 1 -19z m-6335 -75 c3 -27 1 -52 -3 -57 -12 -13 -16 -6 -23 36 -3 21 -6
41 -7 45 -3 17 1 23 15 23 9 0 15 -16 18 -47z m5848 33 c0 -14 -21 -26 -43
-26 -7 0 -6 4 3 10 11 7 11 10 2 10 -7 0 -10 5 -7 10 9 15 45 12 45 -4z m716
-191 c-11 -20 -24 -34 -30 -32 -16 5 -19 57 -5 84 l13 24 20 -21 c20 -20 20
-20 2 -55z m-6876 -176 c0 -24 -23 -21 -28 4 -2 10 3 17 12 17 10 0 16 -9 16
-21z m190 -290 c0 -6 6 -9 14 -6 15 6 31 -19 18 -27 -10 -5 -52 12 -52 21 0 4
-10 9 -22 9 -78 4 -98 10 -98 27 0 19 15 23 25 7 6 -10 54 -3 69 10 9 9 46
-24 46 -41z m-160 21 c0 -15 -7 -20 -25 -20 -24 0 -24 1 -8 20 10 11 21 20 25
20 5 0 8 -9 8 -20z m-50 -40 c0 -5 -7 -10 -15 -10 -8 0 -15 5 -15 10 0 6 7 10
15 10 8 0 15 -4 15 -10z m7178 -29 c3 -8 -1 -12 -9 -9 -7 2 -15 10 -17 17 -3
8 1 12 9 9 7 -2 15 -10 17 -17z m-6922 -52 c10 -17 -13 -36 -27 -22 -12 12 -4
33 11 33 5 0 12 -5 16 -11z m64 -14 c0 -9 -9 -15 -25 -15 -26 0 -34 15 -12 23
23 10 37 7 37 -8z m6900 -55 c1 14 4 19 7 13 2 -7 14 -13 25 -13 11 0 18 -5
16 -12 -3 -7 -18 -13 -34 -13 -24 0 -29 5 -31 25 l-2 25 8 -25 9 -25 2 25z
m-6890 -30 c0 -5 -2 -10 -4 -10 -3 0 -8 5 -11 10 -3 6 -1 10 4 10 6 0 11 -4
11 -10z m6835 -20 c3 -5 1 -10 -4 -10 -6 0 -11 5 -11 10 0 6 2 10 4 10 3 0 8
-4 11 -10z m-620 -759 l40 -7 -42 -5 c-24 -2 -43 -1 -43 3 0 4 -6 5 -14 2 -8
-3 -17 -1 -21 5 -7 13 21 13 80 2z m-28 -67 c-3 -3 -12 -4 -19 -1 -8 3 -5 6 6
6 11 1 17 -2 13 -5z m-187 -264 c0 -5 -4 -10 -10 -10 -5 0 -10 5 -10 10 0 6 5
10 10 10 6 0 10 -4 10 -10z"/>
<path d="M4858 5177 c12 -7 19 -16 16 -20 -4 -4 0 -7 9 -7 10 0 17 3 17 6 0
11 -34 33 -50 33 -9 0 -6 -5 8 -12z"/>
<path d="M4907 5143 c-14 -4 -9 -11 24 -39 46 -38 66 -34 55 11 -5 18 -12 25
-21 21 -8 -3 -15 -1 -15 4 0 10 -12 11 -43 3z"/>
<path d="M4680 5020 c-15 -9 54 -34 73 -27 7 3 5 6 -5 6 -10 1 -18 5 -18 10 0
12 -35 20 -50 11z"/>
<path d="M4590 5000 c0 -5 7 -10 15 -10 8 0 15 5 15 10 0 6 -7 10 -15 10 -8 0
-15 -4 -15 -10z"/>
<path d="M4678 4903 c7 -3 16 -2 19 1 4 3 -2 6 -13 5 -11 0 -14 -3 -6 -6z"/>
<path d="M4717 4889 c7 -7 15 -10 18 -7 3 3 -2 9 -12 12 -14 6 -15 5 -6 -5z"/>
<path d="M4510 4730 c0 -5 -7 -10 -16 -10 -9 0 -14 -6 -11 -12 2 -7 18 -13 36
-13 17 0 36 -7 41 -15 8 -12 10 -11 10 8 0 12 -4 22 -10 22 -5 0 -10 7 -10 15
0 8 -9 15 -20 15 -11 0 -20 -4 -20 -10z"/>
<path d="M4418 4723 c12 -2 22 -9 22 -14 0 -5 6 -9 13 -9 8 0 14 7 14 15 0 11
-10 15 -36 14 -23 -1 -28 -3 -13 -6z"/>
<path d="M4670 4649 c0 -15 5 -19 19 -14 29 9 111 -35 112 -59 1 -17 2 -18 6
-3 2 9 9 17 14 17 21 0 7 20 -23 33 -40 18 -117 47 -123 47 -3 0 -5 -9 -5 -21z"/>
<path d="M4635 4650 c-3 -5 -1 -10 4 -10 6 0 11 5 11 10 0 6 -2 10 -4 10 -3 0
-8 -4 -11 -10z"/>
<path d="M4702 4619 c2 -7 10 -15 17 -17 8 -3 12 1 9 9 -2 7 -10 15 -17 17 -8
3 -12 -1 -9 -9z"/>
<path d="M4745 4580 c3 -5 13 -10 21 -10 8 0 12 5 9 10 -3 6 -13 10 -21 10 -8
0 -12 -4 -9 -10z"/>
<path d="M4840 4580 c0 -5 5 -10 10 -10 6 0 10 5 10 10 0 6 -4 10 -10 10 -5 0
-10 -4 -10 -10z"/>
<path d="M4820 4554 c0 -2 9 -8 20 -14 11 -6 20 -7 20 -2 0 6 -9 12 -20 15
-11 3 -20 3 -20 1z"/>
<path d="M4724 4516 c11 -9 27 -16 35 -15 14 0 14 1 1 6 -8 3 -24 10 -35 15
-20 9 -20 9 -1 -6z"/>
<path d="M4665 4510 c3 -5 14 -10 23 -10 15 0 15 2 2 10 -20 13 -33 13 -25 0z"/>
<path d="M2648 4573 c7 -3 16 -2 19 1 4 3 -2 6 -13 5 -11 0 -14 -3 -6 -6z"/>
<path d="M4160 4100 c0 -5 4 -10 9 -10 6 0 13 5 16 10 3 6 -1 10 -9 10 -9 0
-16 -4 -16 -10z"/>
<path d="M4400 4100 c0 -5 5 -10 11 -10 5 0 7 5 4 10 -3 6 -8 10 -11 10 -2 0
-4 -4 -4 -10z"/>
<path d="M2843 3410 c0 -30 2 -43 4 -27 2 15 2 39 0 55 -2 15 -4 2 -4 -28z"/>
<path d="M2880 3276 c0 -15 4 -25 9 -22 5 3 12 -4 16 -17 6 -19 8 -19 12 -5 2
10 -5 30 -16 44 l-21 27 0 -27z"/>
<path d="M931 4274 c0 -11 3 -14 6 -6 3 7 2 16 -1 19 -3 4 -6 -2 -5 -13z"/>
<path d="M4145 4243 c15 -15 73 -24 80 -13 3 6 0 10 -8 10 -8 0 -30 3 -48 6
-23 5 -31 3 -24 -3z"/>
<path d="M5600 3455 c0 -8 -6 -15 -12 -15 -9 0 -8 -3 2 -9 8 -6 18 -7 22 -5
12 7 10 44 -2 44 -5 0 -10 -7 -10 -15z"/>
<path d="M5278 3436 c-3 -13 -2 -30 2 -36 4 -7 10 0 13 17 3 15 2 32 -2 36 -5
5 -11 -3 -13 -17z"/>
<path d="M5557 3423 c-10 -10 -8 -33 2 -33 6 0 9 9 8 20 -1 23 -1 22 -10 13z"/>
<path d="M5240 3400 c0 -5 5 -10 10 -10 6 0 10 5 10 10 0 6 -4 10 -10 10 -5 0
-10 -4 -10 -10z"/>
<path d="M5373 3293 c9 -2 23 -2 30 0 6 3 -1 5 -18 5 -16 0 -22 -2 -12 -5z"/>
<path d="M5550 3229 c0 -19 -3 -44 -6 -56 -5 -17 -2 -23 9 -23 12 0 15 11 13
50 -3 57 -16 81 -16 29z"/>
<path d="M6616 3024 c2 -37 7 -71 11 -77 11 -18 23 19 23 74 0 53 -8 69 -36
69 -2 0 -1 -30 2 -66z"/>
<path d="M5297 3040 c-3 -12 -10 -19 -16 -15 -6 3 -11 1 -11 -4 0 -15 11 -13
34 4 14 11 17 18 9 26 -7 7 -12 4 -16 -11z"/>
<path d="M6673 3020 c0 -25 2 -35 4 -22 2 12 2 32 0 45 -2 12 -4 2 -4 -23z"/>
<path d="M6475 3017 c-8 -32 0 -46 17 -29 8 8 8 18 1 34 l-11 23 -7 -28z"/>
<path d="M5513 3014 c-3 -8 2 -23 11 -32 15 -15 16 -14 16 16 0 33 -16 43 -27
16z"/>
<path d="M6542 3013 c5 -25 28 -28 28 -4 0 12 -6 21 -16 21 -9 0 -14 -7 -12
-17z"/>
<path d="M5910 2999 c0 -5 5 -7 10 -4 6 3 10 8 10 11 0 2 -4 4 -10 4 -5 0 -10
-5 -10 -11z"/>
<path d="M6020 2978 c0 -19 2 -20 10 -8 13 19 13 30 0 30 -5 0 -10 -10 -10
-22z"/>
<path d="M5280 2975 c0 -8 5 -15 10 -15 6 0 10 7 10 15 0 8 -4 15 -10 15 -5 0
-10 -7 -10 -15z"/>
<path d="M6096 2963 c-8 -25 2 -73 15 -73 5 0 9 6 9 14 0 8 2 20 5 28 3 7 -1
22 -9 33 -13 18 -14 18 -20 -2z"/>
<path d="M5620 2959 c0 -5 5 -7 10 -4 6 3 10 8 10 11 0 2 -4 4 -10 4 -5 0 -10
-5 -10 -11z"/>
<path d="M5517 2914 c-9 -10 15 -54 30 -54 14 0 17 18 7 44 -6 16 -25 21 -37
10z"/>
<path d="M5618 2893 c-10 -2 -18 -13 -18 -23 0 -12 5 -17 14 -14 7 3 16 -2 19
-10 11 -28 23 -17 23 19 0 34 -4 37 -38 28z"/>
<path d="M5176 2823 c-6 -14 -5 -15 5 -6 7 7 10 15 7 18 -3 3 -9 -2 -12 -12z"/>
<path d="M6220 2824 c0 -8 5 -12 10 -9 6 3 10 10 10 16 0 5 -4 9 -10 9 -5 0
-10 -7 -10 -16z"/>
<path d="M6287 2791 c-4 -17 -3 -21 5 -13 5 5 8 16 6 23 -3 8 -7 3 -11 -10z"/>
<path d="M6930 2640 c-12 -8 -11 -10 8 -10 12 0 22 5 22 10 0 13 -11 13 -30 0z"/>
<path d="M6851 2484 c0 -11 3 -14 6 -6 3 7 2 16 -1 19 -3 4 -6 -2 -5 -13z"/>
<path d="M6975 2491 c-6 -11 9 -23 19 -14 9 9 7 23 -3 23 -6 0 -12 -4 -16 -9z"/>
<path d="M6816 2451 c-4 -7 -5 -15 -2 -18 9 -9 19 4 14 18 -4 11 -6 11 -12 0z"/>
<path d="M6368 2353 c7 -3 16 -2 19 1 4 3 -2 6 -13 5 -11 0 -14 -3 -6 -6z"/>
<path d="M6587 2224 c-11 -11 13 -34 35 -34 13 0 18 6 16 18 -3 17 -38 29 -51
16z"/>
<path d="M6810 2190 c0 -5 4 -10 9 -10 6 0 13 5 16 10 3 6 -1 10 -9 10 -9 0
-16 -4 -16 -10z"/>
<path d="M6860 2190 c0 -5 7 -10 16 -10 8 0 12 5 9 10 -3 6 -10 10 -16 10 -5
0 -9 -4 -9 -10z"/>
<path d="M6816 2161 c-6 -9 54 -35 62 -26 2 2 2 11 -1 20 -7 16 -52 21 -61 6z"/>
<path d="M6475 2100 c3 -5 10 -10 16 -10 5 0 9 5 9 10 0 6 -7 10 -16 10 -8 0
-12 -4 -9 -10z"/>
<path d="M1515 3010 c-3 -5 3 -10 15 -10 12 0 18 5 15 10 -3 6 -10 10 -15 10
-5 0 -12 -4 -15 -10z"/>
<path d="M3448 2723 c7 -3 16 -2 19 1 4 3 -2 6 -13 5 -11 0 -14 -3 -6 -6z"/>
<path d="M3428 2703 c7 -3 16 -2 19 1 4 3 -2 6 -13 5 -11 0 -14 -3 -6 -6z"/>
<path d="M2530 7491 c0 -5 7 -11 15 -15 9 -3 15 0 15 9 0 8 -7 15 -15 15 -8 0
-15 -4 -15 -9z"/>
<path d="M2628 7493 c6 -2 12 -11 12 -19 0 -16 35 -54 50 -54 18 0 60 -32 60
-45 0 -6 10 -17 23 -22 l22 -11 -27 -11 c-38 -14 -35 -24 5 -16 26 5 29 4 14
-5 -9 -6 -14 -16 -11 -22 5 -7 0 -9 -13 -6 -49 13 -52 -37 -4 -65 22 -13 27
-22 24 -41 -7 -37 13 -66 47 -66 22 0 28 -4 24 -15 -4 -8 -17 -15 -30 -15 -17
0 -25 -7 -30 -24 -3 -14 -3 -29 0 -35 4 -5 -6 -11 -20 -13 -40 -5 -53 -31 -32
-65 22 -36 38 -40 38 -10 0 44 10 57 45 57 22 0 35 6 40 18 6 16 7 16 19 0 15
-20 87 -34 113 -23 10 5 26 7 37 6 25 -3 70 8 62 16 -3 4 1 18 10 32 17 24 16
25 -21 56 -29 25 -38 40 -41 69 -2 37 21 76 46 76 6 0 10 16 10 36 0 29 3 35
16 30 45 -17 64 -18 64 -2 0 9 5 16 10 16 14 0 11 133 -3 142 -7 4 -7 12 2 22
12 15 -14 16 -280 15 -162 0 -288 -3 -281 -6z m509 -63 c-1 -11 -5 -20 -9 -20
-4 0 -8 2 -8 4 0 2 -3 11 -6 20 -4 10 -1 16 9 16 10 0 15 -8 14 -20z m20 -77
c-4 -3 -2 -12 5 -20 12 -15 5 -28 -11 -18 -15 8 -14 45 1 45 6 0 8 -3 5 -7z
m-179 -298 c-2 -19 0 -35 5 -35 4 0 5 -4 2 -10 -11 -17 -23 -11 -27 13 -2 14
-11 23 -25 25 -13 2 -23 10 -23 19 0 12 3 13 15 3 8 -6 18 -9 24 -6 5 3 12 0
14 -6 3 -7 6 -3 6 10 1 12 4 22 7 22 3 0 4 -16 2 -35z m92 -21 c0 -8 -4 -14
-10 -14 -5 0 -10 9 -10 21 0 11 5 17 10 14 6 -3 10 -13 10 -21z"/>
<path d="M4480 7489 c0 -6 7 -9 15 -5 8 3 40 -3 72 -14 32 -10 58 -18 58 -17
0 1 6 12 13 25 l12 22 -85 0 c-55 0 -85 -4 -85 -11z"/>
<path d="M4766 7484 c-9 -23 0 -29 19 -14 10 8 15 9 15 1 0 -15 37 -14 42 0 3
8 16 10 41 5 32 -6 37 -11 37 -34 0 -19 3 -23 9 -13 15 24 34 1 26 -33 -4 -17
-7 -46 -6 -64 0 -20 -8 -41 -20 -53 -10 -10 -19 -30 -19 -44 0 -32 38 -85 61
-85 12 0 16 -6 12 -19 -3 -12 9 -41 32 -75 31 -47 40 -54 55 -46 10 5 21 17
24 26 5 12 10 14 17 7 7 -7 7 -16 -1 -30 -10 -16 -9 -27 8 -62 12 -23 19 -48
16 -56 -3 -7 3 -18 14 -24 24 -13 36 -3 17 15 -16 16 -8 54 11 54 14 0 19 15
29 92 3 26 10 50 16 53 13 9 -23 54 -43 55 -34 0 -18 18 17 18 27 0 35 -4 35
-18 0 -31 11 -50 31 -50 41 0 47 71 8 106 -23 20 -24 34 -4 34 8 0 22 -11 31
-24 17 -27 37 -25 67 6 16 16 17 21 5 35 -43 54 -67 73 -96 79 -18 4 -32 11
-32 16 0 5 -9 7 -19 3 -11 -3 -22 -1 -26 5 -10 16 -33 12 -57 -12 -13 -13 -27
-23 -33 -23 -6 0 -10 -28 -10 -65 0 -50 4 -68 18 -78 24 -18 21 -34 -5 -30
-15 2 -24 11 -26 27 -3 19 -8 22 -30 18 -15 -3 -36 -9 -46 -13 -16 -6 -18 -4
-13 11 4 9 3 23 -3 30 -6 7 -9 21 -7 32 3 21 67 83 86 83 16 0 13 20 -4 26
-19 8 -19 15 -1 39 14 19 15 19 35 1 20 -18 22 -18 41 -1 11 10 20 22 20 27 0
15 27 38 44 38 9 0 16 -8 16 -18 0 -29 30 -82 46 -82 20 0 53 57 46 82 -4 16
-1 19 19 16 13 -1 29 -10 36 -18 6 -8 17 -15 25 -16 7 0 21 -2 31 -2 11 -1 17
-10 17 -26 0 -17 7 -27 23 -32 12 -4 25 -11 29 -17 4 -7 16 -4 33 7 22 15 29
16 36 5 6 -11 12 -10 27 5 15 13 22 14 28 5 4 -7 3 -10 -3 -6 -6 4 -13 1 -16
-7 -3 -7 -20 -17 -39 -21 -18 -4 -35 -9 -38 -10 -3 -1 -17 -5 -32 -9 -16 -5
-28 -12 -28 -18 0 -5 4 -7 8 -4 5 3 31 8 58 12 27 3 54 11 61 16 7 5 17 7 22
4 5 -4 12 -2 15 2 7 12 86 14 86 2 0 -5 -13 -25 -30 -43 -30 -35 -30 -47 1
-47 15 0 18 -6 13 -32 -3 -18 -10 -45 -16 -59 -6 -18 -6 -39 1 -65 8 -30 8
-41 -4 -54 -11 -12 -12 -19 -3 -28 9 -9 7 -16 -6 -31 -17 -19 -17 -20 2 -30
17 -9 20 -20 19 -70 -1 -45 3 -64 17 -80 10 -11 15 -25 11 -31 -4 -6 0 -19 9
-29 15 -16 14 -19 -7 -38 -12 -11 -30 -23 -40 -26 -28 -10 -19 -61 12 -65 46
-7 68 6 74 40 2 18 11 48 18 67 13 32 13 35 -13 54 l-27 20 22 17 c18 15 21
27 20 79 -2 58 0 63 31 91 31 29 33 34 32 96 -1 58 1 67 19 75 18 7 18 8 2 8
-10 1 -16 5 -12 10 3 5 1 12 -5 16 -18 11 -11 23 21 34 40 14 48 13 29 -2 -20
-16 -24 -43 -6 -50 10 -4 14 -21 14 -61 -1 -30 3 -61 9 -68 5 -7 16 -32 23
-56 15 -49 26 -57 92 -66 26 -4 50 -11 53 -17 9 -14 25 -11 25 6 0 8 5 15 10
15 6 0 10 -4 10 -8 0 -5 18 -14 40 -21 22 -6 40 -13 40 -15 0 -17 -25 -66 -33
-66 -7 0 -24 14 -39 32 l-27 33 -35 -19 c-40 -22 -57 -60 -49 -111 4 -24 1
-41 -10 -53 -8 -9 -17 -26 -19 -37 -2 -12 -13 -21 -26 -23 -17 -3 -22 -8 -18
-19 4 -9 1 -22 -5 -30 -10 -11 -8 -15 9 -20 23 -5 32 -43 11 -43 -19 0 -79 73
-79 96 0 37 -18 74 -36 74 -13 0 -15 -6 -11 -29 4 -19 1 -33 -7 -40 -8 -7 -12
-20 -9 -30 2 -9 -2 -23 -10 -30 -19 -15 -11 -49 14 -56 10 -4 19 -10 19 -15 0
-6 -10 -6 -24 0 -58 22 -98 -12 -93 -80 2 -27 5 -31 26 -27 33 6 51 -1 51 -22
1 -17 24 -53 34 -52 15 2 16 0 5 -20 -9 -17 -8 -24 2 -31 12 -8 11 -9 0 -6 -8
2 -20 20 -26 39 -13 39 -45 50 -71 25 -8 -9 -22 -16 -30 -16 -8 0 -14 -7 -14
-15 0 -8 6 -15 14 -15 7 0 16 -9 19 -21 5 -17 3 -18 -10 -7 -14 11 -16 10 -11
-13 4 -21 1 -25 -16 -25 -12 1 -26 8 -32 16 -16 20 -64 -2 -64 -29 0 -11 -7
-24 -16 -29 -23 -13 -11 -78 17 -92 31 -17 42 -2 35 47 -5 39 -4 44 12 41 9
-2 18 -13 20 -26 4 -27 22 -28 55 -2 14 11 30 20 36 20 16 0 31 -35 31 -70 0
-24 4 -31 14 -27 8 3 20 -1 26 -9 14 -16 40 -19 40 -5 0 6 -4 12 -8 15 -14 8
-12 67 1 71 7 2 29 7 51 10 47 7 68 -8 56 -39 -9 -24 5 -60 21 -51 14 9 10
-17 -5 -37 -7 -10 -23 -18 -35 -18 -18 0 -20 4 -15 25 4 15 2 25 -5 25 -6 0
-14 -18 -17 -40 -7 -44 -22 -50 -69 -28 -30 13 -44 4 -29 -20 8 -13 7 -24 -6
-44 -17 -29 -30 -28 -30 2 0 10 -13 23 -30 30 -58 24 -120 -23 -141 -107 -6
-23 -15 -40 -20 -37 -5 3 -9 -2 -9 -10 0 -9 -9 -16 -20 -16 -14 0 -22 -10 -28
-32 -11 -41 -7 -52 24 -67 13 -6 28 -20 32 -32 8 -20 9 -20 25 -4 15 15 18 15
23 1 7 -19 -26 -136 -38 -136 -4 0 -8 -9 -8 -20 0 -11 2 -20 4 -20 49 0 238
165 229 200 -6 24 25 59 36 41 5 -7 22 -13 39 -13 27 -1 32 -6 39 -37 13 -55
45 -54 72 1 12 25 18 52 15 65 -4 16 2 32 20 54 33 39 36 107 6 134 -26 24
-26 45 1 45 19 0 21 4 16 30 -6 27 -4 30 18 30 13 0 35 -5 49 -11 16 -8 33 -8
52 -2 25 8 30 17 40 66 11 55 10 56 -19 88 -32 35 -22 51 15 25 12 -9 30 -16
40 -16 16 0 17 10 16 93 -1 152 -3 145 40 152 20 3 55 15 77 25 22 11 50 20
61 20 20 0 21 -5 20 -69 0 -38 -4 -67 -8 -65 -4 2 -9 0 -13 -6 -3 -5 -2 -10 3
-10 5 0 13 -21 17 -47 5 -38 4 -48 -10 -56 -14 -8 -15 -11 -4 -18 10 -6 14
-30 14 -78 0 -38 3 -73 8 -77 4 -4 7 6 7 23 0 26 5 31 40 43 22 7 40 14 40 16
0 1 -4 14 -9 28 -8 18 -6 28 5 37 8 6 25 33 38 59 28 55 21 70 -30 70 -38 0
-56 -19 -53 -57 4 -47 0 -73 -12 -73 -11 0 -12 87 -2 198 5 57 7 61 20 42 16
-23 40 -25 66 -6 21 16 22 30 1 51 -13 13 -14 18 -3 31 7 8 19 12 28 9 12 -5
12 -2 -2 13 -10 11 -15 26 -11 36 5 13 2 15 -12 9 -18 -6 -18 -6 -1 14 12 14
15 23 8 28 -17 10 -13 28 4 21 11 -4 15 2 15 24 0 17 -5 30 -11 30 -6 0 -9 -7
-5 -15 8 -21 -8 -19 -29 5 -16 17 -16 20 -2 20 20 0 46 36 42 58 -2 9 -4 22
-4 29 -1 7 -19 18 -42 24 -27 9 -44 21 -50 37 -5 13 -15 22 -22 19 -11 -3 -14
-23 -17 -120 -1 -15 -6 -25 -11 -22 -5 4 -9 1 -9 -4 0 -14 -37 -14 -45 -2 -3
6 1 16 8 23 15 13 12 44 -6 66 -8 10 -7 16 3 22 59 34 57 36 -35 48 -89 12
-104 16 -92 29 9 9 236 -17 243 -28 3 -5 63 -6 134 -3 110 5 130 3 130 -9 0
-18 21 -27 58 -26 46 1 113 61 224 200 59 74 111 139 116 145 5 6 13 20 16 32
7 21 4 22 -47 22 -29 0 -146 12 -258 26 -112 14 -217 27 -234 29 -38 4 -113
15 -144 21 -22 5 -23 8 -19 78 3 48 0 80 -8 90 -16 22 -187 46 -212 30 -23
-15 -35 -70 -28 -127 l5 -48 -57 6 c-31 4 -72 13 -90 22 l-34 15 7 74 7 74
-670 0 c-612 0 -670 -1 -676 -16z m384 -14 c0 -5 -2 -10 -4 -10 -3 0 -8 5 -11
10 -3 6 -1 10 4 10 6 0 11 -4 11 -10z m1352 -85 c0 -30 1 -60 2 -66 1 -15 -31
-36 -40 -26 -4 4 -1 19 7 33 8 15 13 46 12 70 -1 24 3 44 8 44 5 0 10 -25 11
-55z m-498 19 c12 -5 13 -9 4 -24 -7 -10 -15 -17 -19 -14 -4 2 -10 0 -14 -6
-3 -5 1 -10 9 -10 13 0 13 -6 -1 -47 -24 -70 -53 -86 -53 -29 0 19 -4 38 -10
41 -15 9 -12 25 5 25 9 0 20 11 25 25 6 16 14 23 25 19 11 -5 14 -2 9 10 -7
17 -4 19 20 10z m-124 -63 c-1 -13 -3 -13 -15 3 -19 26 -19 42 0 26 8 -7 15
-20 15 -29z m587 -98 c-2 -37 -3 -38 -37 -36 -123 7 -170 15 -170 29 0 20 27
29 45 14 11 -9 27 -9 69 0 31 6 58 16 61 21 15 24 33 7 32 -28z m-691 -38 c-3
-8 -10 -15 -15 -15 -7 0 -6 10 1 26 12 26 25 16 14 -11z m-31 -85 c12 0 28 7
35 15 22 27 38 18 31 -17 -5 -24 -12 -33 -26 -33 -11 0 -21 -8 -23 -18 -4 -21
-32 -23 -32 -2 0 8 -4 15 -10 15 -5 0 -9 17 -9 38 1 20 3 29 6 20 3 -11 14
-18 28 -18z m615 -20 c0 -5 -4 -10 -10 -10 -5 0 -10 5 -10 10 0 6 5 10 10 10
6 0 10 -4 10 -10z m-1200 -70 c0 -5 -4 -10 -10 -10 -5 0 -10 5 -10 10 0 6 5
10 10 10 6 0 10 -4 10 -10z m1180 -278 c0 -13 -28 -42 -40 -42 -5 0 -7 7 -4
15 8 20 -13 45 -37 45 -22 0 -23 9 -8 43 l11 25 39 -38 c21 -21 39 -42 39 -48z
m-270 -47 c0 -8 -4 -15 -9 -15 -13 0 -22 16 -14 24 11 11 23 6 23 -9z m-190
-306 c0 -6 -7 -17 -15 -25 -8 -9 -15 -11 -15 -5 0 6 -10 11 -22 11 -23 0 -23
1 2 14 31 17 50 19 50 5z m17 -91 c-3 -8 -6 -5 -6 6 -1 11 2 17 5 13 3 -3 4
-12 1 -19z m213 -122 c0 -3 -4 -8 -10 -11 -5 -3 -10 -1 -10 4 0 6 5 11 10 11
6 0 10 -2 10 -4z m-400 -31 c0 -8 -4 -15 -9 -15 -5 0 -11 7 -15 15 -3 9 0 15
9 15 8 0 15 -7 15 -15z m350 5 c12 -8 9 -10 -12 -10 -16 0 -28 5 -28 10 0 13
20 13 40 0z m-215 -380 c3 -5 1 -10 -4 -10 -6 0 -11 5 -11 10 0 6 2 10 4 10 3
0 8 -4 11 -10z"/>
<path d="M5950 7314 c0 -8 5 -12 10 -9 6 3 10 10 10 16 0 5 -4 9 -10 9 -5 0
-10 -7 -10 -16z"/>
<path d="M7065 7490 c72 -12 125 -12 125 0 0 6 -35 9 -87 9 -81 -2 -84 -2 -38
-9z"/>
<path d="M7420 7491 c8 -5 30 -12 48 -16 25 -5 32 -3 32 9 0 12 -11 16 -47 16
-32 -1 -43 -3 -33 -9z"/>
<path d="M6201 7467 c-14 -17 3 -41 23 -34 9 4 16 13 16 21 0 19 -26 28 -39
13z"/>
<path d="M7420 7460 c36 -11 50 -11 50 0 0 6 -17 10 -37 9 -34 -1 -35 -2 -13
-9z"/>
<path d="M4887 7439 c-4 -16 -11 -19 -34 -13 -22 5 -26 4 -16 -6 14 -16 59 -6
66 15 4 8 2 17 -2 20 -5 2 -11 -4 -14 -16z"/>
<path d="M2560 7430 c0 -19 3 -21 12 -12 9 9 9 15 0 24 -9 9 -12 7 -12 -12z"/>
<path d="M4684 7435 c-3 -8 -14 -17 -25 -20 -17 -6 -28 -35 -14 -35 14 0 65
45 65 57 0 18 -19 17 -26 -2z"/>
<path d="M1885 7428 c-22 -6 -42 -14 -45 -17 -3 -3 -33 -19 -67 -35 -124 -58
-238 -208 -257 -337 -8 -54 13 -159 42 -211 10 -18 24 -43 31 -56 12 -22 14
-22 30 -8 10 9 27 16 39 16 12 0 22 5 22 10 0 15 77 12 83 -2 4 -8 8 -4 12 10
9 27 25 29 25 2 0 -11 -4 -20 -10 -20 -5 0 -10 -5 -10 -11 0 -5 5 -7 10 -4 17
10 40 -15 41 -44 1 -21 2 -22 6 -6 3 11 14 26 25 33 12 9 17 20 13 32 -4 13 1
22 15 30 22 12 25 8 33 -40 3 -15 5 -8 6 18 0 25 6 42 14 43 6 1 17 2 22 4 6
1 16 3 23 3 6 1 12 10 12 20 0 13 7 18 23 17 51 -4 64 27 24 57 -41 31 -29
108 17 108 9 0 16 -4 16 -10 0 -5 10 -10 23 -9 21 0 21 1 2 9 -15 6 -16 9 -4
9 12 1 16 13 16 60 0 52 -3 60 -21 66 -13 4 -16 8 -8 12 6 2 12 22 12 44 0 21
5 39 10 39 6 0 10 8 10 18 0 11 10 24 23 30 15 7 17 11 6 11 -19 1 -43 46 -43
81 -1 19 -8 26 -31 31 -46 10 -145 8 -190 -3z"/>
<path d="M7433 7433 c9 -2 23 -2 30 0 6 3 -1 5 -18 5 -16 0 -22 -2 -12 -5z"/>
<path d="M4348 7389 c-23 -39 -23 -72 0 -92 15 -14 23 -15 50 -5 29 11 32 17
32 53 0 34 -5 43 -29 58 -16 9 -31 17 -33 17 -1 0 -11 -14 -20 -31z"/>
<path d="M7440 7410 c0 -5 4 -10 9 -10 6 0 13 5 16 10 3 6 -1 10 -9 10 -9 0
-16 -4 -16 -10z"/>
<path d="M4467 7361 c-2 -10 -1 -25 4 -32 7 -12 11 -11 25 3 18 18 13 48 -10
48 -7 0 -16 -9 -19 -19z"/>
<path d="M3110 7277 c0 -7 8 -13 19 -13 11 0 17 5 14 13 -3 7 -11 13 -19 13
-8 0 -14 -6 -14 -13z"/>
<path d="M2650 7212 c0 -8 52 -42 64 -42 3 0 6 7 6 15 0 8 -6 12 -13 9 -8 -3
-20 2 -27 11 -13 16 -30 20 -30 7z"/>
<path d="M3090 7201 c0 -5 -3 -18 -7 -28 -6 -17 -6 -17 10 -1 19 18 22 38 7
38 -5 0 -10 -4 -10 -9z"/>
<path d="M4753 7104 c9 -11 17 -25 17 -30 0 -13 72 -74 89 -75 9 -1 23 -1 32
0 9 1 22 -5 29 -14 15 -18 30 -11 29 13 0 26 -117 105 -153 104 -17 0 -37 4
-46 11 -10 8 -9 5 3 -9z"/>
<path d="M4700 7069 c0 -6 7 -17 15 -25 13 -14 16 -14 21 1 4 10 1 21 -7 26
-19 12 -29 11 -29 -2z"/>
<path d="M5247 7036 c-31 -40 -27 -76 8 -76 35 0 55 26 55 71 0 32 -4 39 -19
39 -10 0 -30 -15 -44 -34z"/>
<path d="M5617 7044 c-9 -10 2 -24 18 -24 9 0 12 6 9 15 -6 16 -17 19 -27 9z"/>
<path d="M2397 7024 c-4 -4 -7 -14 -7 -23 0 -11 3 -12 11 -4 6 6 10 16 7 23
-2 6 -7 8 -11 4z"/>
<path d="M4730 7014 c0 -10 31 -36 37 -31 3 3 -2 13 -10 22 -16 15 -27 19 -27
9z"/>
<path d="M3885 6970 c-10 -11 -16 -23 -13 -26 7 -6 48 27 48 38 0 14 -17 8
-35 -12z"/>
<path d="M5594 6955 c-7 -41 8 -85 30 -85 22 0 30 19 15 36 -7 9 -13 29 -13
46 -1 45 -23 47 -32 3z"/>
<path d="M4687 6962 c1 -8 3 -16 3 -18 0 -2 7 -4 15 -4 8 0 15 5 15 10 0 6 -6
10 -14 10 -8 0 -16 3 -19 8 -2 4 -2 1 0 -6z"/>
<path d="M2450 6952 c0 -14 -5 -22 -12 -20 -15 5 -39 -37 -38 -66 2 -104 27
-128 48 -49 8 26 18 58 23 71 12 32 11 45 -6 68 -14 18 -14 18 -15 -4z m0
-102 c0 -10 -4 -22 -10 -25 -6 -4 -10 7 -10 25 0 18 4 29 10 25 6 -3 10 -15
10 -25z"/>
<path d="M4640 6960 c0 -5 5 -10 10 -10 6 0 10 5 10 10 0 6 -4 10 -10 10 -5 0
-10 -4 -10 -10z"/>
<path d="M2340 6950 c0 -5 5 -10 11 -10 5 0 7 5 4 10 -3 6 -8 10 -11 10 -2 0
-4 -4 -4 -10z"/>
<path d="M3780 6939 c0 -6 35 -19 53 -19 5 0 7 5 5 12 -4 12 -58 19 -58 7z"/>
<path d="M4169 6914 c-43 -65 -52 -108 -46 -216 5 -89 9 -108 45 -181 57 -118
133 -186 262 -234 82 -31 305 -16 351 24 8 7 22 13 30 13 20 0 69 23 69 33 0
4 6 7 13 7 22 0 99 87 94 107 -3 10 -9 29 -12 42 -5 16 -4 21 4 17 6 -4 11
-16 11 -27 0 -21 15 -26 26 -8 3 6 1 16 -5 22 -18 18 -13 29 12 22 21 -7 21
-6 4 11 -15 16 -19 17 -26 5 -5 -8 -16 -11 -25 -8 -9 4 -15 3 -15 -1 6 -41 -1
-47 -53 -47 -45 0 -54 3 -63 23 -5 12 -18 22 -27 22 -10 0 -18 5 -18 11 0 5 5
7 12 3 7 -5 8 -3 4 5 -5 7 0 21 11 33 10 12 12 18 4 13 -10 -6 -12 -2 -6 14 4
13 2 21 -5 21 -6 0 -13 -13 -16 -30 -7 -34 -7 -34 -51 -18 -37 13 -44 28 -13
28 13 0 20 7 20 19 0 11 6 22 13 25 10 5 10 7 0 12 -7 3 -13 23 -13 45 0 32
-3 39 -20 39 -11 0 -20 5 -20 10 0 6 -18 10 -40 10 -42 0 -55 20 -24 38 12 7
14 17 9 45 -10 50 -25 57 -25 13 0 -35 -1 -36 -40 -36 -34 0 -40 -3 -40 -21 0
-18 -5 -20 -42 -17 -35 2 -42 6 -40 21 2 9 -2 17 -8 17 -5 0 -10 -3 -10 -7 0
-14 -74 -5 -105 11 -20 10 -24 16 -12 16 24 0 22 21 -3 27 -11 3 -20 14 -20
25 0 15 -5 18 -19 13 -11 -3 -28 -8 -38 -10 -10 -2 -25 -6 -34 -10 -12 -5 -19
1 -26 21 l-9 26 -25 -38z m453 -184 c-2 -17 -10 -30 -18 -30 -9 0 -14 11 -14
30 0 22 5 30 18 30 15 0 18 -6 14 -30z m148 -275 c-8 -15 -22 -25 -34 -25 -20
1 -20 1 2 13 12 7 20 16 16 20 -4 3 -4 14 0 23 5 13 9 15 18 6 9 -9 8 -18 -2
-37z m135 -5 c-3 -5 -10 -10 -16 -10 -5 0 -9 5 -9 10 0 6 7 10 16 10 8 0 12
-4 9 -10z"/>
<path d="M4800 6937 c0 -8 11 -28 24 -44 13 -15 26 -37 28 -48 4 -18 6 -18 12
-3 5 12 -3 32 -28 64 -20 26 -36 40 -36 31z"/>
<path d="M5887 6924 c-12 -12 15 -64 34 -64 25 0 24 21 -1 48 -23 24 -24 25
-33 16z"/>
<path d="M2685 6890 c-3 -5 -1 -20 5 -35 7 -19 7 -31 0 -41 -15 -17 50 -91 70
-79 18 11 8 110 -14 134 -20 22 -53 33 -61 21z"/>
<path d="M4720 6875 c0 -8 4 -15 10 -15 5 0 7 7 4 15 -4 8 -8 15 -10 15 -2 0
-4 -7 -4 -15z"/>
<path d="M2278 6858 c-16 -20 -23 -38 -15 -38 2 0 13 14 25 30 26 34 16 41
-10 8z"/>
<path d="M5880 6826 c0 -7 -9 -16 -20 -19 -27 -7 -26 -43 3 -61 16 -11 32 -13
52 -8 38 10 45 48 15 80 -23 25 -50 29 -50 8z"/>
<path d="M4720 6805 c0 -18 5 -25 20 -25 11 0 20 -4 20 -9 0 -5 9 -11 19 -14
22 -5 33 19 24 53 -4 16 -14 20 -44 20 -35 0 -39 -3 -39 -25z"/>
<path d="M5500 6765 c0 -18 7 -38 15 -45 22 -18 57 15 53 49 -2 21 -9 26 -35
27 -31 2 -33 -1 -33 -31z"/>
<path d="M1660 6739 c7 -11 14 -18 17 -15 8 8 -5 36 -17 36 -7 0 -7 -6 0 -21z"/>
<path d="M1620 6730 c0 -5 5 -10 10 -10 6 0 10 5 10 10 0 6 -4 10 -10 10 -5 0
-10 -4 -10 -10z"/>
<path d="M1703 6720 c-3 -11 -12 -20 -19 -20 -39 0 24 -71 89 -100 46 -21 84
-28 57 -10 -9 6 -11 13 -5 18 6 4 11 19 13 35 2 21 -3 30 -23 39 -14 6 -25 14
-25 18 0 4 -11 5 -24 3 -17 -4 -25 0 -29 16 -7 27 -27 27 -34 1z m32 -40 c3
-5 -3 -10 -14 -10 -12 0 -21 5 -21 10 0 6 6 10 14 10 8 0 18 -4 21 -10z"/>
<path d="M5470 6654 c-19 -48 -14 -54 44 -54 36 0 58 5 66 16 11 13 10 16 -8
21 -13 3 -22 13 -22 24 0 15 -7 19 -35 19 -29 0 -37 -5 -45 -26z"/>
<path d="M5043 6608 c-1 -27 1 -29 7 -13 11 27 12 45 2 45 -5 0 -9 -15 -9 -32z"/>
<path d="M5638 6549 c-16 -11 -28 -29 -28 -40 0 -22 41 -45 63 -36 16 6 29 59
21 82 -8 20 -23 18 -56 -6z"/>
<path d="M5518 6544 c-36 -19 -38 -54 -4 -54 29 0 56 24 56 51 0 23 -15 24
-52 3z"/>
<path d="M5439 6451 c-21 -17 -21 -18 -4 -47 18 -29 54 -63 66 -64 4 0 9 12
12 28 3 15 9 35 12 45 5 12 2 17 -9 17 -9 0 -19 6 -22 14 -9 23 -31 26 -55 7z"/>
<path d="M6340 6368 c-24 -26 -25 -32 -6 -47 10 -9 12 -21 5 -49 -13 -55 -11
-62 15 -72 13 -5 27 -13 30 -18 9 -16 46 -2 62 24 12 17 13 27 5 43 -6 12 -16
30 -22 42 -5 11 -7 33 -4 49 5 22 2 31 -14 39 -30 16 -48 13 -71 -11z"/>
<path d="M7440 6370 c0 -5 -10 -10 -22 -11 -22 0 -22 -1 -3 -8 11 -5 23 -4 26
1 3 5 17 4 33 -2 24 -9 27 -8 22 6 -3 8 -6 18 -6 20 0 2 -11 4 -25 4 -14 0
-25 -4 -25 -10z"/>
<path d="M7468 6273 c-19 -5 -25 -23 -9 -23 5 0 16 -3 25 -6 12 -4 16 0 16 15
0 21 -2 22 -32 14z"/>
<path d="M7410 6260 c0 -5 7 -10 15 -10 8 0 15 5 15 10 0 6 -7 10 -15 10 -8 0
-15 -4 -15 -10z"/>
<path d="M5527 6243 c13 -34 40 -73 46 -66 13 13 7 43 -13 63 -25 25 -42 26
-33 3z"/>
<path d="M5680 6234 c0 -8 5 -12 10 -9 6 4 8 11 5 16 -9 14 -15 11 -15 -7z"/>
<path d="M4276 6138 c-14 -16 -19 -35 -17 -73 1 -27 6 -54 12 -59 5 -6 9 -17
9 -26 0 -22 32 -51 46 -42 6 4 17 18 23 31 12 21 10 26 -18 55 -17 18 -31 35
-31 39 0 12 21 8 36 -8 15 -14 54 -21 54 -10 0 12 -32 67 -52 91 -27 30 -38
30 -62 2z"/>
<path d="M6363 6112 c-6 -4 -16 -19 -22 -34 -8 -22 -7 -29 12 -41 20 -13 20
-15 4 -31 -9 -10 -17 -24 -17 -32 0 -8 -4 -14 -10 -14 -5 0 -10 -9 -10 -20 0
-18 5 -20 45 -16 24 3 49 7 55 11 16 10 12 45 -5 45 -20 0 -20 44 0 60 10 8
13 21 8 39 -9 37 -33 50 -60 33z"/>
<path d="M5908 6079 c-34 -33 -35 -39 -3 -39 18 0 26 7 31 25 9 38 1 42 -28
14z"/>
<path d="M4116 6024 c-17 -44 82 -75 105 -33 14 26 11 31 -12 24 -12 -4 -24
-3 -28 3 -3 6 -18 13 -32 17 -20 5 -28 2 -33 -11z"/>
<path d="M1905 5990 c-3 -5 -3 -10 2 -11 4 0 -2 -4 -14 -9 -31 -13 -30 -40 2
-40 15 0 25 6 25 14 0 7 10 16 22 19 18 5 19 8 8 21 -14 18 -36 21 -45 6z"/>
<path d="M6482 5908 c-2 -51 -1 -90 1 -88 8 9 17 180 10 180 -5 0 -9 -42 -11
-92z"/>
<path d="M4406 5958 c-9 -12 -16 -35 -16 -50 0 -15 -5 -30 -11 -33 -6 -4 -9
-19 -8 -33 2 -27 -5 -52 -22 -84 -14 -28 -11 -68 6 -68 18 0 20 -21 3 -38 -9
-9 -9 -15 -1 -23 6 -6 9 -17 7 -24 -6 -14 36 -28 58 -20 7 3 19 15 26 26 11
18 11 24 -4 40 -17 18 -17 21 0 56 9 20 13 39 9 42 -11 8 -33 58 -33 76 0 8 9
24 20 35 22 22 26 70 10 101 -14 25 -25 24 -44 -3z"/>
<path d="M4259 5910 c28 -24 45 -26 37 -4 -3 9 -6 18 -6 20 0 2 -12 4 -27 4
l-28 -1 24 -19z"/>
<path d="M6330 5843 c-75 -81 -100 -120 -100 -153 0 -50 8 -53 111 -34 137 24
139 26 139 95 0 32 -4 60 -9 64 -5 3 -12 19 -16 35 -6 27 -37 60 -56 60 -4 0
-35 -30 -69 -67z"/>
<path d="M4018 5888 c-9 -7 -19 -27 -22 -44 -6 -25 -3 -32 17 -43 14 -7 34
-10 46 -6 17 5 20 13 18 43 -3 42 -13 62 -31 62 -7 0 -19 -6 -28 -12z"/>
<path d="M4218 5873 c-27 -4 -28 -7 -28 -60 0 -40 -5 -59 -16 -68 -14 -9 -14
-16 -5 -33 10 -19 17 -21 54 -16 45 8 62 21 46 40 -7 8 -1 18 17 32 l27 19
-21 23 c-17 18 -19 26 -10 37 9 11 8 17 -3 24 -8 5 -18 8 -24 7 -5 0 -22 -3
-37 -5z"/>
<path d="M5941 5539 c-18 -15 -21 -23 -13 -31 13 -13 52 16 52 39 0 18 -11 16
-39 -8z"/>
<path d="M5830 5413 c0 -49 14 -58 40 -26 l22 28 -21 3 c-12 2 -21 8 -21 13 0
5 -4 9 -10 9 -5 0 -10 -12 -10 -27z"/>
<path d="M7125 5370 c-4 -7 -16 -10 -26 -7 -16 4 -17 2 -8 -14 11 -22 29 -25
29 -5 0 8 6 16 13 19 6 2 9 7 6 11 -4 4 -10 2 -14 -4z"/>
<path d="M2606 5092 c-30 -58 -10 -97 30 -58 17 18 17 34 0 65 l-14 25 -16
-32z"/>
<path d="M5737 5034 c-25 -25 6 -104 41 -104 7 0 21 -5 31 -12 15 -9 23 -9 35
1 23 20 21 61 -3 61 -11 0 -23 5 -26 10 -3 6 -16 10 -29 10 -14 0 -27 8 -32
21 -5 11 -13 17 -17 13z"/>
<path d="M2353 4980 c-39 -23 -40 -26 -10 -50 20 -17 24 -17 39 -3 12 11 16
24 12 40 -5 19 -3 22 12 17 16 -5 16 -4 4 5 -20 14 -20 14 -57 -9z m35 -32
c-2 -6 -10 -14 -16 -16 -7 -2 -10 2 -6 12 7 18 28 22 22 4z"/>
<path d="M5548 4884 c-2 -19 -1 -37 3 -40 4 -2 9 14 11 36 4 50 -8 54 -14 4z"/>
<path d="M6253 4788 c-14 -18 -25 -68 -15 -68 12 0 67 59 60 65 -3 3 -11 -1
-18 -10 -18 -22 -33 -18 -20 5 12 22 8 27 -7 8z"/>
<path d="M7396 2592 c1 -58 8 -63 59 -44 57 21 59 42 4 42 -32 0 -42 4 -46 20
-9 33 -18 23 -17 -18z"/>
<path d="M2681 2554 c0 -11 3 -14 6 -6 3 7 2 16 -1 19 -3 4 -6 -2 -5 -13z"/>
<path d="M3460 2215 c0 -12 68 -40 77 -31 7 6 -49 46 -63 46 -8 0 -14 -7 -14
-15z"/>
<path d="M3580 2140 c0 -5 4 -10 9 -10 4 0 24 -13 42 -30 19 -16 40 -28 47
-25 14 5 16 -11 2 -20 -5 -3 -10 -11 -10 -16 0 -6 7 -3 16 5 20 20 18 20 62
-8 35 -23 42 -24 127 -16 50 4 102 11 118 15 50 13 28 25 -46 25 -90 0 -245
33 -310 66 -55 27 -57 28 -57 14z"/>
<path d="M3132 2081 c7 -11 15 -18 20 -15 11 7 -3 34 -18 34 -12 0 -12 -4 -2
-19z"/>
<path d="M3196 2028 c13 -23 37 -48 46 -48 15 0 9 26 -10 43 -22 20 -46 23
-36 5z"/>
<path d="M3716 1992 c-3 -6 -1 -14 5 -17 14 -9 20 -2 10 14 -6 8 -11 9 -15 3z"/>
<path d="M3757 1960 c-3 -11 -1 -18 4 -15 4 3 17 0 28 -7 15 -9 23 -10 32 -1
8 8 2 15 -22 27 -39 20 -36 20 -42 -4z"/>
<path d="M0 485 l0 -485 54 0 c63 0 60 -5 75 135 6 50 24 198 41 330 17 132
35 278 41 325 5 47 12 97 15 111 3 16 -1 30 -9 37 -11 9 -153 31 -209 32 -5 0
-8 -218 -8 -485z"/>
<path d="M6609 674 c-11 -14 -11 -18 6 -30 25 -19 40 -13 40 17 0 29 -26 37
-46 13z m31 -14 c0 -5 -2 -10 -4 -10 -3 0 -8 5 -11 10 -3 6 -1 10 4 10 6 0 11
-4 11 -10z"/>
</g>
</svg>
