<?xml version="1.0" standalone="no"?>
<!DOCTYPE svg PUBLIC "-//W3C//DTD SVG 20010904//EN"
 "http://www.w3.org/TR/2001/REC-SVG-20010904/DTD/svg10.dtd">
<svg version="1.0" xmlns="http://www.w3.org/2000/svg"
 width="750.000000pt" height="750.000000pt" viewBox="0 0 750.000000 750.000000"
 preserveAspectRatio="xMidYMid meet">
<metadata>
Created by potrace 1.11, written by Peter Selinger 2001-2013
</metadata>
<g transform="translate(0.000000,750.000000) scale(0.100000,-0.100000)"
fill="#000000" stroke="none">
<path d="M1 7333 c0 -135 3 -163 15 -163 8 0 14 -4 14 -10 0 -5 -7 -10 -15
-10 -13 0 -15 -60 -15 -481 0 -427 2 -480 15 -469 20 17 21 -9 0 -36 -8 -10
-15 -40 -15 -66 0 -42 2 -46 22 -40 19 5 21 2 15 -26 -7 -36 8 -43 28 -15 12
16 15 15 38 -7 19 -19 24 -31 20 -52 -4 -21 -2 -28 11 -28 9 0 16 -8 16 -20 0
-13 -7 -20 -19 -20 -11 0 -21 -5 -23 -11 -2 -5 -15 9 -28 31 -32 53 -48 70
-66 70 -12 0 -14 -43 -14 -275 0 -215 3 -276 12 -274 27 3 48 -1 48 -10 0 -5
-12 -11 -28 -13 l-27 -3 -3 -411 -2 -411 36 -6 c22 -4 61 0 95 10 64 18 89 13
89 -17 0 -28 38 -26 80 5 40 30 54 32 41 6 -6 -10 -24 -24 -41 -31 -16 -7 -30
-19 -30 -26 0 -8 -5 -14 -11 -14 -13 0 -49 38 -49 52 0 12 -37 10 -109 -8 -49
-13 -69 -14 -83 -5 -17 11 -18 5 -18 -102 l0 -113 113 -32 c143 -41 151 -41
143 -1 -3 17 -6 35 -6 39 0 5 -15 13 -32 20 l-33 11 30 13 c17 8 36 23 43 35
15 26 92 31 92 6 0 -8 7 -15 16 -15 11 0 15 6 11 20 -4 15 0 20 14 20 11 0 19
-7 19 -17 0 -15 8 -17 52 -14 29 2 79 -4 115 -14 l64 -17 36 41 c23 28 41 40
51 36 8 -3 25 3 36 14 12 11 48 35 81 53 39 23 59 40 57 50 -3 22 15 33 32 19
10 -8 24 -7 52 5 38 15 37 14 -25 -43 -36 -32 -75 -66 -88 -77 -13 -10 -22
-20 -19 -23 7 -7 49 18 81 49 42 42 68 53 165 73 47 10 99 26 116 36 47 28 50
23 10 -18 -41 -42 -41 -53 1 -26 18 11 5 -8 -36 -52 -66 -73 -70 -79 -95 -164
-12 -42 -13 -51 -2 -42 10 8 16 8 24 -1 14 -18 -9 -48 -37 -48 -11 0 -21 -5
-21 -10 0 -6 -11 -3 -25 6 -14 9 -25 25 -25 36 0 14 -5 18 -15 14 -21 -8 -45
3 -45 21 0 8 7 28 16 44 l15 30 -25 -16 c-25 -17 -47 -46 -59 -78 -6 -16 -3
-18 23 -12 39 8 72 -18 47 -38 -18 -14 -134 -159 -170 -212 -14 -20 -34 -43
-45 -51 -19 -13 -19 -12 -11 23 4 21 6 39 5 41 -2 1 -18 -21 -37 -50 -41 -65
-91 -129 -96 -124 -2 2 19 61 46 132 28 70 50 128 49 130 -7 6 -198 -290 -198
-307 0 -11 -8 -34 -17 -52 -9 -18 -16 -36 -15 -42 2 -5 -8 3 -21 19 l-24 30
-12 -36 c-7 -20 -18 -41 -25 -47 -17 -14 -26 13 -26 79 0 29 -3 40 -9 31 -6
-9 -11 -10 -15 -2 -4 6 -13 8 -19 4 -7 -4 -6 1 2 10 7 10 21 16 29 15 21 -4
33 54 21 96 -14 49 -10 177 6 206 19 34 18 41 -4 32 -31 -11 -77 -55 -63 -60
8 -2 2 -17 -17 -41 -22 -27 -34 -58 -43 -111 -8 -41 -18 -75 -23 -77 -6 -2
-10 23 -11 55 -2 100 -11 129 -43 140 -25 9 -28 8 -24 -8 7 -27 -30 -43 -85
-36 -60 8 -74 -2 -70 -48 l3 -37 38 20 c84 43 89 34 7 -12 l-45 -25 -3 -73
c-2 -45 2 -82 10 -97 9 -18 9 -27 0 -42 -17 -28 -16 -150 1 -150 8 0 22 -9 33
-21 10 -11 14 -19 9 -18 -6 2 -20 -3 -33 -11 -20 -14 -22 -22 -22 -117 0 -93
2 -102 17 -96 17 7 17 6 0 -20 -15 -23 -17 -57 -17 -309 0 -227 2 -279 13
-266 6 9 34 28 61 43 56 30 156 106 156 117 0 5 -13 8 -30 8 -18 0 -33 7 -39
19 -12 21 -5 31 21 31 15 0 18 -5 13 -20 -5 -17 -2 -20 22 -20 15 1 48 5 73
10 35 6 41 6 29 -3 -32 -24 -41 -60 -43 -163 0 -59 -5 -105 -11 -107 -5 -2
-25 0 -42 5 -32 8 -33 10 -33 61 0 29 5 70 10 92 5 22 8 41 6 42 -1 1 -23 -15
-49 -37 -26 -21 -51 -40 -57 -42 -5 -2 -13 -43 -18 -93 -14 -135 -53 -208 -73
-134 -4 13 -7 -77 -8 -201 l-1 -224 38 37 c43 42 58 46 67 17 4 -13 -4 -32
-26 -59 -27 -34 -34 -38 -55 -31 l-24 10 0 -110 c0 -67 4 -110 10 -110 6 0 10
-7 10 -15 0 -8 -4 -15 -10 -15 -6 0 -10 -49 -10 -128 0 -128 0 -129 25 -140
28 -13 31 -28 11 -54 -9 -13 -16 -14 -24 -6 -8 8 -11 -183 -12 -751 l0 -762
26 3 c30 3 34 12 100 268 55 208 72 266 127 425 53 152 127 396 132 435 2 19
9 89 15 154 7 66 17 155 24 198 7 42 9 83 5 89 -11 19 -89 12 -105 -8 -7 -10
-15 -16 -18 -13 -3 3 15 39 39 79 24 41 46 79 48 85 2 6 8 8 12 4 4 -3 -5 -26
-19 -51 -33 -55 -34 -72 -3 -62 12 4 30 7 39 6 12 0 21 13 28 42 6 23 15 56
20 72 5 17 11 41 14 55 3 14 8 36 11 50 4 19 2 17 -10 -7 -8 -18 -20 -33 -25
-33 -16 0 -13 9 34 89 24 42 63 119 87 171 24 52 46 97 49 100 8 7 21 40 15
40 -2 0 -24 -20 -49 -45 -42 -43 -45 -44 -51 -24 -8 25 23 55 93 90 27 13 53
37 69 63 60 98 101 150 156 204 109 104 182 183 215 232 23 35 50 58 98 84 36
20 75 45 86 56 12 11 26 20 30 20 12 0 68 58 68 70 0 5 -6 7 -14 4 -11 -4 -15
7 -18 50 -3 49 -1 55 14 50 11 -3 18 0 18 7 0 7 3 10 6 7 6 -7 54 39 54 52 0
15 18 21 26 9 4 -8 3 -9 -4 -5 -8 5 -12 -2 -12 -18 0 -17 -4 -24 -14 -20 -7 3
-16 -1 -19 -9 -9 -23 25 -15 51 13 l23 25 -16 -33 c-9 -19 -14 -40 -11 -47 3
-10 0 -12 -11 -8 -11 4 -14 2 -9 -5 4 -7 2 -12 -4 -12 -6 0 -8 -5 -5 -10 4 -6
11 -8 16 -5 15 10 10 -12 -7 -25 -8 -8 -14 -9 -12 -4 2 5 -1 9 -7 9 -5 0 -8
-6 -7 -14 2 -8 -7 -23 -20 -33 -13 -11 6 -5 44 13 50 24 65 36 60 48 -5 13 -3
14 10 3 13 -10 19 -10 32 3 9 9 16 21 16 26 0 5 8 8 18 6 9 -1 49 15 88 35 38
20 110 46 160 58 80 19 153 48 209 83 11 7 53 34 93 60 40 26 74 47 77 47 2 0
29 16 59 35 30 19 60 35 66 35 5 0 10 5 10 10 0 6 6 10 13 10 7 0 28 11 47 24
19 12 60 29 90 36 60 14 95 30 161 74 28 19 65 33 101 38 53 7 127 42 143 68
3 6 10 8 14 6 4 -3 12 -2 17 2 10 7 74 97 74 104 0 2 -20 2 -45 0 -34 -3 -45
-1 -45 11 0 17 33 61 73 97 28 25 28 26 34 174 4 121 2 155 -11 185 -40 93
-53 171 -56 334 -1 35 -5 55 -11 51 -15 -9 -37 26 -31 48 2 10 13 35 23 56 11
20 16 38 12 39 -5 2 -7 22 -6 45 2 64 -7 98 -27 98 -9 0 -20 -3 -24 -8 -4 -4
-12 -7 -18 -7 -6 0 -12 -12 -14 -26 -4 -45 -42 -108 -69 -115 -37 -9 -48 3
-41 49 l7 40 -33 -7 c-18 -3 -50 -18 -71 -33 -25 -18 -53 -28 -80 -28 -64 -3
-67 -4 -67 -25 0 -11 -7 -20 -15 -20 -17 0 -19 18 -5 40 11 18 -5 40 -30 40
-9 0 -25 9 -34 19 -17 18 -17 22 -2 43 22 31 20 38 -11 39 -26 1 -26 2 5 9 36
8 60 26 49 36 -3 3 -20 1 -38 -5 -27 -9 -30 -9 -19 4 7 8 18 15 24 15 24 1 75
60 51 60 -26 0 -155 -93 -155 -112 0 -5 -17 -26 -37 -47 -54 -53 -158 -182
-184 -225 -12 -21 -29 -36 -40 -36 -22 0 -23 11 -9 60 8 28 7 37 -5 46 -8 6
-15 13 -15 15 0 3 29 27 65 54 40 30 64 54 60 63 -2 7 0 10 5 7 12 -7 70 22
70 35 0 6 -19 10 -42 11 -55 1 -37 8 43 17 61 7 63 8 70 40 5 24 2 35 -10 43
-12 8 -12 9 -1 6 8 -2 21 3 29 11 27 27 110 143 123 173 13 28 28 39 28 19 0
-15 19 -12 37 6 15 14 17 14 26 -2 7 -12 6 -23 -2 -37 -12 -18 -11 -18 7 -6
23 17 75 77 89 103 13 24 -13 54 -42 49 -11 -2 -3 6 19 17 37 21 38 23 30 58
-5 21 -8 87 -8 147 0 93 4 118 23 163 45 101 133 123 193 48 l18 -21 0 28 c0
27 13 36 25 17 3 -5 10 -10 15 -10 4 0 0 15 -10 34 -25 50 -40 260 -27 389 3
36 2 57 -5 57 -7 0 -6 5 1 14 7 8 13 48 13 90 1 42 5 76 10 76 4 0 8 9 8 20 0
13 -5 18 -15 14 -21 -9 -19 12 4 28 20 14 22 59 3 66 -18 6 -14 26 8 50 13 14
16 22 8 22 -10 0 -10 2 -1 8 7 4 15 28 17 53 8 79 14 91 54 103 12 4 20 12 17
17 -4 5 4 10 17 10 19 1 18 3 -7 9 -26 6 -27 8 -7 9 14 1 22 6 19 14 -2 6 16
24 40 38 l45 26 -29 22 c-20 16 -22 19 -5 11 18 -9 22 -8 22 5 0 8 7 15 15 15
8 0 25 10 37 22 l22 22 -24 7 c-24 7 -24 7 -2 8 12 1 22 7 22 16 0 9 9 15 25
15 14 0 25 -4 25 -9 0 -4 12 -6 26 -3 18 3 22 7 13 13 -7 4 -13 13 -15 21 -1
10 13 12 59 11 33 -2 66 2 73 8 8 7 14 7 19 -1 11 -18 25 0 25 35 0 19 5 37
12 41 7 4 8 3 4 -4 -3 -6 2 -15 12 -21 15 -8 24 -4 45 21 15 16 27 37 28 47 0
10 2 11 6 3 7 -18 23 -4 23 20 0 12 7 30 17 40 9 10 21 28 27 41 6 12 22 27
34 32 14 6 26 22 29 38 3 15 9 29 13 32 10 6 109 -20 121 -32 19 -19 -2 -43
-37 -43 -31 0 -34 -3 -34 -29 0 -52 -16 -79 -44 -76 -13 2 -27 -3 -30 -10 -3
-9 2 -13 15 -12 10 1 19 5 19 10 0 4 5 5 10 2 6 -3 23 3 39 14 20 14 31 17 33
9 3 -7 9 -8 19 -3 8 5 20 10 28 12 8 1 17 5 20 10 9 12 44 16 36 4 -3 -6 0
-11 9 -11 8 0 16 5 18 12 3 7 26 12 56 13 28 1 55 4 58 8 11 11 26 8 19 -3 -3
-5 -1 -10 6 -10 8 0 10 14 7 45 -5 39 -3 45 13 45 11 0 19 -6 19 -14 0 -8 9
-18 20 -21 11 -4 18 -11 14 -16 -3 -6 5 -8 20 -5 15 3 24 1 21 -4 -8 -13 27
-17 54 -6 18 8 25 8 29 -2 3 -9 9 -9 23 -1 13 7 24 7 32 1 14 -11 72 -11 83 1
12 12 34 8 34 -7 0 -15 56 -30 73 -19 6 3 7 1 3 -6 -15 -24 135 -67 157 -44 4
3 2 13 -5 20 -9 11 -9 19 0 34 11 17 9 21 -13 29 -15 6 -32 10 -38 10 -7 0
-18 4 -26 9 -22 14 4 41 38 41 15 0 34 9 44 20 9 11 21 20 27 20 17 0 11 -18
-12 -34 -22 -16 -22 -16 8 -16 34 0 57 -33 44 -60 -4 -8 -13 -27 -21 -42 -7
-16 -14 -26 -17 -23 -5 4 -32 -20 -32 -29 0 -3 5 -6 11 -6 6 0 17 -6 25 -14 8
-8 23 -13 34 -11 11 2 18 0 15 -6 -4 -5 2 -12 12 -15 10 -3 25 -9 34 -14 9 -5
27 -6 39 -3 14 4 21 2 17 -4 -7 -12 31 -56 42 -49 4 3 17 -3 29 -14 12 -12 28
-17 37 -14 12 5 16 2 13 -9 -4 -21 68 -72 131 -93 28 -9 51 -20 51 -26 0 -5
-8 -4 -19 2 -33 17 -41 11 -18 -13 12 -13 39 -31 60 -41 20 -9 35 -21 33 -25
-3 -5 6 -18 19 -31 13 -13 22 -26 20 -31 -3 -4 5 -15 17 -23 12 -9 17 -16 11
-16 -8 0 -8 -7 0 -25 7 -14 16 -25 20 -25 5 0 6 -4 2 -9 -3 -5 7 -19 21 -30
15 -12 24 -21 20 -21 -4 0 6 -17 23 -37 22 -27 27 -39 18 -45 -8 -5 -8 -8 -1
-8 7 0 15 -7 18 -16 5 -14 4 -15 -9 -4 -9 7 -18 10 -22 6 -3 -3 -2 -6 4 -6 16
0 34 -48 21 -56 -7 -5 -8 -3 -3 6 6 9 4 11 -5 5 -10 -6 -9 -11 4 -20 9 -7 15
-19 14 -26 -2 -7 6 -17 18 -23 11 -6 20 -19 18 -29 -1 -9 5 -21 13 -26 10 -5
12 -11 5 -15 -7 -4 -7 -17 -2 -36 5 -17 5 -30 0 -30 -4 0 -10 -9 -13 -20 -3
-11 0 -20 5 -20 6 0 5 -6 -2 -15 -7 -9 -8 -15 -2 -15 11 0 5 -38 -9 -56 -5 -6
-8 -13 -6 -15 1 -2 -2 -1 -8 3 -5 5 -17 8 -28 8 -18 0 -18 -1 -1 -17 10 -10
22 -18 27 -18 6 0 12 -6 15 -12 7 -22 -18 -14 -43 13 -25 27 -24 54 3 54 10 0
1 11 -21 26 -21 14 -35 30 -31 35 3 6 -6 28 -20 50 -23 34 -24 39 -9 39 13 1
5 12 -26 41 -24 22 -36 37 -25 33 15 -5 16 -4 4 4 -8 6 -18 8 -22 6 -4 -3 -8
1 -8 8 0 23 -113 137 -135 137 -37 -1 -88 13 -102 27 -8 8 -28 14 -44 14 -16
0 -29 5 -29 11 0 5 4 7 10 4 6 -3 7 1 4 9 -3 9 -10 13 -15 10 -5 -3 -9 2 -9
12 0 13 6 15 30 11 16 -4 31 -3 34 1 2 4 -4 9 -15 10 -10 1 -28 3 -39 4 -11 1
-20 6 -20 10 0 4 -20 5 -44 2 -27 -4 -46 -2 -50 5 -4 6 0 11 11 12 11 0 13 3
5 6 -6 2 -9 9 -6 15 4 6 -13 9 -47 7 -48 -4 -54 -2 -54 16 0 11 -5 20 -12 20
-6 0 -15 3 -19 8 -4 4 -1 7 6 7 9 0 11 3 4 10 -6 6 -22 6 -44 0 -57 -15 -112
-21 -106 -11 3 4 25 12 48 16 25 5 35 10 25 12 -16 4 -15 7 7 24 13 10 29 19
35 19 6 0 11 4 11 9 0 11 -37 21 -75 20 -29 -1 -29 -1 -5 -8 17 -5 21 -9 12
-15 -6 -4 -16 -5 -21 -2 -11 7 -33 -19 -24 -28 4 -4 -1 -4 -11 0 -13 5 -17 4
-13 -3 4 -6 -1 -17 -11 -24 -15 -13 -16 -12 -3 4 23 30 -3 19 -31 -13 -30 -35
-18 -50 24 -30 22 11 22 11 3 -5 -12 -9 -30 -14 -45 -11 -14 2 -38 2 -55 -1
-26 -6 -27 -7 -10 -14 18 -8 17 -9 -5 -7 -14 0 -32 -2 -40 -6 -8 -3 -35 -2
-60 2 l-45 8 85 21 85 21 -80 -5 c-44 -3 -77 -3 -74 0 3 4 30 9 60 11 99 7 97
7 69 17 -20 7 -16 8 20 5 36 -2 53 3 87 26 24 16 43 30 43 32 0 2 -25 1 -56
-1 -37 -2 -53 0 -49 7 3 5 2 10 -4 10 -5 0 -13 -5 -17 -11 -4 -8 -9 -7 -15 2
-6 10 -18 10 -56 2 -26 -7 -57 -15 -67 -19 -13 -5 -17 -4 -13 3 8 13 -23 22
-83 24 l-45 2 35 7 c29 6 31 8 10 10 -14 1 -44 1 -67 0 -23 -1 -55 6 -73 15
-30 15 -34 15 -70 -4 -22 -11 -42 -16 -45 -11 -13 21 122 69 217 77 43 3 75
10 72 14 -3 5 8 9 25 9 16 0 32 4 36 9 3 6 -10 8 -32 5 -29 -3 -24 0 22 14 55
17 58 20 39 30 -18 9 -34 8 -79 -8 -31 -11 -60 -19 -63 -19 -4 1 -18 1 -32 -1
-23 -1 -24 -2 -5 -11 15 -7 11 -7 -14 -3 -21 4 -31 3 -27 -4 3 -6 -1 -8 -11
-6 -18 5 -60 -8 -138 -41 -31 -13 -37 -14 -27 -3 6 8 9 18 5 21 -3 4 4 7 16 7
30 0 163 40 176 53 7 7 7 8 0 4 -6 -3 -17 -2 -25 4 -12 7 -10 9 8 9 12 0 22 4
22 9 0 6 -12 6 -32 0 -47 -13 -58 -10 -23 7 l30 15 -47 -5 c-59 -7 -140 -44
-131 -60 4 -7 1 -6 -9 1 -12 11 -18 9 -33 -7 -14 -16 -20 -17 -27 -8 -6 10 -8
10 -8 1 0 -7 -7 -10 -16 -6 -13 5 -11 10 13 28 l28 23 -35 10 c-19 5 -45 7
-57 5 -17 -2 -22 2 -25 22 -2 14 -7 24 -13 23 -5 -2 -8 -10 -6 -18 1 -8 0 -12
-4 -8 -4 4 -14 1 -22 -7 -8 -8 -19 -15 -25 -15 -6 0 -8 3 -5 7 9 9 -24 32 -46
33 -10 0 -15 5 -12 10 4 6 11 8 16 5 5 -4 9 -1 9 4 0 6 4 11 10 11 5 0 7 -7 4
-15 -4 -9 0 -15 9 -15 11 0 27 19 27 33 0 10 -61 2 -70 -8 -7 -8 -16 -12 -21
-9 -5 3 -9 0 -9 -5 0 -6 4 -11 10 -11 5 0 7 -8 4 -17 -4 -13 -3 -14 3 -5 7 10
14 7 29 -10 16 -19 16 -20 1 -9 -9 8 -20 11 -24 8 -10 -11 -33 14 -33 35 0 11
-5 16 -10 13 -6 -4 -17 -1 -25 5 -11 9 -15 9 -15 1 0 -6 5 -11 11 -11 8 0 7
-6 -2 -17 -10 -11 -10 -14 -1 -9 6 4 12 3 12 -3 0 -5 -5 -13 -10 -16 -6 -4 -8
-15 -5 -26 6 -16 2 -18 -24 -13 -29 6 -30 5 -25 -22 6 -35 13 -46 25 -39 5 4
16 0 24 -8 8 -9 19 -17 24 -19 6 -1 12 -34 14 -71 2 -37 8 -71 12 -75 4 -4 4
4 0 18 -7 23 -7 24 10 10 17 -14 18 -13 12 22 -3 21 -1 40 4 43 5 4 9 -6 9
-20 0 -17 4 -24 12 -19 8 5 9 2 4 -12 -5 -10 -11 -27 -14 -37 -4 -15 -7 -16
-13 -5 -7 11 -9 11 -9 0 0 -8 9 -16 20 -19 11 -3 20 -13 21 -22 0 -11 2 -12 6
-3 3 7 0 19 -7 27 -13 15 -4 59 10 50 5 -3 11 4 15 15 10 30 22 24 17 -9 -2
-16 1 -37 7 -48 9 -16 10 -16 11 7 1 35 31 90 57 107 20 14 21 13 16 -9 -5
-22 -3 -21 24 7 52 52 94 87 100 81 8 -7 -7 -26 -21 -26 -7 0 -27 -16 -44 -36
-32 -36 -40 -50 -22 -39 5 3 1 -14 -9 -37 -17 -39 -35 -136 -24 -124 3 3 16
-8 30 -25 29 -34 43 -37 43 -9 0 11 -4 20 -10 20 -5 0 -10 5 -10 10 0 6 13 4
30 -5 17 -9 30 -12 29 -8 -4 26 3 35 12 15 5 -13 13 -20 19 -17 6 4 8 11 4 16
-3 5 -2 23 1 40 7 29 8 30 20 12 8 -11 17 -31 20 -46 8 -30 35 -58 35 -36 0
11 2 11 10 -1 8 -13 10 -12 10 3 0 24 31 22 37 -3 5 -19 16 -25 38 -20 6 1 44
3 85 5 69 2 71 1 30 -8 -25 -5 -52 -11 -60 -15 -8 -3 -21 -4 -29 -3 -7 1 -10
-2 -7 -7 3 -6 0 -13 -6 -15 -7 -3 32 -3 87 -1 70 3 96 1 85 -6 -8 -5 -26 -8
-40 -5 -14 2 -41 0 -60 -5 l-35 -10 35 4 c19 1 60 0 90 -4 52 -7 53 -7 15 -10
-22 -1 -51 -6 -65 -11 -22 -8 -21 -8 8 -4 17 2 32 0 32 -5 0 -6 12 -10 28 -11
15 0 36 -4 47 -9 19 -8 18 -9 -5 -11 -33 -3 -38 -3 -85 5 -36 5 -35 4 10 -9
28 -8 58 -12 69 -9 13 4 16 3 11 -6 -6 -10 -1 -11 18 -6 14 3 28 2 32 -4 3 -5
12 -7 19 -4 7 3 29 -2 47 -10 21 -9 27 -15 16 -15 -10 -1 -15 -6 -12 -11 4 -6
12 -10 18 -8 7 1 21 -1 32 -4 11 -4 36 -9 56 -12 20 -3 47 -9 60 -14 13 -5 60
-10 103 -11 47 -2 84 -7 91 -15 7 -7 39 -19 71 -26 63 -15 109 -54 201 -170
24 -30 47 -60 52 -66 18 -23 30 -52 28 -72 -1 -17 -6 -21 -25 -17 -18 3 -21 1
-13 -9 6 -7 7 -17 3 -21 -4 -5 -1 -4 7 0 11 6 13 4 8 -7 -3 -9 3 -24 14 -34
10 -9 19 -23 19 -31 0 -7 5 -13 11 -13 5 0 8 -4 5 -9 -3 -5 1 -14 9 -21 8 -7
15 -26 15 -43 0 -30 -1 -30 -16 -11 -15 18 -15 18 -10 -4 2 -13 2 -21 -1 -18
-4 3 -13 -4 -21 -15 -12 -17 -16 -18 -23 -8 -7 11 -9 10 -9 -4 0 -12 -5 -16
-12 -11 -7 4 4 -11 26 -34 24 -25 35 -45 31 -53 -5 -7 -4 -10 1 -6 6 3 11 -16
12 -44 1 -27 -1 -49 -5 -49 -5 0 -53 9 -108 19 -152 30 -394 51 -550 49 -78
-1 -145 1 -150 4 -16 10 -79 13 -93 4 -6 -4 -16 -5 -21 -2 -5 3 -11 -1 -15 -9
-3 -8 -13 -15 -23 -15 -10 0 -30 -6 -45 -14 -15 -8 -42 -17 -60 -21 -18 -3
-41 -9 -52 -12 -13 -4 -16 -1 -11 7 6 10 0 12 -26 7 -19 -3 -28 -3 -21 0 14 6
-75 53 -101 53 -21 0 -57 20 -73 40 -7 8 -16 15 -21 16 -16 2 -61 23 -67 32
-3 5 -21 9 -40 10 -18 1 -38 2 -42 3 -5 1 -36 0 -69 -1 l-60 -2 35 -14 c24
-10 27 -13 10 -10 -149 26 -209 31 -385 31 -256 0 -259 -2 -263 -99 -2 -57 0
-72 17 -90 28 -30 37 -59 50 -161 14 -111 54 -199 105 -233 78 -53 300 -101
471 -103 83 -1 88 -2 60 -14 -18 -8 -32 -9 -36 -4 -3 6 -17 4 -33 -4 -23 -13
-25 -15 -9 -21 10 -4 47 -2 83 5 61 12 69 17 135 84 48 48 88 101 125 168 30
54 68 114 83 133 25 30 34 34 76 34 26 0 56 -7 68 -15 27 -19 57 -85 73 -159
14 -68 111 -267 148 -302 15 -14 46 -35 69 -45 44 -20 230 -59 298 -63 22 -1
46 -5 54 -10 8 -5 16 -4 21 5 7 10 11 10 24 -1 23 -18 28 -9 11 23 -8 15 -9
27 -4 27 6 0 7 5 3 11 -4 8 -9 8 -13 1 -4 -7 -25 -6 -63 3 -31 7 -59 10 -62 7
-3 -3 -6 -1 -6 5 0 6 -10 11 -22 11 -13 0 -51 8 -85 18 l-62 19 192 0 c161 0
201 3 245 18 95 34 134 84 183 234 23 72 38 86 40 35 0 -24 2 -23 19 16 23 50
32 55 19 10 -5 -18 -9 -34 -9 -35 0 -1 -7 -9 -17 -18 -24 -24 -24 -177 0 -224
17 -34 14 -81 -5 -81 -6 0 -8 7 -4 15 4 13 2 13 -14 5 -25 -13 -36 -50 -19
-61 18 -11 39 -11 39 0 0 5 7 11 15 15 26 10 17 -20 -10 -32 -14 -6 -25 -17
-25 -23 0 -18 58 -2 93 26 18 14 37 29 42 33 17 14 55 21 60 11 13 -21 -47
-99 -77 -99 -25 0 -23 -25 2 -27 14 -1 37 18 73 62 28 35 53 62 54 61 6 -5
-23 -84 -39 -108 -10 -14 -18 -28 -18 -31 0 -10 -78 -123 -95 -137 -21 -18
-125 -16 -136 2 -5 7 -9 9 -9 4 0 -5 -16 7 -35 27 l-35 36 -16 -32 c-9 -18
-18 -34 -19 -35 -2 -2 -22 15 -45 38 -39 39 -65 48 -65 21 0 -6 -7 -16 -15
-21 -13 -9 -13 -10 0 -11 10 0 8 -3 -5 -9 l-20 -9 20 0 c16 -1 17 -3 6 -10 -8
-5 -20 -7 -28 -4 -7 3 -13 0 -13 -6 0 -6 5 -11 12 -11 6 0 8 -3 5 -6 -4 -4
-13 -1 -21 5 -12 10 -14 8 -10 -11 5 -21 5 -22 -7 -4 -11 18 -12 18 -25 -5 -7
-13 -13 -18 -14 -11 0 6 -4 12 -9 12 -5 0 -4 -14 2 -32 9 -24 9 -32 -1 -35 -6
-3 -10 -9 -6 -14 3 -5 -2 -9 -11 -9 -10 0 -13 5 -9 12 4 7 3 8 -5 4 -6 -4 -9
-12 -6 -17 4 -5 -1 -12 -9 -15 -20 -8 -21 -21 -1 -21 8 0 12 4 10 8 -3 4 2 10
11 13 24 9 36 7 29 -4 -4 -6 -11 -7 -17 -4 -6 4 -8 -1 -6 -12 2 -11 -3 -26
-12 -34 -19 -18 -61 -102 -55 -109 3 -2 14 4 25 14 17 15 25 17 39 8 15 -10
23 -8 41 12 12 13 28 21 35 19 7 -3 23 17 38 48 15 29 27 47 27 40 0 -20 22
-9 31 16 7 18 5 22 -11 22 -11 0 -20 4 -20 9 0 4 11 6 25 3 18 -3 31 3 46 19
11 13 19 17 16 9 -2 -8 -16 -58 -31 -110 -56 -195 -89 -289 -99 -283 -5 3 -7
1 -4 -4 7 -11 -16 -66 -38 -93 -7 -8 -15 -37 -18 -65 -4 -27 -9 -63 -13 -80
-19 -92 -29 -194 -22 -220 7 -29 89 -129 105 -130 62 -4 111 -22 175 -65 40
-26 120 -72 176 -101 80 -40 119 -68 170 -120 53 -53 85 -75 152 -105 47 -21
126 -61 175 -88 166 -90 299 -154 415 -200 63 -24 131 -53 150 -62 48 -24 167
-100 215 -139 62 -49 129 -85 203 -109 111 -35 144 -60 186 -134 74 -131 88
-152 102 -152 8 0 14 -9 14 -21 0 -12 13 -34 30 -49 16 -15 30 -37 30 -47 0
-11 20 -54 44 -97 68 -120 115 -261 176 -536 6 -25 13 -65 16 -90 3 -25 11
-70 19 -100 7 -30 26 -122 41 -204 l29 -148 34 -17 c45 -21 49 -37 11 -44 -35
-7 -35 -11 -20 -132 11 -93 15 -124 30 -300 6 -72 18 -170 26 -220 8 -50 22
-133 31 -185 8 -52 16 -96 18 -98 1 -1 14 3 29 9 l26 12 0 206 c0 195 -1 207
-20 219 -27 16 -27 52 0 52 20 0 20 11 20 1989 0 1982 0 1989 -20 1994 -27 7
-27 47 0 54 16 4 20 14 20 43 l0 37 -42 -2 c-48 -3 -70 9 -61 31 4 11 0 15
-13 12 -12 -2 -19 4 -22 17 -7 42 -12 51 -22 35 -5 -8 -7 -17 -4 -21 2 -4 -3
-12 -11 -19 -20 -17 -54 -3 -61 26 -7 28 -19 31 -28 8 -4 -12 -14 -15 -34 -11
-101 21 -117 30 -102 58 9 16 63 37 110 43 8 2 22 5 30 8 8 4 32 9 53 13 41 7
41 20 0 36 -34 13 -27 49 12 69 25 12 30 20 27 45 -2 25 4 34 35 54 l37 24 20
-26 c12 -14 33 -29 48 -32 l27 -7 1 1261 0 1261 -664 -1 -664 -1 3 -40 c1 -22
1 -48 -2 -58 -7 -26 -33 -13 -33 16 0 14 -7 27 -15 30 -8 4 -15 16 -15 28 l0
22 -850 1 -850 2 -52 -40 c-44 -33 -60 -39 -93 -37 -41 3 -46 12 -30 50 5 13
0 16 -29 16 -34 0 -36 -2 -33 -31 1 -24 -3 -34 -23 -44 -24 -12 -21 -17 11
-14 9 1 16 -4 16 -11 0 -7 2 -19 4 -26 2 -8 -4 -19 -14 -25 -15 -10 -21 -8
-37 13 -11 14 -20 33 -20 42 0 9 -12 28 -27 42 -22 21 -24 27 -14 40 16 19 19
19 -114 16 -64 -1 -105 -7 -115 -15 -15 -13 -40 -9 -51 7 -7 11 -59 -33 -59
-50 0 -13 -78 -20 -90 -8 -6 6 -10 23 -10 38 0 26 -3 28 -38 28 -51 0 -70 -22
-74 -85 -3 -42 -6 -50 -25 -53 -18 -3 -22 3 -28 40 -4 24 -9 57 -10 73 -1 17
-8 30 -14 29 -6 -1 -31 -2 -56 -2 -51 -2 -56 -12 -20 -48 33 -33 32 -44 -7
-44 -18 0 -44 -9 -57 -19 -20 -15 -29 -17 -48 -8 -13 5 -23 14 -23 18 0 21
-28 -5 -39 -36 -14 -40 -33 -45 -55 -13 -15 21 -14 24 22 52 20 17 49 43 64
58 14 16 31 28 38 28 6 0 8 5 5 10 -8 12 -165 13 -184 1 -13 -8 -13 -12 -1
-26 19 -23 21 -42 4 -56 -8 -6 -14 -19 -14 -28 0 -18 -18 -41 -32 -41 -5 0 -7
19 -5 43 5 66 -19 100 -74 109 -45 6 -279 -3 -246 -10 14 -3 17 -10 13 -28
-10 -38 3 -48 29 -24 26 24 43 12 24 -17 -8 -14 -20 -18 -43 -15 -26 3 -34 11
-49 47 l-18 43 -125 1 c-105 1 -124 -1 -124 -14 0 -8 -7 -15 -15 -15 -18 0
-20 16 -2 23 6 3 -4 6 -23 6 -508 12 -527 12 -544 -4 -9 -9 -16 -21 -16 -26 0
-5 -13 -9 -30 -9 -29 0 -40 13 -20 25 5 3 10 11 10 16 0 11 -47 5 -92 -13 -21
-8 -32 -6 -50 6 -30 21 -50 20 -77 -3 -22 -19 -51 -19 -51 0 0 5 -26 10 -57
10 -764 3 -1166 -1 -1180 -12 -12 -10 -16 -10 -23 2 -7 10 -37 14 -129 15
l-119 1 -1 -164z m644 137 c4 -6 -7 -24 -24 -41 -36 -36 -37 -39 -11 -39 23 0
26 -22 5 -40 -17 -14 -65 -5 -77 13 -4 7 -8 26 -8 44 0 26 6 35 38 51 43 22
68 26 77 12z m45 -9 c0 -10 -9 -29 -20 -42 l-19 -24 -1 27 c0 14 3 33 6 42 9
22 34 20 34 -3z m1885 -1 c5 -8 11 -7 21 1 8 6 17 9 21 5 3 -3 1 -6 -6 -6 -7
0 -10 -3 -8 -7 7 -12 -11 -53 -23 -53 -5 0 -10 9 -10 20 0 13 -9 22 -25 26
-14 3 -25 10 -25 15 0 13 47 11 55 -1z m-1735 -15 c0 -15 -46 -32 -57 -21 -10
9 18 36 38 36 11 0 19 -7 19 -15z m880 -10 c0 -9 -9 -15 -25 -15 -16 0 -25 6
-25 15 0 9 9 15 25 15 16 0 25 -6 25 -15z m198 0 c36 -7 34 -25 -2 -25 -13 0
-29 -7 -36 -15 -18 -21 -24 -19 -37 15 -12 31 -3 42 27 35 8 -2 30 -6 48 -10z
m-1805 -51 c-4 -12 2 -13 35 -8 51 8 59 -5 37 -62 -17 -44 -55 -80 -55 -51 0
8 7 20 15 27 20 17 9 27 -40 38 -38 7 -39 9 -42 52 -4 52 14 70 39 39 9 -11
14 -27 11 -35z m4797 48 c0 -13 -12 -22 -22 -16 -10 6 -1 24 13 24 5 0 9 -4 9
-8z m-4448 -17 c0 -5 -5 -11 -11 -13 -6 -2 -11 4 -11 13 0 9 5 15 11 13 6 -2
11 -8 11 -13z m6456 -2 c-4 -22 -48 -31 -48 -10 0 19 10 27 32 27 13 0 18 -6
16 -17z m-5690 -4 c-2 -6 -8 -10 -13 -10 -5 0 -11 4 -13 10 -2 6 4 11 13 11 9
0 15 -5 13 -11z m3601 -19 c26 -36 24 -66 -4 -62 -40 6 -45 12 -45 52 0 49 17
52 49 10z m-3959 9 c0 -6 7 -9 15 -5 8 3 20 -3 27 -13 23 -31 39 -35 54 -13
20 30 68 37 109 17 48 -22 48 -65 1 -56 -5 1 -25 -6 -43 -16 -31 -16 -34 -16
-50 0 -16 15 -18 15 -35 0 -14 -13 -21 -14 -30 -5 -7 7 -19 12 -27 12 -17 0
-51 51 -51 76 0 8 7 14 15 14 8 0 15 -5 15 -11z m1677 -42 c2 -2 1 -17 -3 -33
-7 -36 -42 -55 -89 -47 -39 6 -47 30 -14 35 12 2 27 11 33 21 9 15 5 23 -24
47 l-35 30 64 -25 c35 -14 66 -26 68 -28z m1852 32 c30 -18 32 -22 19 -35 -11
-12 -20 -12 -49 -3 -40 14 -52 29 -37 46 14 18 27 16 67 -8z m2239 -2 c5 -23
-48 -77 -73 -77 -18 1 -17 3 8 23 15 13 27 32 27 43 0 37 32 45 38 11z m-5458
3 c0 -5 -5 -10 -11 -10 -5 0 -7 5 -4 10 3 6 8 10 11 10 2 0 4 -4 4 -10z m826
-17 c-10 -10 -19 5 -10 18 6 11 8 11 12 0 2 -7 1 -15 -2 -18z m-1631 7 c-3 -5
-15 -10 -26 -10 -11 0 -17 5 -14 10 3 6 15 10 26 10 11 0 17 -4 14 -10z m303
-13 c2 -10 -3 -17 -12 -17 -18 0 -29 16 -21 31 9 14 29 6 33 -14z m2252 9 c0
-8 -4 -17 -8 -20 -13 -8 -35 11 -28 23 10 16 36 14 36 -3z m2505 4 c7 -11 -42
-37 -51 -27 -9 9 15 37 32 37 7 0 16 -4 19 -10z m-2661 -21 c8 -12 23 -27 33
-33 63 -38 83 -52 88 -64 9 -24 -27 -25 -83 -2 -39 16 -57 20 -60 12 -5 -16
-53 -4 -69 16 -7 9 -13 25 -13 36 0 51 75 76 104 35z m786 -4 c0 -8 -7 -15
-15 -15 -16 0 -20 12 -8 23 11 12 23 8 23 -8z m1432 -7 c-7 -7 -12 -8 -12 -2
0 14 12 26 19 19 2 -3 -1 -11 -7 -17z m1402 6 c21 -20 21 -18 -16 -53 -36 -34
-58 -40 -58 -16 0 8 5 15 10 15 6 0 10 10 10 23 0 22 16 47 31 47 4 0 15 -7
23 -16z m-3138 -39 c-4 -11 -15 -15 -33 -13 -35 4 -37 30 -3 39 30 7 45 -3 36
-26z m-2766 -5 c0 -20 -12 -43 -36 -70 -20 -22 -38 -39 -40 -37 -2 2 5 21 16
42 11 22 20 52 20 67 0 21 5 28 20 28 16 0 20 -7 20 -30z m2469 16 c16 -19 2
-26 -29 -14 -20 7 -22 11 -10 18 20 13 26 12 39 -4z m4047 -17 c7 -12 -15 -59
-28 -59 -13 0 -48 34 -48 46 0 23 63 33 76 13z m-6678 -16 c-5 -25 -28 -28
-28 -4 0 12 6 21 16 21 9 0 14 -7 12 -17z m212 -13 c0 -11 -7 -20 -15 -20 -18
0 -19 6 -2 25 16 19 17 18 17 -5z m-450 -5 c0 -16 -34 -55 -48 -55 -4 0 -13 4
-21 9 -12 8 -13 14 -3 35 9 20 19 26 42 26 20 0 30 -5 30 -15z m570 0 c16 -8
38 -14 49 -12 11 1 20 -2 20 -8 1 -5 -6 -10 -13 -10 -8 0 -18 -4 -22 -8 -11
-11 -69 -8 -81 4 -9 9 -9 16 0 30 14 23 11 23 47 4z m2569 -8 c8 -11 6 -18
-10 -33 -20 -18 -21 -18 -35 1 -8 10 -14 25 -14 32 0 17 44 17 59 0z m-2142
-33 c-3 -3 -12 -4 -19 -1 -8 3 -5 6 6 6 11 1 17 -2 13 -5z m1851 -6 c-6 -18
-28 -21 -28 -4 0 9 7 16 16 16 9 0 14 -5 12 -12z m2332 -8 c-6 -11 -16 -17
-22 -14 -7 5 -5 12 7 21 25 18 28 17 15 -7z m-4635 -10 c22 -25 13 -50 -19
-50 -13 0 -38 -8 -56 -17 -30 -18 -31 -18 -48 5 -14 18 -20 20 -30 10 -10 -10
-15 -9 -28 4 -20 20 -9 42 17 35 12 -3 19 0 19 8 0 18 16 23 76 24 39 1 55 -4
69 -19z m2076 -22 c16 -18 29 -37 29 -43 0 -14 -48 -65 -61 -65 -6 0 -7 -14
-3 -36 6 -35 6 -36 -17 -29 -13 4 -30 12 -36 17 -9 7 -18 6 -28 -2 -20 -17
-32 -5 -15 15 7 9 21 13 31 10 22 -7 36 30 19 50 -18 22 15 115 42 115 5 0 22
-15 39 -32z m-2516 12 c-3 -5 -13 -10 -21 -10 -8 0 -12 5 -9 10 3 6 13 10 21
10 8 0 12 -4 9 -10z m2918 -4 c10 -8 27 -12 37 -9 11 3 20 0 20 -6 0 -6 -10
-11 -23 -11 -12 0 -28 -9 -34 -19 -11 -17 -17 -18 -45 -9 -18 6 -39 13 -47 15
-11 3 -8 10 9 28 26 28 56 31 83 11z m217 0 c0 -16 -18 -31 -27 -22 -8 8 5 36
17 36 5 0 10 -6 10 -14z m1863 -11 c1 -5 -6 -11 -15 -13 -11 -2 -18 3 -18 13
0 17 30 18 33 0z m-2645 -20 c8 -8 -10 -25 -26 -25 -24 0 -46 16 -38 28 6 9
54 7 64 -3z m722 5 c0 -12 -28 -25 -36 -17 -9 9 6 27 22 27 8 0 14 -5 14 -10z
m2870 0 c0 -5 -7 -10 -15 -10 -8 0 -15 5 -15 10 0 6 7 10 15 10 8 0 15 -4 15
-10z m86 -11 c3 -6 1 -22 -6 -35 -11 -19 -11 -26 0 -39 7 -8 18 -15 24 -15 6
0 18 -4 26 -10 11 -7 7 -15 -23 -44 -33 -31 -40 -34 -62 -24 -14 6 -25 15 -25
19 0 4 -7 15 -16 24 -15 15 -15 18 5 39 11 12 21 30 21 40 0 42 38 73 56 45z
m209 -1 c7 -6 -42 -48 -56 -48 -16 0 -9 39 8 48 17 10 38 10 48 0z m-6190 -47
c-6 -5 -20 -12 -32 -16 -28 -8 -31 10 -6 37 15 17 18 17 32 3 9 -9 12 -18 6
-24z m2621 28 c3 -6 1 -16 -5 -22 -6 -6 -11 -21 -11 -32 0 -27 -10 -38 -24
-25 -7 5 -10 27 -8 49 3 32 8 41 22 41 11 0 22 -5 26 -11z m3714 -30 c0 -5
-17 -9 -37 -9 l-38 1 24 19 c18 16 27 18 37 9 8 -6 14 -15 14 -20z m-6502 0
c-2 -6 -8 -10 -13 -10 -5 0 -11 4 -13 10 -2 6 4 11 13 11 9 0 15 -5 13 -11z
m1330 -11 c2 -12 -5 -19 -23 -24 -31 -8 -50 7 -41 31 8 22 60 16 64 -7z m4680
-3 c-13 -29 -26 -32 -35 -9 -6 16 12 34 34 34 10 0 10 -6 1 -25z m-5028 -5 c0
-11 -6 -20 -13 -20 -19 0 -27 10 -20 26 8 21 33 17 33 -6z m722 -2 c-6 -6 -15
-8 -19 -4 -4 4 -1 11 7 16 19 12 27 3 12 -12z m1469 -5 c13 -16 12 -17 -3 -4
-10 7 -18 15 -18 17 0 8 8 3 21 -13z m-3107 -11 c13 -8 -24 -31 -40 -25 -8 3
-14 0 -14 -6 0 -6 14 -11 30 -11 25 0 30 -4 30 -25 0 -14 -6 -27 -12 -29 -7
-2 -28 -8 -46 -14 -26 -8 -35 -7 -47 5 -29 28 -29 59 1 92 24 27 33 31 58 25
17 -3 35 -9 40 -12z m1071 -27 c0 -28 -29 -25 -33 3 -3 19 0 23 15 20 10 -2
18 -12 18 -23z m222 9 c3 -9 -3 -24 -14 -35 -16 -16 -22 -18 -30 -7 -14 17 2
58 22 58 9 0 18 -7 22 -16z m-597 -19 c0 -8 -9 -15 -20 -15 -20 0 -26 11 -13
23 12 13 33 7 33 -8z m2200 -34 c0 -32 -11 -51 -30 -51 -25 0 -34 42 -13 58
24 18 43 15 43 -7z m-1803 3 c-3 -3 -12 -4 -19 -1 -8 3 -5 6 6 6 11 1 17 -2
13 -5z m457 0 c18 -7 21 -32 6 -54 -9 -13 -11 -13 -20 0 -7 12 -13 13 -28 3
-29 -18 -49 0 -34 31 12 26 41 34 76 20z m2303 0 c-3 -3 -12 -4 -19 -1 -8 3
-5 6 6 6 11 1 17 -2 13 -5z m-3117 -54 c0 -5 -5 -10 -11 -10 -5 0 -7 5 -4 10
3 6 8 10 11 10 2 0 4 -4 4 -10z m1694 4 c9 -3 16 -17 16 -30 0 -27 -15 -32
-24 -8 -3 8 -10 12 -16 9 -5 -3 -10 -4 -10 -1 0 2 -3 11 -6 20 -6 17 11 21 40
10z m916 -4 c0 -5 -5 -10 -11 -10 -5 0 -7 5 -4 10 3 6 8 10 11 10 2 0 4 -4 4
-10z m3280 -15 c0 -8 -4 -15 -9 -15 -13 0 -22 16 -14 24 11 11 23 6 23 -9z
m-5168 -19 c6 -14 8 -32 5 -40 -9 -23 -44 -20 -57 4 -7 12 -7 20 -1 20 5 0 13
9 16 20 9 27 23 25 37 -4z m5118 14 c11 -7 7 -10 -18 -10 -20 0 -31 4 -27 10
8 13 26 13 45 0z m-2770 -4 c0 -2 -7 -7 -16 -10 -8 -3 -12 -2 -9 4 6 10 25 14
25 6z m-3862 -12 c16 -5 22 -14 22 -35 0 -33 -4 -34 -54 -14 -39 16 -43 24
-24 43 13 13 23 14 56 6z m1130 -16 c7 -7 12 -19 12 -27 0 -15 -38 -61 -50
-61 -10 0 -22 79 -15 91 9 13 39 11 53 -3z m1442 -28 c0 -11 -41 -31 -49 -24
-2 2 -1 10 2 19 7 17 47 21 47 5z m2884 -15 c21 -32 20 -37 -6 -33 -17 2 -24
11 -26 31 -4 34 10 35 32 2z m1144 -7 c-3 -7 -11 -13 -18 -13 -7 0 -15 6 -17
13 -3 7 4 12 17 12 13 0 20 -5 18 -12z m-5168 -8 c0 -5 -5 -10 -11 -10 -5 0
-7 5 -4 10 3 6 8 10 11 10 2 0 4 -4 4 -10z m2330 6 c0 -2 -8 -10 -17 -17 -16
-13 -17 -12 -4 4 13 16 21 21 21 13z m-1250 -9 c0 -2 -13 -13 -30 -25 -24 -18
-30 -20 -30 -7 0 9 10 20 23 25 24 9 37 12 37 7z m-2382 -19 c13 -13 17 -68 4
-68 -10 0 -52 56 -52 70 0 14 33 13 48 -2z m3825 5 c-7 -2 -19 -2 -25 0 -7 3
-2 5 12 5 14 0 19 -2 13 -5z m-1143 -15 c0 -14 -46 -39 -55 -30 -3 3 -5 11 -5
18 0 11 9 15 53 23 4 0 7 -5 7 -11z m852 -10 c-7 -7 -12 -19 -12 -27 0 -8 3
-11 7 -8 6 6 52 -59 53 -75 0 -15 -28 4 -39 25 l-12 22 5 -22 c2 -13 0 -23 -6
-23 -5 0 -6 -6 -3 -12 4 -7 -1 -4 -9 6 -19 23 -22 61 -5 50 9 -5 10 1 5 20 -6
25 6 56 22 56 3 0 1 -5 -6 -12z m-952 -14 c11 -12 11 -18 -2 -30 -14 -14 -17
-14 -32 1 -9 9 -16 23 -16 31 0 19 34 18 50 -2z m1470 -4 c0 -5 -17 -9 -37 -9
-38 1 -38 1 -8 9 43 11 45 11 45 0z m83 3 c-13 -2 -35 -2 -50 0 -16 2 -5 4 22
4 28 0 40 -2 28 -4z m-2226 -67 c-5 -62 -13 -80 -34 -72 -8 3 -29 -1 -46 -10
-29 -14 -28 -11 16 31 27 27 50 60 54 76 9 46 14 34 10 -25z m2036 47 c-7 -2
-19 -2 -25 0 -7 3 -2 5 12 5 14 0 19 -2 13 -5z m-3987 -42 c7 -13 17 -28 23
-34 17 -17 13 -30 -8 -24 -12 3 -27 -3 -38 -15 -12 -14 -25 -18 -45 -14 -22 4
-27 1 -30 -17 -4 -26 -38 -37 -38 -12 0 8 6 18 14 21 8 3 12 13 9 23 -5 20 73
104 91 98 6 -2 16 -14 22 -26z m481 13 c-3 -3 -12 -4 -19 -1 -8 3 -5 6 6 6 11
1 17 -2 13 -5z m3183 -8 c0 -3 -4 -8 -10 -11 -5 -3 -10 -1 -10 4 0 6 5 11 10
11 6 0 10 -2 10 -4z m-2706 -67 c-8 -74 -30 -135 -64 -177 -29 -37 -40 -41
-33 -12 6 21 -11 28 -23 8 -5 -7 -2 -9 7 -4 8 4 6 1 -3 -6 -9 -8 -26 -25 -38
-39 l-20 -24 17 40 c10 22 37 71 61 109 24 37 52 87 63 110 17 40 28 56 36 56
2 0 1 -28 -3 -61z m896 37 c0 -3 -4 -8 -10 -11 -5 -3 -10 -1 -10 4 0 6 5 11
10 11 6 0 10 -2 10 -4z m-1451 -22 c3 -3 0 -13 -6 -22 -8 -12 -23 -16 -53 -15
-57 3 -70 17 -34 37 26 15 79 15 93 0z m1628 -47 c-24 -41 -69 -86 -150 -152
-22 -18 -33 -33 -28 -40 16 -19 59 -135 50 -135 -4 0 -11 5 -14 10 -5 8 -11 7
-21 -1 -10 -8 -11 -15 -4 -24 5 -6 7 -15 3 -19 -4 -4 1 -4 10 0 10 3 17 3 15
-2 -5 -15 28 -54 38 -46 5 4 0 -3 -10 -15 -27 -32 -68 -30 -108 6 l-32 29 34
40 c19 22 41 41 49 41 9 1 11 7 6 19 -4 9 -13 32 -20 50 l-12 34 -31 -38 c-37
-44 -49 -40 -32 11 8 25 21 39 44 49 31 13 68 51 116 120 14 20 35 48 48 62
12 14 22 29 22 34 0 8 40 19 49 13 2 -1 -8 -22 -22 -46z m628 23 c-3 -5 -11
-10 -16 -10 -6 0 -7 5 -4 10 3 6 11 10 16 10 6 0 7 -4 4 -10z m935 0 c0 -5 -2
-10 -4 -10 -3 0 -8 5 -11 10 -3 6 -1 10 4 10 6 0 11 -4 11 -10z m347 -6 c-3
-3 -12 -4 -19 -1 -8 3 -5 6 6 6 11 1 17 -2 13 -5z m183 -16 c0 -5 -9 -4 -20 2
-11 6 -20 12 -20 14 0 2 9 2 20 -1 11 -3 20 -9 20 -15z m-2390 -18 c-9 -6 -14
-21 -12 -40 2 -16 -1 -30 -7 -30 -17 0 -10 70 8 80 20 11 30 2 11 -10z m60 11
c0 -5 -6 -14 -14 -20 -12 -10 -14 -9 -11 6 2 10 4 19 4 21 2 6 21 1 21 -7z
m2850 -1 c0 -5 -4 -10 -10 -10 -5 0 -10 5 -10 10 0 6 5 10 10 10 6 0 10 -4 10
-10z m-617 -7 c-7 -2 -19 -2 -25 0 -7 3 -2 5 12 5 14 0 19 -2 13 -5z m-4025
-58 c-4 -40 -31 -54 -57 -31 -30 27 -26 45 12 61 38 16 50 8 45 -30z m116 39
c9 -3 16 -13 16 -21 0 -12 -7 -14 -27 -8 -34 8 -37 11 -28 24 7 12 17 14 39 5z
m3979 -11 c-7 -2 -19 -2 -25 0 -7 3 -2 5 12 5 14 0 19 -2 13 -5z m2147 -3 c0
-14 -39 -32 -52 -24 -7 5 -5 11 7 21 22 15 45 17 45 3z m128 -23 c2 -10 -4
-20 -13 -23 -21 -9 -28 0 -20 26 8 24 28 22 33 -3z m-4846 -19 c-11 -18 -32
-55 -47 -83 -24 -47 -26 -48 -19 -15 8 41 30 88 53 112 27 28 34 20 13 -14z
m-1252 3 c0 -12 -20 -25 -27 -18 -7 7 6 27 18 27 5 0 9 -4 9 -9z m1150 -25 c0
-3 -4 -8 -10 -11 -5 -3 -10 -1 -10 4 0 6 5 11 10 11 6 0 10 -2 10 -4z m-1470
-26 c0 -5 -7 -10 -15 -10 -8 0 -15 5 -15 10 0 6 7 10 15 10 8 0 15 -4 15 -10z
m1135 -33 c18 -28 59 -177 50 -185 -10 -10 -33 32 -60 110 -23 66 -26 98 -10
98 3 0 11 -10 20 -23z m3195 -17 c0 -5 -2 -10 -4 -10 -3 0 -8 5 -11 10 -3 6
-1 10 4 10 6 0 11 -4 11 -10z m-3000 -30 c0 -5 -5 -10 -11 -10 -5 0 -7 5 -4
10 3 6 8 10 11 10 2 0 4 -4 4 -10z m76 -15 c-2 -7 2 -16 10 -19 10 -4 13 -2 8
7 -5 7 -1 6 10 -3 10 -8 36 -15 58 -16 59 -3 88 -13 88 -29 0 -9 -13 -18 -30
-21 -16 -4 -30 -10 -30 -15 0 -5 -7 -9 -16 -9 -9 0 -30 -6 -47 -14 -75 -32
-115 -46 -159 -57 -51 -12 -57 -19 -33 -42 17 -17 10 -27 -21 -27 -22 0 -36
-28 -39 -78 -1 -26 -32 -55 -82 -78 -42 -18 -69 -64 -39 -64 8 0 16 -6 19 -14
6 -14 -50 -56 -82 -62 -8 -2 -26 -6 -39 -9 -18 -4 -31 0 -48 16 -23 22 -24 22
-24 3 0 -27 -25 -61 -34 -46 -5 9 -12 8 -26 0 -15 -10 -30 -10 -66 0 -26 7
-48 11 -50 9 -2 -2 -9 -30 -15 -62 -6 -33 -17 -64 -24 -70 -15 -11 -9 -65 7
-65 5 0 6 -4 3 -10 -4 -6 8 -10 29 -10 20 0 36 -4 36 -10 0 -5 -7 -10 -15 -10
-9 0 -15 -9 -15 -25 0 -18 -5 -25 -19 -25 -24 0 -37 -31 -17 -42 8 -5 13 -17
11 -27 -2 -11 3 -22 11 -25 9 -3 12 -11 9 -17 -4 -6 -13 -8 -20 -5 -19 7 -27
-5 -14 -20 8 -10 8 -15 -4 -19 -11 -5 -13 -14 -7 -39 4 -19 11 -39 15 -45 4
-8 -1 -14 -14 -18 -12 -3 -21 -13 -21 -25 0 -11 -31 -50 -69 -89 l-68 -69 -13
47 c-6 27 -14 54 -16 61 -2 6 -10 12 -19 12 -26 0 -75 29 -75 45 0 8 4 15 8
15 5 0 18 9 30 20 12 12 22 18 22 14 0 -4 10 5 21 20 12 15 19 29 17 31 -2 2
-23 -2 -46 -10 -22 -8 -48 -12 -57 -9 -8 4 -37 0 -63 -9 -26 -8 -60 -18 -77
-21 -16 -4 -38 -9 -49 -13 -16 -4 -15 0 8 30 16 21 24 41 20 51 -3 9 -1 22 5
30 9 11 4 18 -26 33 -20 11 -38 24 -40 30 -4 12 109 109 156 135 20 11 38 33
50 61 13 31 28 48 50 57 18 7 30 18 28 24 -4 12 -66 9 -82 -4 -13 -11 -55 -9
-55 2 0 4 7 8 16 8 11 0 14 6 9 21 -5 14 -3 19 4 15 7 -5 9 3 5 24 -4 19 -2
30 5 30 6 0 11 5 11 11 0 5 -4 8 -9 5 -5 -4 -16 -3 -25 0 -13 5 -14 9 -5 21
10 11 6 20 -17 46 -16 18 -32 36 -35 40 -4 5 -23 2 -43 -7 l-36 -15 -8 32 c-9
34 -16 36 -92 21 -32 -6 -34 -5 -19 10 9 10 27 17 40 18 32 0 129 49 129 64 0
15 -28 26 -35 14 -10 -16 -25 -11 -19 5 4 10 0 15 -14 15 -28 0 -34 13 -18 35
11 15 16 16 37 4 13 -7 30 -12 36 -11 19 4 53 -17 53 -33 0 -8 -6 -18 -14 -22
-8 -4 -18 -20 -21 -35 -6 -22 -4 -28 8 -28 31 0 69 -24 83 -53 22 -41 25 -30
8 33 -10 37 -11 62 -5 75 17 37 18 50 6 75 -12 23 -19 60 -16 85 2 20 66 50
108 51 40 1 42 0 48 -34 7 -36 -7 -57 -31 -48 -8 3 -11 -6 -10 -25 2 -33 -14
-52 -37 -43 -8 3 -18 1 -21 -4 -8 -13 43 -74 55 -67 4 3 20 -14 35 -37 14 -24
38 -61 53 -83 36 -52 71 -157 71 -212 0 -24 4 -43 9 -43 5 0 9 31 9 69 0 61
-4 76 -30 118 -24 37 -32 63 -36 113 -6 80 -15 100 -42 93 -12 -3 -20 0 -20 7
0 6 8 14 18 17 14 3 18 12 15 31 -4 23 4 18 60 -40 l65 -68 11 28 c6 15 13 50
15 79 3 28 13 90 22 137 16 76 21 86 40 86 12 0 27 -6 33 -13 13 -16 13 -119
0 -111 -5 3 -7 9 -4 14 3 4 1 10 -4 12 -6 1 -11 15 -13 30 -2 15 -7 30 -10 33
-11 12 -20 -35 -12 -68 4 -17 7 -40 5 -49 -3 -23 29 -69 42 -61 6 4 7 1 1 -8
-12 -20 -13 -92 -1 -106 7 -10 4 -13 -11 -13 -25 0 -37 -20 -46 -79 -8 -49 11
-81 48 -81 12 0 30 -7 40 -15 11 -8 25 -15 31 -15 13 0 35 42 35 67 0 14 -4
13 -23 -6 -15 -13 -30 -19 -40 -15 -25 9 -21 20 16 47 53 40 56 40 67 12 7
-20 15 -25 27 -21 9 4 37 10 62 13 l44 6 -29 24 c-28 22 -28 24 -14 49 16 29
21 33 93 65 37 17 46 25 41 38 -4 9 -9 30 -12 48 -5 37 16 55 95 78 27 8 58
24 68 35 10 11 34 30 52 41 18 11 33 27 33 35 0 24 20 55 31 48 6 -3 8 -12 5
-19z m3619 -22 c14 -21 25 -42 25 -47 0 -11 -59 65 -60 77 0 15 10 6 35 -30z
m-5002 5 c6 -18 -11 -48 -28 -48 -21 0 -27 17 -15 40 12 22 36 27 43 8z m1657
-7 c-15 -30 -13 -32 30 -25 21 4 51 3 65 0 l26 -7 -36 -32 c-21 -18 -75 -68
-122 -112 -73 -70 -84 -84 -81 -110 3 -29 2 -30 -41 -29 -45 1 -71 21 -71 53
0 33 62 122 113 162 28 23 53 47 53 53 1 6 2 17 3 25 1 11 4 11 16 1 9 -8 15
-8 15 -2 0 10 27 42 36 42 3 0 0 -9 -6 -19z m-1576 -16 c-6 -16 -24 -21 -24
-7 0 11 11 22 21 22 5 0 6 -7 3 -15z m216 -86 c0 -14 -7 -19 -30 -19 -32 0
-53 26 -31 39 21 14 61 0 61 -20z m5308 14 c2 -8 -6 -13 -22 -13 -25 0 -33 10
-19 24 10 10 36 3 41 -11z m-5398 -39 c0 -14 -21 -19 -33 -7 -9 9 13 34 24 27
5 -3 9 -12 9 -20z m5288 -11 c-5 -25 -28 -28 -28 -4 0 12 6 21 16 21 9 0 14
-7 12 -17z m-5188 -14 c0 -11 -4 -17 -10 -14 -5 3 -10 13 -10 21 0 8 5 14 10
14 6 0 10 -9 10 -21z m341 11 c18 -10 18 -13 4 -40 -16 -30 -44 -41 -46 -17
-1 6 -2 19 -3 27 -1 15 12 40 21 40 2 0 13 -5 24 -10z m179 -12 c0 -12 -3 -18
-7 -14 -11 10 -12 36 -2 36 5 0 9 -10 9 -22z m-5 -29 c11 -2 26 0 33 4 7 5 12
4 12 -2 0 -6 -4 -11 -10 -11 -5 0 -10 -17 -10 -37 0 -30 3 -35 11 -23 9 12 10
12 5 -3 -3 -10 -6 -26 -6 -34 0 -13 -3 -13 -15 -3 -13 11 -18 10 -30 -6 -12
-16 -14 -17 -15 -3 0 9 -3 32 -6 50 -6 28 -4 32 7 22 19 -19 29 -16 29 7 0 13
-7 20 -20 20 -14 0 -20 7 -20 23 0 13 3 17 8 11 4 -7 16 -13 27 -15z m-768
-25 c3 -8 1 -20 -5 -26 -6 -6 -8 -17 -4 -26 5 -13 2 -13 -18 1 -14 9 -32 17
-42 17 -12 0 -18 8 -18 21 0 15 5 19 18 15 9 -3 24 -1 32 4 21 14 30 12 37 -6z
m-59 -81 c-4 -34 -28 -43 -28 -10 0 25 7 37 22 37 5 0 8 -12 6 -27z m1302 -3
c0 -5 -5 -10 -11 -10 -5 0 -7 5 -4 10 3 6 8 10 11 10 2 0 4 -4 4 -10z m3681
-137 c13 -16 12 -17 -3 -4 -10 7 -18 15 -18 17 0 8 8 3 21 -13z m53 -88 c-4
-8 -8 -15 -10 -15 -2 0 -4 7 -4 15 0 8 4 15 10 15 5 0 7 -7 4 -15z m-4974 -16
c0 -6 -4 -7 -10 -4 -5 3 -10 11 -10 16 0 6 5 7 10 4 6 -3 10 -11 10 -16z
m1520 -15 c0 -8 -4 -12 -10 -9 -5 3 -10 13 -10 21 0 8 5 12 10 9 6 -3 10 -13
10 -21z m36 -42 c-18 -16 -18 -16 -6 6 6 13 14 21 18 18 3 -4 -2 -14 -12 -24z
m-1696 8 c0 -5 -2 -10 -4 -10 -3 0 -8 5 -11 10 -3 6 -1 10 4 10 6 0 11 -4 11
-10z m72 -61 c41 10 46 4 40 -41 -5 -32 -6 -32 -81 -14 -58 13 -75 30 -42 41
12 3 21 11 21 17 0 7 4 7 13 0 8 -7 26 -8 49 -3z m203 -8 c17 -7 14 -10 -19
-19 -45 -13 -55 -9 -36 13 14 16 25 18 55 6z m539 -26 c3 -8 2 -15 -3 -15 -5
0 -14 7 -21 15 -10 12 -10 15 3 15 8 0 17 -7 21 -15z m2358 -4 c-18 -3 -33
-10 -33 -14 -1 -22 28 -67 43 -68 31 -2 36 -4 45 -12 12 -13 -25 -36 -47 -30
-12 3 -32 -5 -51 -21 -17 -14 -35 -26 -40 -26 -6 0 -8 -4 -5 -9 3 -5 0 -11 -8
-14 -8 -3 -12 -15 -9 -31 3 -14 8 -24 12 -22 3 2 37 0 74 -4 52 -6 72 -12 83
-28 9 -14 21 -19 36 -15 16 3 19 2 10 -4 -9 -7 -1 -13 27 -23 22 -7 38 -17 34
-22 -3 -6 16 -9 48 -8 109 5 128 2 122 -19 -4 -17 -25 -27 -71 -37 -32 -6 -22
-14 15 -11 23 1 39 5 37 9 -2 3 11 6 29 6 17 0 44 5 58 11 15 5 30 7 33 4 3
-4 11 8 17 25 7 21 18 32 30 32 10 0 19 7 19 15 0 8 5 16 10 16 6 1 16 2 23 3
6 1 18 -2 25 -7 7 -6 12 -6 12 0 0 5 7 18 15 29 14 18 15 18 6 -6 -5 -14 -17
-42 -26 -63 -9 -22 -11 -36 -6 -32 18 10 13 -4 -19 -60 -39 -68 -107 -138
-126 -131 -9 4 -12 2 -8 -5 4 -8 -1 -9 -15 -4 -14 4 -31 1 -46 -9 -17 -11 -48
-16 -102 -16 -97 0 -160 10 -141 21 9 6 7 9 -9 9 -12 0 -24 -6 -27 -12 -3 -10
-8 -9 -18 4 -10 11 -23 14 -42 11 -22 -5 -27 -3 -21 7 6 10 2 11 -19 6 -20 -5
-26 -4 -20 5 5 9 2 10 -9 6 -33 -13 -147 55 -171 101 -26 50 -40 199 -28 288
20 147 40 164 192 162 56 0 81 -3 62 -7z m-2304 -17 c25 -7 30 -40 8 -69 -13
-18 -14 -18 -23 1 -15 28 -25 74 -16 74 5 0 18 -3 31 -6z m-654 -19 c3 -9 0
-15 -9 -15 -8 0 -15 7 -15 15 0 8 4 15 9 15 5 0 11 -7 15 -15z m36 -5 c0 -5
-4 -10 -10 -10 -5 0 -10 5 -10 10 0 6 5 10 10 10 6 0 10 -4 10 -10z m4988 -61
c-18 -12 -23 17 -6 38 12 15 13 14 16 -7 2 -12 -2 -27 -10 -31z m-4035 -30
c14 -22 2 -49 -22 -49 -22 0 -39 40 -26 60 9 15 35 9 48 -11z m3487 17 c0 -3
-4 -8 -10 -11 -5 -3 -10 -1 -10 4 0 6 5 11 10 11 6 0 10 -2 10 -4z m-3760 -21
c15 -19 12 -22 -22 -29 -19 -3 -27 0 -31 14 -3 10 -2 21 1 24 11 11 40 6 52
-9z m3946 -16 c78 -29 88 -51 81 -173 -6 -103 -25 -192 -54 -254 -28 -59 -111
-96 -213 -93 -39 1 -51 -2 -40 -9 10 -6 -13 -9 -75 -9 -57 1 -83 4 -70 9 17 7
15 9 -11 9 -44 1 -179 30 -219 47 -40 16 -87 65 -92 94 -3 19 0 21 24 16 16
-3 49 -8 75 -10 25 -3 56 -9 67 -15 29 -16 263 -23 314 -10 23 5 58 12 77 15
19 3 39 9 45 14 7 6 15 7 18 3 4 -3 7 -1 7 6 0 7 8 11 18 10 41 -5 105 45 84
66 -4 3 -8 27 -8 53 -1 25 -6 48 -12 50 -7 2 -7 14 -2 33 5 17 5 29 -1 29 -5
0 -9 7 -9 16 0 8 -4 12 -10 9 -5 -3 -8 0 -5 7 8 20 -54 90 -73 83 -9 -3 -13
-3 -9 2 5 4 -7 13 -25 20 -32 13 -32 13 17 7 27 -3 73 -15 101 -25z m599 -39
c4 -6 -1 -23 -10 -37 -14 -20 -19 -23 -26 -12 -16 26 -10 59 10 59 11 0 23 -5
26 -10z m1369 -11 c16 -14 22 -27 18 -42 -7 -31 -30 -54 -50 -53 -27 2 -62 29
-62 47 0 9 -7 20 -16 23 -23 9 -10 19 39 32 23 6 43 12 44 13 2 0 14 -8 27
-20z m-1700 -46 c-8 -35 -19 -47 -33 -39 -25 16 -4 66 26 66 9 0 11 -8 7 -27z
m230 -1 c23 -22 41 -58 50 -102 7 -39 -12 -182 -24 -175 -5 3 -11 -1 -13 -7
-3 -7 -3 9 0 37 2 27 6 52 9 56 2 4 6 23 9 42 6 37 -16 107 -34 107 -5 0 -16
2 -23 5 -8 3 -41 -15 -73 -40 -32 -25 -65 -45 -73 -45 -9 0 -23 -6 -31 -14
-13 -12 -19 -12 -34 -1 -15 10 -16 18 -8 33 6 11 7 22 4 26 -11 11 74 85 104
92 16 3 33 7 38 9 20 8 80 -7 99 -23z m1596 14 c0 -34 -23 -76 -41 -76 -30 0
-33 25 -8 59 24 32 49 41 49 17z m-260 -13 c0 -13 -61 -43 -87 -43 -7 0 -27
10 -43 22 -40 29 -24 38 62 35 46 -1 68 -6 68 -14z m-4840 -13 c0 -12 -28 -25
-36 -17 -9 9 6 27 22 27 8 0 14 -5 14 -10z m-1820 -15 c0 -8 9 -15 19 -15 11
0 23 -4 26 -10 8 -14 -28 -13 -60 2 -27 12 -32 24 -12 31 21 9 27 7 27 -8z
m2190 -50 c0 -25 -6 -61 -14 -80 -8 -19 -17 -73 -20 -120 -6 -108 -24 -141
-122 -220 -40 -33 -74 -65 -74 -71 0 -6 -9 -19 -20 -29 -11 -10 -20 -24 -20
-32 0 -8 -11 -29 -25 -47 -14 -18 -25 -37 -25 -41 0 -4 -11 -22 -24 -39 -13
-17 -26 -41 -30 -53 -9 -27 -74 -86 -87 -78 -12 8 -12 85 0 85 20 0 41 33 41
64 0 41 28 78 86 112 24 14 44 29 44 33 0 4 -26 6 -57 3 -76 -6 -66 4 12 12
45 5 65 13 78 29 10 12 27 32 37 43 17 21 17 23 0 52 -29 48 -21 79 33 124 26
22 54 56 62 74 18 43 45 46 45 5 0 -17 -4 -33 -10 -36 -5 -3 -10 -13 -10 -21
0 -13 2 -13 13 -2 15 16 37 78 37 104 0 11 9 46 20 78 12 32 18 66 15 77 -4
11 -2 19 4 19 6 0 11 -20 11 -45z m-2233 -1 c-3 -3 -12 -4 -19 -1 -8 3 -5 6 6
6 11 1 17 -2 13 -5z m150 0 c-3 -3 -12 -4 -19 -1 -8 3 -5 6 6 6 11 1 17 -2 13
-5z m1133 -3 c0 -20 -13 -41 -25 -41 -23 0 -28 21 -9 35 22 17 34 19 34 6z
m2095 -1 c-3 -5 -12 -10 -18 -10 -7 0 -6 4 3 10 19 12 23 12 15 0z m3498 -41
c6 -9 7 -36 3 -63 -7 -44 -9 -46 -21 -29 -18 22 -19 37 -3 27 6 -4 4 3 -5 17
-22 31 -23 72 -1 67 9 -2 21 -10 27 -19z m-5094 -31 c0 -18 -3 -27 -6 -20 -2
6 -11 12 -19 12 -8 0 -14 5 -14 10 0 6 7 10 15 10 8 0 15 5 15 10 0 6 2 10 5
10 3 0 5 -15 4 -32z m726 -27 c3 -5 1 -12 -4 -15 -5 -3 -11 1 -15 9 -6 16 9
21 19 6z m-995 -15 c0 -8 -4 -17 -9 -21 -12 -7 -24 12 -16 25 9 15 25 12 25
-4z m279 -60 c1 -19 -15 -51 -47 -95 -26 -36 -58 -91 -72 -121 -13 -30 -32
-67 -42 -82 -22 -32 -8 -46 23 -24 14 9 33 12 55 9 29 -5 39 -1 66 27 26 28
29 36 19 51 -6 10 -11 26 -11 34 0 13 131 155 143 155 3 0 7 -10 11 -22 6 -24
11 -20 94 77 19 24 49 38 56 27 9 -15 -23 -69 -58 -97 -114 -92 -236 -225
-236 -259 0 -7 -21 -24 -47 -38 -27 -13 -70 -36 -98 -51 -27 -15 -81 -37 -118
-50 -37 -13 -68 -28 -67 -33 1 -5 8 -8 16 -6 18 4 18 -3 -6 -67 -22 -62 -17
-55 -55 -73 -36 -17 -67 -13 -82 10 -14 23 3 47 46 65 l32 14 -20 24 c-25 32
-98 34 -132 4 -22 -20 -23 -19 -4 28 7 17 6 18 -14 6 -11 -8 -21 -19 -21 -25
0 -7 -7 -14 -15 -18 -23 -8 -18 10 10 39 14 14 36 25 48 25 12 0 35 11 51 23
25 20 27 25 13 30 -10 4 -17 2 -17 -3 0 -6 -20 -10 -45 -10 -25 0 -44 -3 -43
-7 2 -5 -1 -10 -7 -13 -5 -3 -11 5 -13 17 -5 33 75 84 130 83 76 -2 82 -1 133
10 28 6 65 13 83 15 41 5 52 12 52 31 0 8 4 12 10 9 5 -3 31 39 56 95 26 55
51 100 56 100 5 0 7 4 3 10 -6 9 10 44 33 68 13 14 15 24 13 57 l-1 20 9 -20
c5 -11 10 -33 10 -49z m682 45 c-6 -10 -7 -22 -3 -26 4 -5 1 -5 -6 -1 -9 5 -9
12 -2 27 6 10 13 19 16 19 2 0 0 -8 -5 -19z m-2421 2 c0 -5 -14 -9 -30 -10
-18 -1 -28 2 -25 7 7 12 55 14 55 3z m6960 -38 c0 -19 -36 -39 -45 -25 -8 13
13 40 31 40 8 0 14 -7 14 -15z m-1751 -19 c9 -11 9 -16 0 -22 -8 -5 -9 -3 -4
6 5 9 4 11 -4 6 -7 -5 -9 -12 -3 -19 17 -23 12 -84 -8 -102 -19 -17 -20 -17
-20 -1 0 10 5 14 12 10 8 -5 9 0 5 17 -4 13 -7 34 -7 47 0 13 -4 21 -9 17 -5
-3 -3 8 5 25 18 35 18 35 33 16z m1129 -14 c4 -26 -22 -31 -32 -6 -10 26 -7
36 12 32 9 -2 18 -13 20 -26z m-6374 -83 c-12 -19 -24 -8 -20 19 6 39 6 39 17
14 5 -13 7 -28 3 -33z m651 31 c3 -5 -1 -10 -10 -10 -9 0 -13 5 -10 10 3 6 8
10 10 10 2 0 7 -4 10 -10z m825 -92 c0 -27 -29 -21 -40 8 -6 14 -10 40 -10 57
l1 32 24 -40 c14 -22 25 -48 25 -57z m5520 84 c0 -16 -38 -44 -56 -40 -30 5
-26 23 8 34 44 15 48 15 48 6z m-580 -32 c0 -5 -4 -10 -10 -10 -5 0 -10 5 -10
10 0 6 5 10 10 10 6 0 10 -4 10 -10z m-884 -11 c9 -15 -15 -36 -48 -44 -28 -7
-37 6 -20 31 14 22 57 30 68 13z m1704 -8 c0 -14 -29 -41 -45 -41 -18 0 -26
25 -12 39 13 13 57 15 57 2z m-1504 -58 c-11 -11 -19 6 -11 24 8 17 8 17 12 0
3 -10 2 -21 -1 -24z m-4164 -26 c-9 -18 -24 12 -16 34 l8 24 6 -25 c4 -14 5
-29 2 -33z m5028 8 c-11 -14 -40 -21 -40 -11 0 2 10 16 23 30 17 19 23 22 25
10 2 -8 -2 -21 -8 -29z m-5070 25 c0 -5 -5 -10 -11 -10 -5 0 -7 5 -4 10 3 6 8
10 11 10 2 0 4 -4 4 -10z m3672 -9 c-7 -4 -12 -14 -10 -21 2 -7 -3 -15 -10
-17 -8 -3 -10 1 -5 14 9 26 25 45 32 38 3 -3 0 -10 -7 -14z m1288 9 c0 -5 -4
-10 -10 -10 -5 0 -10 5 -10 10 0 6 5 10 10 10 6 0 10 -4 10 -10z m-6090 -34
c0 -11 -19 -15 -25 -6 -3 5 1 10 9 10 9 0 16 -2 16 -4z m6590 -32 c0 -29 11
-31 28 -3 17 27 56 22 60 -8 3 -19 -3 -23 -38 -29 -22 -4 -43 -11 -46 -15 -11
-19 -35 -9 -33 14 2 12 0 28 -5 35 -11 19 1 43 19 36 8 -3 15 -17 15 -30z
m-7036 11 c3 -9 0 -15 -9 -15 -8 0 -15 7 -15 15 0 8 4 15 9 15 5 0 11 -7 15
-15z m366 -11 c0 -14 -4 -23 -9 -20 -5 3 -7 15 -4 26 7 28 13 25 13 -6z m895
6 c4 -6 4 -18 1 -27 -5 -12 -9 -13 -21 -3 -8 7 -15 19 -15 26 0 16 26 19 35 4z
m5220 -30 c3 -5 1 -10 -4 -10 -6 0 -11 5 -11 10 0 6 2 10 4 10 3 0 8 -4 11
-10z m-943 -32 c-15 -15 -26 -4 -18 18 5 13 9 15 18 6 9 -9 9 -15 0 -24z
m-5512 2 c0 -13 -30 -13 -50 0 -11 7 -7 10 18 10 17 0 32 -4 32 -10z m284 -5
c-4 -8 -8 -15 -10 -15 -2 0 -4 7 -4 15 0 8 4 15 10 15 5 0 7 -7 4 -15z m244
-72 c-4 -26 -5 -25 -12 9 -5 21 -5 46 0 55 6 15 8 13 12 -9 2 -16 2 -40 0 -55z
m6445 51 c9 -10 -4 -34 -18 -34 -17 0 -28 17 -20 30 7 11 28 13 38 4z m-5943
-99 c0 -2 -9 -9 -19 -14 -14 -8 -20 -7 -25 4 -4 11 2 15 19 15 14 0 25 -2 25
-5z m5705 -35 c-23 -26 -55 -26 -55 -1 0 12 10 23 28 29 36 13 51 -2 27 -28z
m-6278 12 c22 -12 30 -21 24 -30 -11 -18 -87 -28 -105 -13 -19 16 -9 49 18 54
11 2 23 5 26 5 3 1 19 -7 37 -16z m6162 -26 c12 -14 5 -46 -9 -46 -5 0 -20 4
-35 10 -22 8 -24 13 -15 30 12 23 42 26 59 6z m-409 -15 c21 -40 -12 -67 -44
-35 -19 19 -20 26 -4 42 18 18 36 15 48 -7z m96 5 c8 -22 -14 -56 -36 -56 -25
0 -26 27 -3 52 19 22 32 23 39 4z m-3856 -6 c0 -5 -8 -10 -17 -10 -15 0 -16 2
-3 10 19 12 20 12 20 0z m-215 -9 c6 -11 -33 -26 -43 -16 -4 3 0 10 8 15 19
12 27 12 35 1z m4879 -26 c32 -9 69 -27 81 -39 17 -17 26 -20 38 -12 21 13 42
-6 34 -28 -7 -17 -42 -22 -52 -6 -8 13 -35 1 -35 -15 0 -30 -21 -23 -64 20
-29 28 -54 45 -70 45 -13 0 -34 8 -46 18 -21 17 -21 19 -6 35 12 12 23 14 39
8 12 -5 49 -16 81 -26z m-5926 20 c-3 -3 -19 -10 -37 -15 -24 -7 -31 -6 -31 6
0 10 12 14 37 14 20 0 34 -2 31 -5z m1162 -10 c7 -8 8 -15 2 -15 -5 0 -15 7
-22 15 -7 8 -8 15 -2 15 5 0 15 -7 22 -15z m-1621 -75 c1 -26 -16 10 -23 50
l-6 35 14 -35 c8 -19 15 -42 15 -50z m1794 58 c17 13 107 25 107 14 0 -11 -45
-32 -71 -32 -11 0 -33 -7 -49 -15 -28 -14 -30 -14 -26 2 1 10 7 27 12 38 8 18
9 19 12 2 2 -12 7 -15 15 -9z m3927 7 c19 -23 -1 -40 -29 -26 -24 13 -27 27
-8 34 20 9 24 8 37 -8z m310 -25 c0 -24 -26 -38 -42 -22 -8 8 -8 15 2 27 18
21 40 19 40 -5z m-484 -11 c3 -6 1 -16 -5 -22 -6 -6 -11 -24 -11 -39 0 -34
-27 -49 -45 -25 -7 10 -17 17 -24 17 -6 0 -11 7 -11 15 0 8 9 15 20 15 13 0
24 10 30 25 10 26 34 33 46 14z m-4956 -9 c0 -5 -9 -10 -21 -10 -11 0 -17 5
-14 10 3 6 13 10 21 10 8 0 14 -4 14 -10z m5604 -9 c9 -15 -23 -36 -36 -23 -5
5 -7 15 -4 21 9 13 33 14 40 2z m-4301 -8 c3 -5 -6 -9 -20 -10 -19 -1 -22 1
-12 8 17 11 26 11 32 2z m-288 -20 c-4 -10 -10 -26 -12 -35 -6 -21 -33 -24
-33 -5 0 17 29 57 42 57 6 0 7 -7 3 -17z m35 -23 c0 -5 -5 -10 -11 -10 -5 0
-7 5 -4 10 3 6 8 10 11 10 2 0 4 -4 4 -10z m-2030 -20 c0 -5 -5 -10 -11 -10
-5 0 -7 5 -4 10 3 6 8 10 11 10 2 0 4 -4 4 -10z m5563 -34 c7 -16 -1 -26 -20
-26 -7 0 -13 9 -13 20 0 23 25 27 33 6z m445 -19 c3 -26 1 -28 -25 -25 -31 3
-44 35 -21 49 23 15 43 5 46 -24z m1020 -21 c-2 -23 -8 -31 -23 -31 -15 0 -21
8 -23 34 -4 37 14 57 36 39 7 -6 12 -25 10 -42z m-6018 40 c0 -3 -4 -8 -10
-11 -5 -3 -10 -1 -10 4 0 6 5 11 10 11 6 0 10 -2 10 -4z m440 -3 c0 -8 -92
-143 -98 -143 -2 0 -2 7 2 15 3 8 2 24 -2 36 -7 19 -11 16 -37 -25 -24 -38
-38 -49 -77 -61 -48 -14 -117 -76 -110 -99 2 -7 -2 -6 -9 1 -9 9 -9 18 1 42 8
19 10 48 5 79 -6 46 -5 50 17 55 13 4 33 16 46 27 14 13 22 16 22 8 0 -9 3 -9
10 2 7 11 10 11 10 2 0 -7 5 -10 10 -7 6 3 10 2 10 -4 0 -5 13 -3 29 5 15 8
41 15 57 16 16 1 45 15 64 30 34 28 50 34 50 21z m-620 -28 c0 -9 -9 -15 -21
-15 -18 0 -19 2 -9 15 7 8 16 15 21 15 5 0 9 -7 9 -15z m4695 -41 c8 -47 -7
-64 -35 -39 -11 10 -19 23 -18 29 0 6 -2 19 -7 30 -5 12 -3 21 6 26 22 14 46
-7 54 -46z m-3860 36 c3 -5 1 -10 -4 -10 -6 0 -11 5 -11 10 0 6 2 10 4 10 3 0
8 -4 11 -10z m5164 1 c21 -13 -4 -81 -30 -81 -28 0 -33 23 -14 59 17 33 22 36
44 22z m-2526 -35 c4 -10 1 -13 -9 -9 -7 3 -14 9 -14 14 0 14 17 10 23 -5z
m-2645 -41 c-5 -22 -2 -25 23 -25 32 0 39 -15 11 -24 -9 -3 -63 -34 -119 -69
-55 -35 -142 -83 -192 -108 -84 -41 -104 -59 -82 -73 5 -3 25 1 44 9 37 15 47
12 47 -17 0 -24 7 -23 74 8 49 22 56 29 56 54 0 16 11 41 24 57 21 24 26 26
41 13 12 -10 16 -25 13 -53 l-4 -39 47 4 c25 2 52 -2 60 -9 8 -6 36 -20 63
-30 71 -26 68 -38 -10 -41 -56 -2 -72 -7 -103 -32 -20 -15 -87 -48 -149 -72
-86 -33 -114 -48 -117 -63 -8 -47 -22 -160 -19 -163 1 -2 24 13 51 33 44 33
52 36 93 30 51 -8 65 -17 57 -39 -7 -17 -123 -56 -167 -56 -16 0 -40 -11 -57
-27 -62 -58 -141 -149 -148 -171 -7 -23 -6 -23 19 -7 14 9 37 36 51 61 14 24
34 48 45 54 17 9 20 7 20 -14 0 -14 -4 -27 -8 -30 -5 -3 -46 -68 -93 -145 -76
-126 -86 -138 -100 -125 -18 16 -52 8 -46 -10 6 -17 -12 -46 -29 -46 -26 0
-58 -21 -45 -29 9 -6 8 -11 -4 -21 -13 -11 -15 -10 -9 4 3 9 1 16 -5 16 -6 0
-11 -4 -11 -10 0 -5 -7 -10 -15 -10 -8 0 -56 -21 -107 -47 -68 -36 -111 -67
-166 -121 -63 -61 -77 -71 -98 -66 -14 4 -28 13 -31 20 -8 20 102 182 164 242
83 80 140 112 201 112 50 0 52 1 99 57 26 32 74 85 105 118 45 48 66 82 99
160 59 142 78 177 109 202 28 23 36 59 24 114 -4 20 -11 27 -29 27 -14 0 -30
-7 -37 -16 -11 -13 -10 -14 10 -3 12 6 22 9 22 7 0 -12 -243 -423 -261 -441
-17 -17 -9 13 34 127 49 132 74 176 134 239 41 43 43 47 32 77 -9 26 -8 37 5
57 21 32 22 55 2 35 -20 -20 -124 -193 -137 -228 -6 -16 -13 -22 -17 -15 -11
17 -38 -7 -38 -34 0 -12 4 -19 8 -17 4 3 8 12 8 20 0 8 5 14 10 14 13 0 13 -4
-4 -43 -13 -31 -93 -117 -109 -117 -14 0 3 72 30 132 15 31 30 55 35 52 4 -3
5 1 2 9 -3 8 2 21 10 30 9 9 16 20 16 26 0 6 8 19 19 29 164 155 163 153 150
168 -10 12 -14 12 -20 2 -7 -10 -9 -10 -9 1 0 8 -7 11 -19 8 -14 -3 -18 -1
-14 9 3 8 -8 19 -29 28 -33 14 -33 14 -6 15 15 1 30 -4 33 -9 4 -6 21 -16 38
-24 27 -11 36 -11 55 2 21 14 82 93 82 106 0 14 -27 4 -52 -19 -33 -30 -38
-31 -38 -5 0 11 5 19 12 18 6 -2 16 12 21 30 5 17 17 33 26 33 9 1 39 2 66 3
28 1 68 10 90 19 22 10 62 23 88 29 35 7 46 13 38 21 -8 8 -6 16 7 28 24 25
35 23 30 -6z m402 -9 c0 -22 -27 -38 -50 -31 -20 6 -21 8 -4 26 20 22 54 25
54 5z m-1250 -6 c0 -5 -4 -10 -9 -10 -6 0 -13 5 -16 10 -3 6 1 10 9 10 9 0 16
-4 16 -10z m6020 -29 c0 -14 -18 -23 -30 -16 -6 4 -8 11 -5 16 8 12 35 12 35
0z m-6010 -31 c0 -5 -5 -10 -11 -10 -5 0 -7 5 -4 10 3 6 8 10 11 10 2 0 4 -4
4 -10z m1409 -4 c9 -11 10 -20 1 -35 -13 -25 -33 -27 -50 -6 -10 13 -10 19 5
35 22 24 29 25 44 6z m-475 -12 c7 -19 -1 -34 -19 -34 -18 0 -26 25 -12 39 15
15 24 14 31 -5z m-784 -41 c0 -5 -5 -15 -10 -23 -8 -12 -10 -11 -10 8 0 12 5
22 10 22 6 0 10 -3 10 -7z m-342 -16 c7 -8 7 -17 -1 -27 -17 -21 -164 -150
-171 -150 -4 0 7 26 23 58 36 70 92 126 132 131 4 1 11 -5 17 -12z m1695 -1
c3 -15 -29 -30 -49 -22 -18 7 -18 8 1 22 21 15 45 15 48 0z m3617 -25 c0 -5
-7 -11 -15 -15 -9 -3 -15 0 -15 9 0 8 7 15 15 15 8 0 15 -4 15 -9z m1010 -1
c0 -5 -5 -10 -11 -10 -5 0 -7 5 -4 10 3 6 8 10 11 10 2 0 4 -4 4 -10z m-6118
-76 c-9 -13 -23 -24 -29 -24 -16 0 -17 12 -2 27 9 9 8 16 -5 28 -28 28 -18 35
19 14 34 -20 34 -21 17 -45z m82 55 c-4 -7 6 -10 29 -8 51 5 56 -8 8 -16 -48
-8 -67 0 -50 21 14 17 23 19 13 3z m1120 -12 c8 -12 7 -20 -1 -28 -16 -16 -33
-2 -33 27 0 28 17 28 34 1z m154 11 c-6 -18 -28 -21 -28 -4 0 9 7 16 16 16 9
0 14 -5 12 -12z m-1068 -21 c8 -3 1 -6 -17 -6 -22 -1 -48 -15 -90 -50 -48 -40
-62 -47 -81 -40 -17 6 -24 5 -28 -6 -4 -8 -11 -15 -17 -15 -5 0 -2 9 8 20 10
11 22 17 26 14 5 -3 9 -1 9 4 0 5 25 20 55 32 61 25 74 37 54 52 -10 7 -6 8
13 4 15 -4 30 -1 34 5 4 7 9 7 13 2 3 -6 13 -13 21 -16z m1181 -35 c-6 -2 -11
-11 -11 -21 0 -18 -18 -41 -32 -41 -4 0 -8 11 -8 25 0 16 6 25 15 25 8 0 15 9
15 19 0 24 24 34 29 12 2 -8 -2 -17 -8 -19z m-1415 -11 c-6 -9 -56 -22 -56
-14 0 4 40 21 53 22 5 1 6 -3 3 -8z m1244 0 c0 -6 -8 -16 -17 -23 -10 -7 -20
-24 -21 -38 -4 -30 -29 -60 -49 -60 -17 0 -9 36 14 62 10 11 11 18 3 23 -17
11 18 45 47 45 12 0 23 -4 23 -9z m-1406 -17 c3 -8 2 -12 -4 -9 -6 3 -10 10
-10 16 0 14 7 11 14 -7z m5364 -8 c-8 -6 -13 -17 -10 -24 3 -12 0 -12 -19 -2
l-23 13 23 18 c13 11 28 16 34 12 6 -4 5 -10 -5 -17z m-3738 4 c0 -5 -7 -10
-15 -10 -8 0 -15 5 -15 10 0 6 7 10 15 10 8 0 15 -4 15 -10z m-1260 -31 c-29
-26 -35 -38 -35 -72 0 -64 -32 -54 -39 12 -1 16 28 48 66 75 39 28 45 17 8
-15z m1252 -10 c17 -9 19 -17 13 -47 -9 -48 -22 -72 -40 -72 -7 0 -16 -8 -19
-18 -14 -43 -96 -53 -96 -12 0 27 29 52 51 45 14 -5 19 -1 19 11 0 19 38 104
47 104 2 0 13 -5 25 -11z m-1402 -63 c0 -9 -13 -7 -29 3 -7 5 -10 14 -7 20 5
8 11 7 22 -3 8 -8 14 -17 14 -20z m54 15 c3 -5 -5 -11 -19 -13 -26 -5 -35 6
-12 15 19 8 25 8 31 -2z m1221 -20 c-3 -6 -11 -11 -17 -11 -6 0 -6 6 2 15 14
17 26 13 15 -4z m3921 -18 c-6 -14 -9 -15 -16 -4 -11 19 -1 46 13 32 5 -5 7
-18 3 -28z m-5208 -14 c-7 -5 -22 -9 -33 -9 -19 1 -19 1 -2 15 11 7 26 11 34
8 12 -5 12 -7 1 -14z m985 -20 c-6 -6 -15 -4 -23 6 -12 14 -11 18 0 25 18 11
37 -17 23 -31z m-923 17 c0 -3 -4 -8 -10 -11 -5 -3 -10 -1 -10 4 0 6 5 11 10
11 6 0 10 -2 10 -4z m1190 -31 c-7 -8 -16 -15 -21 -15 -13 0 -11 24 3 38 18
18 35 -3 18 -23z m3568 22 c6 -6 13 -24 17 -39 4 -15 13 -32 21 -39 16 -13 19
-39 5 -39 -5 0 -16 7 -25 15 -18 18 -24 19 -41 1 -8 -7 -11 -23 -8 -35 5 -22
-13 -54 -27 -46 -4 2 -18 -7 -30 -20 -27 -28 -68 -33 -77 -9 -3 9 0 43 8 77
12 53 18 62 43 68 20 6 36 3 54 -9 l25 -16 -7 38 c-10 51 16 84 42 53z m-4788
-36 c-10 -21 -30 -37 -30 -26 0 14 21 45 31 45 6 0 6 -7 -1 -19z m5810 4 c9
-11 30 -14 80 -13 45 2 73 -2 84 -11 40 -34 -1 -98 -55 -86 -17 4 -35 2 -42
-3 -7 -5 -30 -9 -52 -8 -36 1 -40 3 -37 25 1 13 -5 35 -13 48 -12 17 -13 28
-5 43 13 24 23 25 40 5z m-6080 1 c0 -3 -4 -8 -10 -11 -5 -3 -10 -1 -10 4 0 6
5 11 10 11 6 0 10 -2 10 -4z m-320 -20 c0 -3 -7 -12 -16 -20 -16 -17 -34 -21
-34 -8 0 6 9 12 48 31 1 0 2 -1 2 -3z m296 -21 c-3 -8 -1 -15 4 -15 15 0 12
-28 -3 -37 -7 -4 -24 -29 -36 -55 -13 -27 -24 -48 -26 -48 -1 0 2 21 6 47 5
25 6 49 3 52 -3 3 -21 -12 -41 -34 -19 -22 -61 -70 -94 -106 -96 -107 -100
-114 -93 -147 6 -29 4 -31 -29 -37 -29 -6 -42 -18 -81 -74 -32 -47 -45 -75
-43 -96 2 -25 -2 -30 -24 -33 -30 -4 -56 22 -42 41 5 6 15 31 22 55 6 23 15
42 19 42 14 0 152 134 152 148 0 6 7 12 15 12 8 0 19 10 26 21 10 19 5 18 -45
-10 -31 -18 -56 -28 -56 -23 0 17 74 89 108 107 25 12 33 21 29 36 -3 12 0 19
9 19 7 0 20 13 29 30 8 16 24 34 34 40 16 8 21 6 27 -12 6 -20 8 -20 19 -5 7
9 17 17 22 17 6 0 25 18 44 40 34 40 56 52 45 25z m5374 7 c0 -14 -11 -21 -26
-15 -8 3 -11 9 -8 14 7 11 34 12 34 1z m-4200 -29 c-12 -16 -28 -43 -36 -62
-10 -25 -18 -31 -25 -24 -8 8 -7 18 2 34 7 13 13 30 14 36 0 7 5 13 10 14 6 1
19 8 30 15 28 20 29 17 5 -13z m4179 -29 c45 -19 40 -52 -11 -70 -20 -7 -39
-10 -42 -7 -3 4 -6 36 -6 72 1 60 2 64 14 42 7 -13 28 -30 45 -37z m611 31 c0
-8 -9 -15 -20 -15 -20 0 -26 11 -13 23 12 13 33 7 33 -8z m-6440 -25 c0 -5 -5
-10 -11 -10 -5 0 -7 5 -4 10 3 6 8 10 11 10 2 0 4 -4 4 -10z m5576 -37 c-10
-10 -19 5 -10 18 6 11 8 11 12 0 2 -7 1 -15 -2 -18z m130 -23 c18 -51 18 -100
-1 -100 -9 0 -18 7 -21 15 -4 8 -15 15 -26 15 -19 0 -20 4 -14 46 3 25 9 50
12 55 12 20 37 3 50 -31z m1184 20 c0 -5 -5 -10 -11 -10 -5 0 -7 5 -4 10 3 6
8 10 11 10 2 0 4 -4 4 -10z m-6681 -14 c17 -20 -1 -52 -33 -58 -20 -4 -25 0
-30 21 -8 41 38 68 63 37z m6122 4 c25 -14 24 -42 -2 -66 -15 -14 -24 -16 -37
-7 -13 7 -23 6 -39 -4 -19 -13 -22 -12 -28 6 -7 22 13 48 50 69 25 14 32 14
56 2z m-5836 -102 c-10 -59 -25 -72 -25 -22 0 34 13 64 28 64 2 0 1 -19 -3
-42z m1655 27 c0 -8 -7 -15 -15 -15 -16 0 -20 12 -8 23 11 12 23 8 23 -8z
m3737 -2 c5 -14 -29 -26 -51 -17 -13 5 -14 9 -5 21 14 16 51 14 56 -4z m-5817
-3 c0 -5 -7 -10 -15 -10 -8 0 -15 5 -15 10 0 6 7 10 15 10 8 0 15 -4 15 -10z
m5388 -19 c20 -12 10 -46 -14 -49 -15 -2 -23 4 -27 19 -10 36 10 50 41 30z
m-4135 -16 c4 -8 2 -17 -3 -20 -6 -4 -10 3 -10 14 0 25 6 27 13 6z m-1309 -45
c49 -18 22 -57 -30 -44 -26 7 -31 23 -12 42 14 14 11 14 42 2z m-268 -25 c4
-8 3 -26 0 -40 -7 -27 -33 -33 -67 -14 -19 10 -19 10 1 40 23 31 57 39 66 14z
m5654 -8 c0 -13 -10 -37 -23 -54 -20 -27 -25 -29 -41 -18 -14 10 -16 21 -11
44 11 50 75 73 75 28z m-5905 -7 c-10 -11 -22 -17 -28 -13 -6 4 -3 12 8 20 28
20 41 16 20 -7z m7105 -4 c24 -26 22 -56 -4 -56 -23 0 -69 47 -62 65 8 23 40
18 66 -9z m-6145 4 c3 -5 -1 -10 -9 -10 -8 0 -18 5 -21 10 -3 6 1 10 9 10 8 0
18 -4 21 -10z m1053 -7 c-10 -2 -26 -2 -35 0 -10 3 -2 5 17 5 19 0 27 -2 18
-5z m4412 -13 c0 -5 -4 -10 -9 -10 -6 0 -13 5 -16 10 -3 6 1 10 9 10 9 0 16
-4 16 -10z m-6485 -47 c-2 -10 -4 -20 -4 -23 -1 -3 -5 2 -10 10 -10 15 -6 30
9 30 4 0 7 -8 5 -17z m1805 -3 c-8 -5 -19 -10 -25 -10 -5 0 -3 5 5 10 8 5 20
10 25 10 6 0 3 -5 -5 -10z m-40 -14 c0 -2 -7 -7 -16 -10 -8 -3 -12 -2 -9 4 6
10 25 14 25 6z m-1603 -73 c-4 -3 -16 3 -27 14 -25 27 -14 38 13 13 11 -11 17
-23 14 -27z m6351 -1 c2 -7 -3 -12 -12 -12 -9 0 -16 7 -16 16 0 17 22 14 28
-4z m-447 -29 c-7 -28 -41 -46 -41 -22 0 14 29 49 41 49 4 0 4 -12 0 -27z
m-167 -4 c-3 -5 -10 -7 -15 -3 -5 3 -7 10 -3 15 3 5 10 7 15 3 5 -3 7 -10 3
-15z m544 9 c15 -15 -3 -38 -29 -38 -24 0 -33 18 -19 35 15 18 32 19 48 3z
m-5670 -43 c11 4 8 -3 -8 -20 -25 -26 -25 -26 -28 -5 -2 12 0 29 4 38 6 15 7
15 11 -1 3 -12 10 -16 21 -12z m82 15 c0 -5 -7 -10 -16 -10 -8 0 -12 5 -9 10
3 6 10 10 16 10 5 0 9 -4 9 -10z m800 -4 c0 -3 -4 -8 -10 -11 -5 -3 -10 -1
-10 4 0 6 5 11 10 11 6 0 10 -2 10 -4z m5448 -35 c3 -8 -1 -12 -9 -9 -7 2 -15
10 -17 17 -3 8 1 12 9 9 7 -2 15 -10 17 -17z m-376 -43 c-9 -9 -15 -9 -24 0
-10 10 -10 15 2 22 20 12 38 -6 22 -22z m-652 3 c0 -9 -24 -21 -41 -21 -16 0
-10 18 9 23 28 8 32 7 32 -2z m950 -60 c0 -15 -28 -33 -40 -26 -8 5 -8 11 1
21 13 15 39 19 39 5z m-6510 -31 c0 -5 -8 -10 -17 -10 -15 0 -16 2 -3 10 19
12 20 12 20 0z m6678 -2 c-7 -19 -38 -22 -38 -4 0 10 9 16 21 16 12 0 19 -5
17 -12z m-1124 -20 c21 -29 20 -35 -4 -48 -16 -8 -28 -8 -50 4 -24 11 -36 12
-60 3 -38 -15 -57 0 -41 32 15 26 65 29 80 4 10 -16 11 -16 17 5 8 28 38 29
58 0z m951 -72 c0 -22 -14 -29 -33 -18 -17 12 -4 44 17 40 9 -2 16 -12 16 -22z
m-6635 -10 c0 -2 -7 -6 -15 -10 -8 -3 -15 -1 -15 4 0 6 7 10 15 10 8 0 15 -2
15 -4z m6157 -18 c-3 -8 -6 -5 -6 6 -1 11 2 17 5 13 3 -3 4 -12 1 -19z m-559
-6 c3 -9 -2 -13 -14 -10 -9 1 -19 9 -22 16 -3 9 2 13 14 10 9 -1 19 -9 22 -16z
m-38 -35 c0 -19 -10 -27 -26 -20 -21 8 -17 33 6 33 11 0 20 -6 20 -13z m100 3
c0 -5 -4 -10 -9 -10 -6 0 -13 5 -16 10 -3 6 1 10 9 10 9 0 16 -4 16 -10z
m1306 -65 c8 -31 -10 -55 -42 -55 -28 0 -32 24 -8 58 20 29 42 28 50 -3z
m-788 -17 c-5 -15 -48 -24 -48 -10 0 14 12 22 33 22 10 0 17 -5 15 -12z
m-6510 -15 c-2 -9 -8 -18 -15 -20 -9 -3 -11 11 -4 35 1 1 6 2 12 2 6 0 9 -8 7
-17z m287 -3 c7 -12 -5 -60 -15 -60 -9 0 -19 58 -12 65 8 8 20 6 27 -5z m226
-33 c-7 -7 -12 -5 -17 7 -4 11 -1 21 7 27 17 11 26 -18 10 -34z m6829 -144 c0
-4 -9 -17 -21 -29 -18 -19 -19 -27 -11 -58 15 -51 0 -56 -57 -17 -11 7 -5 19
29 60 40 47 60 62 60 44z m-7172 -185 c4 -22 -21 -28 -62 -16 -41 13 -46 25
-14 37 29 11 72 -1 76 -21z m-120 -38 c9 -26 8 -32 -10 -44 -28 -20 -38 -12
-38 28 0 55 31 65 48 16z m6942 16 c0 -8 -5 -18 -11 -22 -14 -8 -33 11 -25 25
10 16 36 13 36 -3z m-100 -22 c0 -8 -7 -14 -15 -14 -15 0 -21 21 -9 33 10 9
24 -2 24 -19z m30 -219 c0 -8 -6 -15 -14 -15 -17 0 -28 14 -19 24 12 12 33 6
33 -9z m334 -243 c13 -45 -11 -71 -51 -56 -34 12 -42 48 -17 75 26 29 57 20
68 -19z m-6944 -12 c-8 -20 -16 -27 -20 -20 -6 9 -13 9 -31 -1 -13 -7 -26 -14
-29 -15 -3 0 -14 -4 -25 -8 -76 -28 -95 -33 -95 -27 0 11 68 57 103 70 16 6
42 11 58 11 17 0 32 6 36 15 3 9 8 14 11 11 2 -3 -1 -19 -8 -36z m6720 -4 c0
-8 -7 -19 -16 -26 -12 -11 -18 -11 -30 2 -13 12 -14 20 -5 37 10 17 15 19 31
11 11 -6 20 -17 20 -24z m68 -3 c-3 -29 -32 -43 -50 -25 -15 15 9 52 33 52 16
0 20 -5 17 -27z m-6634 4 c-7 -18 -35 -34 -74 -41 -35 -6 -35 -6 5 9 22 9 47
22 55 30 18 18 21 19 14 2z m6800 -122 c4 -10 -1 -15 -14 -15 -11 0 -20 7 -20
15 0 8 6 15 14 15 8 0 16 -7 20 -15z m-144 -25 c0 -5 -4 -10 -9 -10 -6 0 -13
5 -16 10 -3 6 1 10 9 10 9 0 16 -4 16 -10z m250 -451 c0 -5 -7 -9 -15 -9 -8 0
-15 7 -15 15 0 9 6 12 15 9 8 -4 15 -10 15 -15z m-76 -284 c4 -13 2 -14 -14
-5 -23 13 -26 20 -6 20 8 0 16 -7 20 -15z m-7300 -377 c10 -39 7 -48 -19 -48
-22 0 -25 4 -25 35 0 28 4 35 19 35 11 0 21 -9 25 -22z m7396 -598 c0 -5 -7
-10 -16 -10 -8 0 -12 5 -9 10 3 6 10 10 16 10 5 0 9 -4 9 -10z"/>
<path d="M540 6212 c0 -15 11 -21 27 -15 12 5 12 7 1 14 -17 11 -28 11 -28 1z"/>
<path d="M527 5789 c7 -7 15 -10 18 -7 3 3 -2 9 -12 12 -14 6 -15 5 -6 -5z"/>
<path d="M790 5499 c0 -5 5 -7 10 -4 6 3 10 8 10 11 0 2 -4 4 -10 4 -5 0 -10
-5 -10 -11z"/>
<path d="M586 5267 c3 -10 9 -15 12 -12 3 3 0 11 -7 18 -10 9 -11 8 -5 -6z"/>
<path d="M3443 5103 c26 -2 68 -2 95 0 26 2 4 3 -48 3 -52 0 -74 -1 -47 -3z"/>
<path d="M1890 4960 c0 -5 5 -10 10 -10 6 0 10 5 10 10 0 6 -4 10 -10 10 -5 0
-10 -4 -10 -10z"/>
<path d="M1617 4814 c-16 -13 -35 -24 -43 -24 -8 0 -14 -4 -14 -9 0 -5 -9 -13
-20 -16 -26 -8 -25 -24 3 -34 27 -10 61 4 76 33 6 11 18 31 26 43 23 31 5 35
-28 7z"/>
<path d="M1786 4013 c-7 -24 7 -88 20 -88 6 0 32 19 59 43 57 50 51 62 -27 62
-36 0 -48 -4 -52 -17z"/>
<path d="M1764 3844 c-6 -16 -65 -164 -81 -203 -4 -9 3 -8 28 5 30 15 32 18
14 24 -18 6 -17 7 6 13 23 6 27 14 38 87 13 76 10 117 -5 74z"/>
<path d="M1525 3420 c-40 -41 -42 -57 -7 -46 19 6 59 72 50 82 -2 2 -22 -14
-43 -36z"/>
<path d="M1460 3368 c0 -10 -11 -25 -25 -34 -26 -17 -33 -40 -13 -46 6 -2 12
-12 14 -21 1 -9 -2 -15 -7 -11 -5 3 -9 0 -9 -5 0 -6 -6 -11 -14 -11 -7 0 -19
-7 -26 -15 -10 -12 -9 -15 4 -15 10 0 15 4 12 8 -3 5 8 9 24 9 36 0 60 19 60
47 0 12 7 31 15 42 17 22 20 48 4 39 -6 -4 -17 1 -24 11 -13 17 -14 18 -15 2z"/>
<path d="M898 3747 c-16 -6 -28 -19 -28 -29 0 -10 3 -18 6 -18 14 0 45 22 54
40 12 22 8 23 -32 7z"/>
<path d="M4138 7053 c6 -2 18 -2 25 0 6 3 1 5 -13 5 -14 0 -19 -2 -12 -5z"/>
<path d="M4283 6963 c15 -2 37 -2 50 0 12 2 0 4 -28 4 -27 0 -38 -2 -22 -4z"/>
<path d="M4388 6963 c7 -3 16 -2 19 1 4 3 -2 6 -13 5 -11 0 -14 -3 -6 -6z"/>
<path d="M4680 6966 c0 -2 9 -6 20 -9 11 -3 18 -1 14 4 -5 9 -34 13 -34 5z"/>
<path d="M4300 6920 c0 -5 7 -7 15 -4 8 4 15 8 15 10 0 2 -7 4 -15 4 -8 0 -15
-4 -15 -10z"/>
<path d="M3395 6900 c3 -5 8 -10 11 -10 2 0 4 5 4 10 0 6 -5 10 -11 10 -5 0
-7 -4 -4 -10z"/>
<path d="M4005 6880 c-3 -5 -2 -10 4 -10 5 0 13 5 16 10 3 6 2 10 -4 10 -5 0
-13 -4 -16 -10z"/>
<path d="M3691 6804 c0 -11 3 -14 6 -6 3 7 2 16 -1 19 -3 4 -6 -2 -5 -13z"/>
<path d="M5052 6734 c10 -10 20 -16 22 -13 3 3 -5 11 -17 18 -21 13 -21 12 -5
-5z"/>
<path d="M3872 6691 c1 -16 5 -28 9 -26 6 5 0 55 -7 55 -3 0 -3 -13 -2 -29z"/>
<path d="M4775 6681 c-3 -5 2 -11 10 -15 8 -3 17 -1 20 3 3 5 -2 11 -10 15 -8
3 -17 1 -20 -3z"/>
<path d="M4040 6626 c0 -2 7 -7 16 -10 8 -3 12 -2 9 4 -6 10 -25 14 -25 6z"/>
<path d="M4985 6580 c3 -5 11 -10 16 -10 6 0 7 5 4 10 -3 6 -11 10 -16 10 -6
0 -7 -4 -4 -10z"/>
<path d="M5057 5879 c-4 -16 -3 -18 9 -8 7 6 11 15 8 20 -8 13 -11 11 -17 -12z"/>
<path d="M5027 5809 c7 -7 15 -10 18 -7 3 3 -2 9 -12 12 -14 6 -15 5 -6 -5z"/>
<path d="M2676 5684 c-35 -34 -50 -202 -22 -239 15 -20 15 -20 16 3 0 13 7 37
16 53 11 23 12 34 4 44 -8 10 -8 15 1 20 6 4 15 1 20 -6 8 -12 11 -12 19 1 21
31 22 62 4 95 -22 41 -38 49 -58 29z"/>
<path d="M2830 5400 c0 -20 5 -30 15 -30 8 0 15 -4 15 -10 0 -5 -7 -7 -15 -4
-8 4 -15 4 -15 1 0 -3 7 -8 15 -11 21 -8 35 32 22 62 -15 32 -37 28 -37 -8z"/>
<path d="M2662 5380 c0 -14 2 -19 5 -12 2 6 2 18 0 25 -3 6 -5 1 -5 -13z"/>
<path d="M2660 5341 c0 -6 5 -13 10 -16 6 -3 10 1 10 9 0 9 -4 16 -10 16 -5 0
-10 -4 -10 -9z"/>
<path d="M2626 5154 c-10 -25 -7 -34 9 -34 8 0 15 9 15 19 0 26 -16 35 -24 15z"/>
<path d="M2609 5086 c-13 -14 -27 -26 -31 -26 -4 0 -19 -5 -34 -10 -20 -8 -24
-14 -16 -22 7 -7 26 -4 66 13 56 23 63 32 47 57 -6 10 -14 7 -32 -12z"/>
<path d="M2615 5002 c-53 -36 -69 -62 -38 -62 10 0 37 -18 60 -41 46 -44 67
-44 61 2 -3 16 0 30 5 32 5 1 2 17 -7 34 -9 18 -16 39 -16 47 0 26 -14 23 -65
-12z"/>
<path d="M2580 4899 c0 -7 -10 -9 -25 -7 -14 3 -25 3 -25 1 0 -8 30 -34 30
-26 0 4 4 2 8 -5 10 -15 82 -29 82 -16 0 5 -16 22 -35 37 -19 15 -35 23 -35
16z"/>
<path d="M7463 4879 c-42 -12 -41 -15 2 -15 22 0 35 5 35 13 0 7 -1 13 -2 12
-2 0 -18 -5 -35 -10z"/>
<path d="M2721 4868 c-1 -9 -10 -19 -20 -23 -11 -3 -22 -12 -25 -20 -7 -19 8
-19 26 -2 7 7 21 16 31 20 9 3 17 11 17 17 0 6 -4 9 -9 6 -5 -4 -12 0 -14 6
-4 8 -6 7 -6 -4z"/>
<path d="M5075 4830 c-3 -5 -1 -10 4 -10 6 0 11 5 11 10 0 6 -2 10 -4 10 -3 0
-8 -4 -11 -10z"/>
<path d="M2811 4814 c0 -11 3 -14 6 -6 3 7 2 16 -1 19 -3 4 -6 -2 -5 -13z"/>
<path d="M4120 4818 c-19 -4 -55 -13 -80 -19 -25 -5 -69 -10 -97 -10 -29 0
-53 -4 -53 -9 0 -6 -10 -10 -22 -10 -17 0 -19 -3 -10 -12 7 -7 12 -22 12 -34
0 -13 5 -26 10 -29 20 -12 9 -21 -20 -17 -39 6 -53 -27 -38 -87 9 -36 15 -42
51 -52 42 -11 119 -7 205 13 39 8 58 19 70 37 9 14 24 31 32 38 8 6 12 15 7
19 -4 4 -1 14 7 23 21 25 29 71 12 71 -7 0 -22 19 -32 43 -19 42 -20 43 -54
35z"/>
<path d="M4253 4792 c-8 -32 -8 -39 2 -36 17 7 26 44 16 62 -6 10 -11 2 -18
-26z"/>
<path d="M7475 4790 c-7 -22 -25 -26 -42 -9 -6 6 -17 9 -24 7 -17 -6 25 -33
63 -42 24 -6 26 -4 25 29 -1 39 -12 46 -22 15z"/>
<path d="M4890 4774 c0 -8 5 -12 10 -9 6 4 8 11 5 16 -9 14 -15 11 -15 -7z"/>
<path d="M3710 4764 c-22 -25 10 -48 62 -45 55 3 65 14 39 40 -25 25 -83 28
-101 5z"/>
<path d="M5082 4753 c-6 -2 -10 -9 -6 -14 7 -12 51 -12 59 1 3 6 2 10 -4 10
-5 0 -15 2 -23 4 -7 3 -19 2 -26 -1z"/>
<path d="M4930 4706 c0 -8 -5 -16 -11 -18 -7 -2 -5 -9 5 -17 14 -11 16 -11 16
2 0 8 3 22 6 31 3 9 1 16 -5 16 -6 0 -11 -6 -11 -14z"/>
<path d="M7465 4695 l-30 -14 33 -1 c22 0 32 5 32 15 0 8 -1 15 -2 14 -2 0
-16 -7 -33 -14z"/>
<path d="M4450 4649 c12 -15 26 -31 33 -35 9 -5 8 -3 0 7 -7 7 -13 21 -13 30
0 9 -9 19 -20 22 -20 5 -20 5 0 -24z"/>
<path d="M4510 4603 c0 -5 40 -43 45 -43 3 0 4 10 3 23 -1 16 -8 22 -25 22
-13 0 -23 -1 -23 -2z"/>
<path d="M4589 4550 c-4 -24 -3 -60 2 -60 11 0 17 37 8 51 -5 8 -9 12 -10 9z"/>
<path d="M1109 4513 c-13 -15 -12 -15 9 -4 23 12 28 21 13 21 -5 0 -15 -7 -22
-17z"/>
<path d="M3430 4492 c-28 -28 -40 -61 -22 -63 4 0 16 -2 26 -4 11 -2 72 -7
135 -10 64 -4 150 -16 191 -26 41 -11 127 -24 190 -30 157 -14 177 -17 177
-32 0 -8 -5 -14 -11 -15 -6 0 -27 -4 -46 -8 -19 -4 -82 -9 -140 -10 -112 -2
-193 -12 -187 -22 2 -4 9 -21 15 -37 12 -30 15 -31 115 -43 163 -21 157 -21
219 15 31 18 60 33 64 33 4 0 22 11 40 25 18 14 37 25 42 25 5 0 17 9 27 20
10 11 26 20 35 20 25 0 101 35 93 43 -3 4 -1 7 5 7 11 0 -14 59 -26 61 -4 1
-35 3 -69 5 -34 1 -71 7 -82 13 -11 6 -35 11 -53 11 -18 0 -44 9 -57 19 -19
14 -31 17 -49 10 -15 -6 -21 -5 -17 1 3 6 1 10 -4 10 -6 0 -11 -4 -11 -9 0
-16 -56 -32 -111 -33 -30 0 -72 -7 -94 -15 -22 -8 -55 -16 -73 -18 -50 -5
-230 28 -244 46 -35 41 -46 43 -78 11z"/>
<path d="M4615 4490 c3 -5 11 -10 16 -10 6 0 7 5 4 10 -3 6 -11 10 -16 10 -6
0 -7 -4 -4 -10z"/>
<path d="M920 4429 l-35 -30 38 26 c33 24 43 35 34 35 -1 0 -18 -14 -37 -31z"/>
<path d="M580 4381 c0 -5 7 -12 16 -15 14 -5 15 -4 4 9 -14 17 -20 19 -20 6z"/>
<path d="M747 4368 l-22 -19 34 5 c18 3 37 6 42 6 17 0 9 18 -11 23 -12 3 -29
-3 -43 -15z"/>
<path d="M810 4335 c0 -9 6 -12 15 -9 8 4 15 10 15 15 0 5 -7 9 -15 9 -8 0
-15 -7 -15 -15z"/>
<path d="M500 4269 c0 -12 5 -19 12 -17 18 6 20 25 3 31 -10 5 -15 0 -15 -14z"/>
<path d="M569 4224 c-13 -37 -7 -39 13 -3 9 16 13 29 7 29 -5 0 -14 -12 -20
-26z"/>
<path d="M4717 4243 c-11 -11 -8 -20 7 -20 8 0 12 6 9 14 -6 15 -7 15 -16 6z"/>
<path d="M190 4220 c0 -5 11 -17 25 -26 22 -14 29 -15 57 -3 l32 13 -50 13
c-60 15 -64 16 -64 3z"/>
<path d="M4529 4213 c-13 -16 -12 -17 4 -4 16 13 21 21 13 21 -2 0 -10 -8 -17
-17z"/>
<path d="M462 4180 c0 -14 2 -19 5 -12 2 6 2 18 0 25 -3 6 -5 1 -5 -13z"/>
<path d="M4527 4176 c-4 -10 -1 -13 8 -9 8 3 12 9 9 14 -7 12 -11 11 -17 -5z"/>
<path d="M4677 4170 c-5 -21 1 -24 27 -14 17 7 10 34 -9 34 -7 0 -15 -9 -18
-20z"/>
<path d="M90 4136 c0 -2 7 -7 16 -10 8 -3 12 -2 9 4 -6 10 -25 14 -25 6z"/>
<path d="M3728 3818 c-2 -5 -12 -10 -23 -12 -11 -2 -19 -10 -19 -20 2 -15 -13
-21 -46 -16 -13 1 -13 -1 1 -15 9 -9 30 -17 47 -17 17 -1 29 -5 26 -9 -3 -5 2
-6 10 -3 27 10 126 9 129 -1 2 -5 30 -11 63 -13 32 -1 91 -4 129 -6 73 -3 98
1 90 14 -3 5 3 6 13 3 12 -3 19 1 19 11 0 8 -5 13 -10 9 -5 -3 -6 7 -2 25 7
34 -9 51 -24 25 -9 -17 -10 -17 -16 0 -4 9 -16 17 -26 17 -10 0 -19 5 -19 11
0 8 -15 9 -47 4 -27 -4 -55 -8 -65 -9 -9 -1 -23 -7 -30 -14 -20 -16 -91 -19
-96 -4 -2 7 -11 12 -20 12 -15 0 -15 2 -2 10 11 8 2 10 -32 8 -26 -1 -49 -6
-50 -10z"/>
<path d="M4336 3789 c-32 -38 -32 -45 -1 -53 14 -4 23 -11 20 -16 -4 -6 -11
-8 -16 -5 -5 4 -12 -1 -15 -10 -4 -9 -12 -14 -19 -11 -8 3 -11 -5 -8 -22 3
-26 3 -26 -6 -4 -11 24 -26 28 -37 10 -4 -6 -3 -8 4 -4 6 3 13 2 17 -4 8 -14
-18 -13 -32 1 -8 8 -20 8 -46 0 -71 -24 -176 -43 -190 -34 -5 3 -13 0 -17 -7
-5 -9 -52 -13 -158 -15 -83 -2 -155 -6 -160 -9 -8 -5 -8 -46 0 -118 1 -10 5
-18 9 -18 3 0 6 -10 6 -22 0 -13 5 -36 12 -52 6 -16 13 -38 15 -49 1 -12 8
-23 14 -25 7 -2 12 -10 12 -19 0 -8 7 -22 16 -30 13 -13 13 -17 2 -24 -9 -6
-10 -9 -1 -9 7 0 10 -6 7 -14 -3 -8 0 -17 6 -21 8 -5 5 -11 -7 -21 -10 -8 -13
-14 -8 -13 6 1 21 -2 34 -6 l23 -8 -23 -13 -24 -13 28 -1 c16 0 26 -4 22 -9
-3 -5 0 -13 6 -17 8 -4 9 -3 5 5 -10 16 21 26 38 12 10 -8 16 -8 25 2 6 8 8
17 4 20 -3 4 3 7 13 7 11 0 29 7 40 16 16 13 16 15 2 10 -10 -3 -18 -2 -18 3
0 5 9 11 21 14 12 3 18 10 15 15 -3 5 3 12 14 15 11 3 20 12 20 20 0 9 8 18
18 21 9 3 30 22 46 43 16 20 24 33 16 28 -9 -6 -11 -4 -6 4 5 7 14 10 20 8 7
-3 13 1 13 8 0 10 -7 11 -25 4 -23 -9 -24 -8 -11 8 8 9 25 27 39 39 21 19 23
24 11 38 -12 14 -12 16 0 11 16 -6 63 32 92 73 11 15 17 19 13 10 -8 -26 9
-30 35 -8 21 17 22 21 9 30 -11 7 -11 10 -2 10 7 0 15 -7 18 -15 4 -8 10 -12
16 -9 5 3 9 0 7 -7 -4 -30 2 -39 24 -39 18 0 19 2 7 10 -8 5 -13 10 -10 11 59
10 70 16 70 34 0 8 7 15 16 15 8 0 12 4 9 10 -9 15 17 91 30 86 6 -2 12 2 13
10 1 8 3 21 4 29 1 8 5 16 10 16 4 1 13 3 18 4 6 1 14 3 20 4 5 0 14 11 21 22
8 15 8 19 0 15 -6 -4 -11 -2 -11 3 0 6 8 11 18 12 10 0 12 3 5 6 -7 2 -13 11
-13 19 0 18 -14 18 -30 -1 -7 -9 -18 -14 -24 -12 -6 2 -35 -9 -64 -25 -65 -35
-68 -35 -44 0 37 53 1 72 -42 21z m68 -194 c-4 -8 -7 -15 -9 -15 -2 0 -5 7 -9
15 -3 9 0 15 9 15 9 0 12 -6 9 -15z m-514 -435 c-8 -5 -22 -9 -30 -9 -10 0 -8
3 5 9 27 12 43 12 25 0z"/>
<path d="M4318 3483 c7 -3 16 -2 19 1 4 3 -2 6 -13 5 -11 0 -14 -3 -6 -6z"/>
<path d="M4116 3244 c-4 -10 -1 -14 6 -12 15 5 23 28 10 28 -5 0 -13 -7 -16
-16z"/>
<path d="M3175 3190 c3 -5 8 -10 11 -10 2 0 4 5 4 10 0 6 -5 10 -11 10 -5 0
-7 -4 -4 -10z"/>
<path d="M3250 3137 c0 -18 28 -42 37 -33 9 8 -9 38 -25 44 -7 2 -12 -3 -12
-11z"/>
<path d="M4655 1288 c-82 -26 -145 -59 -146 -77 -9 -95 0 -147 31 -179 36 -38
38 -52 7 -52 -32 0 -62 -24 -54 -43 9 -25 52 -48 89 -49 35 -1 59 -23 51 -45
-4 -10 -13 -9 -38 7 -18 11 -39 20 -46 20 -8 -1 0 -7 16 -14 37 -16 58 -41 63
-73 3 -24 3 -24 -17 -4 -10 10 -22 28 -25 39 -4 11 -14 23 -22 26 -8 3 -12 2
-9 -4 3 -6 0 -10 -7 -10 -7 -1 -4 -6 7 -13 24 -14 26 -39 5 -48 -21 -9 -43 27
-36 59 5 27 5 27 -6 3 -16 -31 5 -70 49 -92 18 -9 30 -19 26 -23 -18 -18 9 -3
30 17 19 18 22 28 16 55 -3 18 -2 32 3 32 5 0 6 5 2 12 -4 7 -3 8 5 4 6 -4 9
-10 7 -14 -2 -4 2 -12 9 -19 16 -15 24 21 26 111 1 49 3 55 9 31 8 -30 8 -30
9 -4 1 25 3 26 34 19 59 -13 102 20 92 70 -3 16 3 29 20 42 17 13 25 29 25 49
0 25 -5 30 -29 35 -28 6 -35 16 -55 77 -3 9 -14 17 -25 17 -11 0 -23 5 -26 10
-14 23 -60 37 -90 28z m40 -8 c3 -5 -1 -10 -10 -10 -9 0 -13 5 -10 10 3 6 8
10 10 10 2 0 7 -4 10 -10z m76 -47 c-10 -4 -10 -7 -1 -13 9 -5 8 -9 -3 -13
-13 -5 -16 5 -8 31 1 1 7 2 14 1 8 0 8 -2 -2 -6z m-94 -79 c-3 -3 -12 -4 -19
-1 -8 3 -5 6 6 6 11 1 17 -2 13 -5z m67 -9 c3 -8 0 -15 -7 -15 -9 0 -9 -2 0
-8 8 -5 9 -13 3 -22 -11 -18 -17 -12 -22 20 -1 14 -7 28 -13 32 -5 4 0 8 11 8
12 0 24 -7 28 -15z m50 7 c-6 -4 -14 -14 -17 -22 -4 -10 -6 -8 -6 8 -1 15 5
22 17 22 10 0 13 -3 6 -8z m-141 -19 c-7 -2 -19 -2 -25 0 -7 3 -2 5 12 5 14 0
19 -2 13 -5z m207 -38 c-14 -17 -50 -20 -50 -4 0 5 4 8 9 5 4 -3 17 4 27 15
21 23 34 8 14 -16z m-315 15 c-3 -5 -2 -10 3 -10 5 0 15 -11 22 -25 7 -14 20
-25 29 -25 14 0 14 -1 1 -10 -10 -6 -16 -6 -18 0 -2 6 -9 7 -15 3 -6 -4 -8 0
-4 9 4 12 1 14 -14 11 -23 -7 -36 21 -19 42 14 17 24 20 15 5z m150 -9 c0 -27
-98 -25 -108 2 -4 10 9 13 52 12 40 0 56 -4 56 -14z m98 -38 c-6 -16 -71 -48
-80 -39 -3 3 -12 1 -19 -5 -14 -12 -64 -4 -64 9 0 4 14 9 32 10 18 2 40 11 50
22 11 11 25 20 32 20 8 0 17 7 20 17 6 15 8 14 20 -3 8 -10 12 -24 9 -31z
m-133 -87 c0 -2 -7 -7 -16 -10 -8 -3 -12 -2 -9 4 6 10 25 14 25 6z m-128 -17
c-14 -5 -20 -13 -16 -20 4 -8 3 -9 -5 -5 -16 10 5 36 28 35 10 0 8 -3 -7 -10z
m59 -6 c13 -15 12 -15 -8 -4 -24 12 -29 21 -14 21 5 0 15 -7 22 -17z m89 -14
c0 -5 -4 -7 -10 -4 -5 3 -10 -1 -10 -10 0 -9 4 -14 8 -11 5 3 9 -15 9 -40 l1
-45 -22 20 c-27 26 -32 88 -7 94 28 8 31 7 31 -4z"/>
<path d="M4530 1084 c0 -8 5 -12 10 -9 6 4 8 11 5 16 -9 14 -15 11 -15 -7z"/>
<path d="M4640 886 c0 -2 8 -10 18 -17 15 -13 16 -12 3 4 -13 16 -21 21 -21
13z"/>
<path d="M4732 903 c-7 -10 -10 -12 -7 -5 3 6 2 12 -3 12 -9 0 -22 -55 -22
-98 0 -13 -10 -38 -22 -55 -12 -18 -15 -26 -7 -20 9 7 19 9 23 5 5 -4 6 1 4
12 -2 14 7 22 37 33 22 7 45 19 51 26 17 18 27 57 15 57 -6 0 -11 -11 -11 -23
0 -16 -9 -28 -27 -36 -27 -12 -27 -12 -10 6 25 28 21 35 -13 28 -26 -6 -29 -4
-23 12 4 10 13 24 20 31 7 7 13 18 13 23 0 13 -3 11 -18 -8z"/>
<path d="M4546 797 c3 -10 9 -15 12 -12 3 3 0 11 -7 18 -10 9 -11 8 -5 -6z"/>
<path d="M4620 700 c-14 -11 -20 -20 -14 -20 6 0 19 9 29 20 23 25 17 25 -15
0z"/>
<path d="M6270 578 c-11 -18 -25 -51 -31 -73 -32 -112 -76 -245 -100 -300 -11
-27 -48 -121 -65 -167 l-13 -38 33 0 c29 0 35 5 53 48 50 110 72 171 84 227 7
33 16 65 20 71 5 5 6 20 2 32 -3 13 -1 22 6 22 9 0 9 5 1 20 -6 11 -7 20 -1
20 5 0 7 17 6 37 -2 20 -1 42 3 47 6 11 8 17 14 46 2 8 7 21 11 28 5 6 6 12 2
12 -3 0 -14 -15 -25 -32z"/>
</g>
</svg>
